<svg width="104" height="71" viewBox="0 0 104 71" fill="none" xmlns="http://www.w3.org/2000/svg">
<g clip-path="url(#clip0)">
<path d="M99.3263 36.5335C98.1366 34.2651 96.1037 32.6466 93.6016 31.9762C91.7314 31.475 89.8602 31.6074 88.0399 32.3693C87.1214 32.754 86.239 33.2894 85.406 33.9669C85.0236 32.9639 84.5269 32.0588 83.9235 31.2663C82.7283 29.6964 81.174 28.6462 79.3038 28.1451C76.8017 27.4746 74.2317 27.8598 72.0671 29.2295C69.9283 30.5832 68.3573 32.7947 67.644 35.4569C66.9098 38.197 67.2588 40.9788 68.7423 44.2116C70.0694 47.1035 72.2445 50.2609 74.7633 53.9171C75.6233 55.1657 76.5982 56.581 77.6027 58.0795C77.8679 58.4759 78.2678 58.7621 78.7291 58.8857C79.1901 59.0092 79.6798 58.9614 80.107 58.751C81.7263 57.9553 83.279 57.2168 84.6488 56.5651C88.6576 54.6585 92.1199 53.0119 94.7152 51.1708C97.6163 49.113 99.3092 46.8784 100.043 44.1381C100.757 41.4761 100.502 38.7754 99.3263 36.5335Z" fill="#F3D457"/>
</g>
<path d="M37.3018 32.0779C32.3355 33.4086 29.1584 38.1179 29.5797 43.0714L49.486 37.7375C47.3742 33.237 42.2682 30.7472 37.3018 32.0779Z" fill="#81CAD8"/>
<path d="M33.4771 17.8034C30.5256 18.5943 28.7677 21.6389 29.5586 24.5906C30.3494 27.5422 33.394 29.3 36.3457 28.5091C39.2973 27.7182 41.0551 24.6736 40.2642 21.722C39.4733 18.7704 36.4286 17.0126 33.4771 17.8034Z" fill="#81CAD8"/>
<path d="M56.5016 1.4343L5.35282 15.1396C2.40121 15.9305 0.643401 18.9751 1.43425 21.9266L10.3586 55.2327C11.1495 58.1842 14.1941 59.9421 17.1457 59.1513L34.691 54.45L43.6513 61.4835C44.1087 61.8425 44.7083 61.9653 45.2699 61.8148C45.8316 61.6643 46.2895 61.2582 46.5061 60.7186L50.7492 50.1472L68.2945 45.446C71.246 44.6551 73.0039 41.6105 72.213 38.6589L63.2887 5.35271C62.4978 2.40122 59.4532 0.643417 56.5016 1.4343ZM52.3841 40.7848L28.5939 47.1594C27.6084 47.4234 26.5956 46.8385 26.3316 45.8532C24.8756 40.4195 26.8 34.8625 30.8098 31.4239C28.517 30.2849 26.7031 28.2077 25.99 25.5461C24.6719 20.6269 27.6016 15.5525 32.5208 14.2344C37.4401 12.9163 42.5145 15.846 43.8326 20.7652C44.5457 23.4268 44.0134 26.1325 42.5974 28.2654C47.7892 29.2385 52.2343 33.0886 53.6903 38.5225C53.9543 39.5078 53.3695 40.5208 52.3841 40.7848Z" fill="#81CAD8"/>
<defs>
<clipPath id="clip0">
<rect width="33.5424" height="33.5424" fill="white" transform="translate(70.7277 23.9482) rotate(15)"/>
</clipPath>
</defs>
</svg>
