<svg xmlns="http://www.w3.org/2000/svg" xmlns:xlink="http://www.w3.org/1999/xlink" width="420" height="159" viewBox="0 0 420 159"><defs><linearGradient id="a" x1="0.1" y1="0.1" x2="0.903" y2="0.924" gradientUnits="objectBoundingBox"><stop offset="0" stop-color="#ffdd2e"/><stop offset="1" stop-color="#fb0"/></linearGradient><linearGradient id="b" x1="0.075" x2="0.918" y2="1" gradientUnits="objectBoundingBox"><stop offset="0" stop-color="#6dcef5"/><stop offset="1" stop-color="#11abe9"/></linearGradient><linearGradient id="c" x1="0.087" y1="0.116" x2="0.919" y2="0.858" gradientUnits="objectBoundingBox"><stop offset="0" stop-color="#e55b8a"/><stop offset="1" stop-color="#de1e60"/></linearGradient><linearGradient id="d" x1="0.099" y1="0.09" x2="0.896" y2="0.923" gradientUnits="objectBoundingBox"><stop offset="0" stop-color="#85b838"/><stop offset="1" stop-color="#42951a"/></linearGradient></defs><g transform="translate(-526 13.667)"><g transform="translate(-10 14)"><path d="M15.5,0,31,20H0Z" transform="translate(646 100.333) rotate(90)" fill="#ffcf1b"/><rect width="160" height="70" rx="35" transform="translate(586 46.333)" fill="url(#a)"/><g transform="translate(40 77)"><path d="M-56.928,0h1.272V-3.06h1.62A2.463,2.463,0,0,0-51.348-5.5,2.447,2.447,0,0,0-54.036-7.92h-2.892Zm1.272-4.188v-2.6h1.6a1.257,1.257,0,0,1,1.4,1.308,1.248,1.248,0,0,1-1.4,1.3Zm9.24-1.7a1.944,1.944,0,0,0-.48-.06,2.178,2.178,0,0,0-1.716.828v-.768h-1.176V0h1.26V-3.144A1.576,1.576,0,0,1-46.8-4.776h.384Zm.876,2.94A3.088,3.088,0,0,0-42.432.132,3.094,3.094,0,0,0-39.3-2.952a3.084,3.084,0,0,0-3.132-3.072A3.071,3.071,0,0,0-45.54-2.952Zm4.944.012a1.845,1.845,0,0,1-1.836,1.908A1.829,1.829,0,0,1-44.256-2.94,1.852,1.852,0,0,1-42.42-4.872,1.857,1.857,0,0,1-40.6-2.94Zm1.332,5.124a2.635,2.635,0,0,0,.816.108A1.864,1.864,0,0,0-36.36.24V-5.892h-1.26V.132c0,.732-.372,1.02-1.128,1.02a4.152,4.152,0,0,1-.516-.036Zm1.416-10.272a.838.838,0,0,0,.864.828.835.835,0,0,0,.852-.828.845.845,0,0,0-.852-.84A.848.848,0,0,0-37.848-8.088Zm8.856,5.556a3.751,3.751,0,0,0,.1-.792,2.65,2.65,0,0,0-2.724-2.7A3.038,3.038,0,0,0-34.668-2.94,3.063,3.063,0,0,0-31.5.132a3.3,3.3,0,0,0,2.352-.948l-.6-.864a2.54,2.54,0,0,1-1.716.7,1.821,1.821,0,0,1-1.92-1.548Zm-4.368-.984a1.726,1.726,0,0,1,1.692-1.44,1.424,1.424,0,0,1,1.512,1.44Zm5.772.564A3.083,3.083,0,0,0-24.468.132a2.851,2.851,0,0,0,2.484-1.368l-.888-.684a1.921,1.921,0,0,1-1.584.888A1.851,1.851,0,0,1-26.3-2.952,1.848,1.848,0,0,1-24.456-4.86a1.875,1.875,0,0,1,1.584.9l.888-.7a2.808,2.808,0,0,0-2.484-1.368A3.081,3.081,0,0,0-27.588-2.952Zm10.74,1.884c-.348.036-.6.06-.78.06-.768,0-1.164-.264-1.164-1.02V-4.8h1.752V-5.892h-1.752V-7.44h-1.272v1.548h-.96V-4.8h.96v2.88A1.9,1.9,0,0,0-17.892.132,5.161,5.161,0,0,0-16.848,0Zm.96.06A2.959,2.959,0,0,0-13.512.132a2.535,2.535,0,0,0,1.56-.468,1.586,1.586,0,0,0,.624-1.332c0-.828-.492-1.308-1.608-1.776l-.564-.228c-.576-.24-.78-.4-.78-.7,0-.372.312-.564.8-.564a1.92,1.92,0,0,1,1.38.6l.684-.78a2.522,2.522,0,0,0-2.04-.912c-1.2,0-2.076.648-2.076,1.7,0,.828.492,1.284,1.536,1.716l.6.252c.576.24.828.384.828.732,0,.432-.408.66-.948.66a2.259,2.259,0,0,1-1.656-.84ZM-6.432-3.96A4.1,4.1,0,0,0-2.268.132a3.884,3.884,0,0,0,3.4-1.824L.168-2.4A2.773,2.773,0,0,1-2.256-1.032,2.828,2.828,0,0,1-5.112-3.96,2.828,2.828,0,0,1-2.256-6.888,2.773,2.773,0,0,1,.168-5.52l.96-.708a3.928,3.928,0,0,0-3.4-1.824A4.1,4.1,0,0,0-6.432-3.96ZM2.316-2.952A3.088,3.088,0,0,0,5.424.132,3.094,3.094,0,0,0,8.556-2.952,3.084,3.084,0,0,0,5.424-6.024,3.071,3.071,0,0,0,2.316-2.952ZM7.26-2.94A1.845,1.845,0,0,1,5.424-1.032,1.829,1.829,0,0,1,3.6-2.94,1.852,1.852,0,0,1,5.436-4.872,1.857,1.857,0,0,1,7.26-2.94Zm11.82-.744A2.117,2.117,0,0,0,16.9-6.024,2.493,2.493,0,0,0,14.9-5.1a1.99,1.99,0,0,0-1.788-.924,2.3,2.3,0,0,0-1.7.684v-.552H10.236V0H11.5V-3.5a1.267,1.267,0,0,1,1.3-1.368A1.229,1.229,0,0,1,14.028-3.5V0h1.26V-3.564a1.251,1.251,0,0,1,1.3-1.308A1.215,1.215,0,0,1,17.808-3.5V0H19.08Zm8.112.732A2.915,2.915,0,0,0,24.3-6.024a2.454,2.454,0,0,0-2.052.96v-.828H21.072V2.16h1.26V-.72A2.553,2.553,0,0,0,24.3.132,2.912,2.912,0,0,0,27.192-2.952Zm-1.3.012a1.813,1.813,0,0,1-1.8,1.92A1.757,1.757,0,0,1,22.32-2.952,1.754,1.754,0,0,1,24.1-4.872,1.817,1.817,0,0,1,25.9-2.94ZM28.884,0h1.26V-9h-1.26Zm8.628-2.532a3.751,3.751,0,0,0,.1-.792,2.65,2.65,0,0,0-2.724-2.7A3.038,3.038,0,0,0,31.836-2.94,3.063,3.063,0,0,0,35,.132a3.3,3.3,0,0,0,2.352-.948l-.6-.864a2.54,2.54,0,0,1-1.716.7,1.821,1.821,0,0,1-1.92-1.548Zm-4.368-.984a1.726,1.726,0,0,1,1.692-1.44,1.424,1.424,0,0,1,1.512,1.44Zm9.648,2.448c-.348.036-.6.06-.78.06-.768,0-1.164-.264-1.164-1.02V-4.8H42.6V-5.892H40.848V-7.44H39.576v1.548h-.96V-4.8h.96v2.88A1.9,1.9,0,0,0,41.748.132,5.161,5.161,0,0,0,42.792,0Zm6.7-1.464a3.751,3.751,0,0,0,.1-.792,2.65,2.65,0,0,0-2.724-2.7A3.038,3.038,0,0,0,43.812-2.94,3.063,3.063,0,0,0,46.98.132a3.3,3.3,0,0,0,2.352-.948l-.6-.864a2.54,2.54,0,0,1-1.716.7A1.821,1.821,0,0,1,45.1-2.532ZM45.12-3.516a1.726,1.726,0,0,1,1.692-1.44,1.424,1.424,0,0,1,1.512,1.44ZM55.74-9v3.828a2.5,2.5,0,0,0-1.968-.852,2.909,2.909,0,0,0-2.88,3.084A2.913,2.913,0,0,0,53.772.132,2.47,2.47,0,0,0,55.836-.84V0h1.176V-9Zm.024,6.06a1.754,1.754,0,0,1-1.776,1.92,1.812,1.812,0,0,1-1.812-1.932,1.823,1.823,0,0,1,1.812-1.92A1.777,1.777,0,0,1,55.764-2.94Z" transform="translate(626 18.333)" fill="#fff"/><path d="M-17.09-13.4h-2.08l-4.32,2.48v2.96l3.2-1.64V0h3.2Zm8.38-.3c-3.54,0-5.9,2.82-5.9,7s2.36,7,5.9,7,5.92-2.82,5.92-7S-5.17-13.7-8.71-13.7Zm0,11.1c-1.58,0-2.58-1.58-2.58-4.1,0-2.5,1-4.1,2.58-4.1s2.6,1.6,2.6,4.1C-6.11-4.18-7.13-2.6-8.71-2.6ZM4.97-13.7c-3.54,0-5.9,2.82-5.9,7s2.36,7,5.9,7,5.92-2.82,5.92-7S8.51-13.7,4.97-13.7Zm0,11.1c-1.58,0-2.58-1.58-2.58-4.1,0-2.5,1-4.1,2.58-4.1s2.6,1.6,2.6,4.1C7.57-4.18,6.55-2.6,4.97-2.6ZM22.53-4.76V-7.38H19.11v-3.48H16.49v3.48H13.07v2.62h3.42v3.48h2.62V-4.76Z" transform="translate(626 3.333)" fill="#fff"/></g></g><g transform="translate(-10 10)"><path d="M15.5,0,31,20H0Z" transform="translate(899 61.333) rotate(-90)" fill="#23b1eb"/><rect width="230" height="70" rx="35" transform="translate(726 -23.667)" fill="url(#b)"/><g transform="translate(215 7)"><path d="M-52.044,0h1.272V-6.78H-48.1V-7.92h-6.612v1.14h2.664Zm4.032-2.952A3.088,3.088,0,0,0-44.9.132a3.094,3.094,0,0,0,3.132-3.084A3.084,3.084,0,0,0-44.9-6.024,3.071,3.071,0,0,0-48.012-2.952Zm4.944.012A1.845,1.845,0,0,1-44.9-1.032,1.829,1.829,0,0,1-46.728-2.94a1.852,1.852,0,0,1,1.836-1.932A1.857,1.857,0,0,1-43.068-2.94Zm6.48,1.872c-.348.036-.6.06-.78.06-.768,0-1.164-.264-1.164-1.02V-4.8h1.752V-5.892h-1.752V-7.44H-39.8v1.548h-.96V-4.8h.96v2.88A1.9,1.9,0,0,0-37.632.132,5.161,5.161,0,0,0-36.588,0Zm6.192-2.5a2.245,2.245,0,0,0-2.412-2.46,2.886,2.886,0,0,0-2.484,1.26l.732.744A2.021,2.021,0,0,1-32.928-4.9a1.139,1.139,0,0,1,1.26,1.26v.384h-1.668c-1.332,0-2.172.66-2.172,1.68s.816,1.7,2.052,1.7A2.357,2.357,0,0,0-31.572-.66V0H-30.4Zm-1.272,1.332A1.434,1.434,0,0,1-33.192-.84c-.612,0-1.032-.288-1.032-.78s.372-.72,1.044-.72h1.512ZM-28.4,0h1.26V-9H-28.4ZM-21.4,0h1.272V-3.06h1.62A2.463,2.463,0,0,0-15.816-5.5,2.447,2.447,0,0,0-18.5-7.92H-21.4Zm1.272-4.188v-2.6h1.6a1.257,1.257,0,0,1,1.4,1.308,1.248,1.248,0,0,1-1.4,1.3ZM-9.7-3.564a2.245,2.245,0,0,0-2.412-2.46,2.886,2.886,0,0,0-2.484,1.26l.732.744A2.021,2.021,0,0,1-12.228-4.9a1.139,1.139,0,0,1,1.26,1.26v.384h-1.668c-1.332,0-2.172.66-2.172,1.68s.816,1.7,2.052,1.7A2.357,2.357,0,0,0-10.872-.66V0H-9.7Zm-1.272,1.332A1.434,1.434,0,0,1-12.492-.84c-.612,0-1.032-.288-1.032-.78s.372-.72,1.044-.72h1.512ZM-3.6-5.892-5.34-1.608-7.032-5.892H-8.388L-6.036-.264l-.24.552a1.248,1.248,0,0,1-1.284.864c-.1,0-.324-.012-.7-.048V2.172a3.851,3.851,0,0,0,.972.12A2.238,2.238,0,0,0-5.124.672l2.868-6.564Zm2.112,2.94A3.088,3.088,0,0,0,1.62.132,3.094,3.094,0,0,0,4.752-2.952,3.084,3.084,0,0,0,1.62-6.024,3.071,3.071,0,0,0-1.488-2.952Zm4.944.012A1.845,1.845,0,0,1,1.62-1.032,1.829,1.829,0,0,1-.2-2.94,1.852,1.852,0,0,1,1.632-4.872,1.857,1.857,0,0,1,3.456-2.94Zm2.916.468a2.476,2.476,0,0,0,2.58,2.6,2.476,2.476,0,0,0,2.556-2.6v-3.42h-1.26v3.516a1.267,1.267,0,0,1-1.3,1.344A1.276,1.276,0,0,1,7.62-2.376V-5.892H6.372Zm10.644,1.4c-.348.036-.6.06-.78.06-.768,0-1.164-.264-1.164-1.02V-4.8h1.752V-5.892H15.072V-7.44H13.8v1.548h-.96V-4.8h.96v2.88A1.9,1.9,0,0,0,15.972.132,5.161,5.161,0,0,0,17.016,0ZM22.128,0h1.26V-5.892h-1.26ZM21.9-8.088a.838.838,0,0,0,.864.828.835.835,0,0,0,.852-.828.845.845,0,0,0-.852-.84A.848.848,0,0,0,21.9-8.088Zm8.7,4.4a2.122,2.122,0,0,0-2.208-2.34,2.322,2.322,0,0,0-1.764.708v-.576H25.452V0h1.26V-3.516a1.3,1.3,0,0,1,1.344-1.368A1.258,1.258,0,0,1,29.34-3.516V0H30.6ZM36.276,0h1.272V-7.92H36.276Zm3.5,0h2.484c2.58,0,4.308-1.668,4.308-3.972,0-2.34-1.716-3.948-4.308-3.948H39.78Zm1.272-1.14V-6.768h1.2a2.727,2.727,0,0,1,3.012,2.8A2.772,2.772,0,0,1,42.252-1.14ZM54.756,0,52.38-3.264A2.313,2.313,0,0,0,53.9-5.5,2.447,2.447,0,0,0,51.216-7.92H48.324V0H49.6V-3.06h1.452L53.3,0ZM49.6-6.792h1.6a1.269,1.269,0,0,1,1.4,1.308,1.266,1.266,0,0,1-1.4,1.3H49.6Z" transform="translate(626 18.333)" fill="#fff"/><path d="M-70.7-2.88h-4.88l1.92-1.76c1.8-1.7,2.82-2.86,2.82-4.72,0-2.66-2-4.34-4.84-4.34s-4.82,1.64-4.96,4.34l3.06.58c.12-1.5.82-2.16,1.92-2.16A1.549,1.549,0,0,1-74-9.34c0,1.22-.92,2.02-1.8,2.84l-4.62,4.34V0h9.72Zm10.22-3.9a2.966,2.966,0,0,0,1.44-2.7c0-2.46-1.94-4.22-4.8-4.22a4.706,4.706,0,0,0-5,4.3l3.02.58c.12-1.5.92-2.16,2-2.16a1.576,1.576,0,0,1,1.78,1.54c0,.86-.66,1.46-1.8,1.46h-1.4v2.44h1.54c1.16,0,1.82.6,1.82,1.48A1.7,1.7,0,0,1-63.8-2.44c-1.18,0-1.9-.76-2.08-2.08L-69-3.94C-68.7-1.34-66.64.3-63.82.3c2.94,0,5-1.78,5-4.32A2.942,2.942,0,0,0-60.48-6.78Zm5.14,3.28a1.8,1.8,0,0,0-1.82,1.8A1.761,1.761,0,0,0-55.34.1,1.778,1.778,0,0,0-53.5-1.7,1.814,1.814,0,0,0-55.34-3.5Zm7.14-5.2.08-1.84h5.92V-13.4H-51L-51.24-6h4.6a1.7,1.7,0,0,1,1.92,1.66A1.786,1.786,0,0,1-46.64-2.5c-1.1,0-2.1-.68-2.12-2.42l-3.12.62C-51.8-1.28-49.46.3-46.7.3c3.08,0,5.08-1.92,5.08-4.68,0-2.62-1.76-4.32-4.72-4.32Zm17.02-4.7h-9.6v2.88h6.04L-39.1,0h3.54l4.38-11.02Zm9.96,6.62a2.966,2.966,0,0,0,1.44-2.7c0-2.46-1.94-4.22-4.8-4.22a4.706,4.706,0,0,0-5,4.3l3.02.58c.12-1.5.92-2.16,2-2.16a1.576,1.576,0,0,1,1.78,1.54c0,.86-.66,1.46-1.8,1.46h-1.4v2.44h1.54c1.16,0,1.82.6,1.82,1.48a1.7,1.7,0,0,1-1.92,1.62c-1.18,0-1.9-.76-2.08-2.08l-3.12.58c.3,2.6,2.36,4.24,5.18,4.24,2.94,0,5-1.78,5-4.32A2.942,2.942,0,0,0-21.22-6.78Zm5.14,3.28A1.8,1.8,0,0,0-17.9-1.7,1.761,1.761,0,0,0-16.08.1a1.778,1.778,0,0,0,1.84-1.8A1.814,1.814,0,0,0-16.08-3.5Zm9.1-10.2c-3.54,0-5.9,2.82-5.9,7s2.36,7,5.9,7,5.92-2.82,5.92-7S-3.44-13.7-6.98-13.7Zm0,11.1c-1.58,0-2.58-1.58-2.58-4.1,0-2.5,1-4.1,2.58-4.1s2.6,1.6,2.6,4.1C-4.38-4.18-5.4-2.6-6.98-2.6ZM4.34-8.7l.08-1.84h5.92V-13.4H1.54L1.3-6H5.9A1.7,1.7,0,0,1,7.82-4.34,1.786,1.786,0,0,1,5.9-2.5c-1.1,0-2.1-.68-2.12-2.42L.66-4.3C.74-1.28,3.08.3,5.84.3c3.08,0,5.08-1.92,5.08-4.68C10.92-7,9.16-8.7,6.2-8.7ZM22.28-2.88H17.4l1.92-1.76c1.8-1.7,2.82-2.86,2.82-4.72,0-2.66-2-4.34-4.84-4.34s-4.82,1.64-4.96,4.34l3.06.58c.12-1.5.82-2.16,1.92-2.16a1.549,1.549,0,0,1,1.66,1.6c0,1.22-.92,2.02-1.8,2.84L12.56-2.16V0h9.72Zm3.7-.62a1.8,1.8,0,0,0-1.82,1.8A1.761,1.761,0,0,0,25.98.1a1.778,1.778,0,0,0,1.84-1.8A1.814,1.814,0,0,0,25.98-3.5Zm9.1-10.2c-3.54,0-5.9,2.82-5.9,7s2.36,7,5.9,7S41-2.52,41-6.7,38.62-13.7,35.08-13.7Zm0,11.1c-1.58,0-2.58-1.58-2.58-4.1,0-2.5,1-4.1,2.58-4.1s2.6,1.6,2.6,4.1C37.68-4.18,36.66-2.6,35.08-2.6ZM48.76-13.7c-3.54,0-5.9,2.82-5.9,7s2.36,7,5.9,7,5.92-2.82,5.92-7S52.3-13.7,48.76-13.7Zm0,11.1c-1.58,0-2.58-1.58-2.58-4.1,0-2.5,1-4.1,2.58-4.1s2.6,1.6,2.6,4.1C51.36-4.18,50.34-2.6,48.76-2.6ZM62.44-13.7c-3.54,0-5.9,2.82-5.9,7s2.36,7,5.9,7,5.92-2.82,5.92-7S65.98-13.7,62.44-13.7Zm0,11.1c-1.58,0-2.58-1.58-2.58-4.1,0-2.5,1-4.1,2.58-4.1s2.6,1.6,2.6,4.1C65.04-4.18,64.02-2.6,62.44-2.6ZM80-4.76V-7.38H76.58v-3.48H73.96v3.48H70.54v2.62h3.42v3.48h2.62V-4.76Z" transform="translate(626 3.333)" fill="#fff"/></g></g><g transform="translate(-10 14)"><path d="M15.5,0,31,20H0Z" transform="translate(859 131.333) rotate(-90)" fill="#df2464"/><rect width="150" height="60" rx="30" transform="translate(756 56.333)" fill="url(#c)"/><g transform="translate(205 82)"><path d="M-46.008,0h1.272V-3.624h3.984V0h1.272V-7.92h-1.272v3.156h-3.984V-7.92h-1.272ZM-32.7-3.564a2.245,2.245,0,0,0-2.412-2.46A2.886,2.886,0,0,0-37.6-4.764l.732.744A2.021,2.021,0,0,1-35.232-4.9a1.139,1.139,0,0,1,1.26,1.26v.384H-35.64c-1.332,0-2.172.66-2.172,1.68S-37,.132-35.76.132A2.357,2.357,0,0,0-33.876-.66V0H-32.7Zm-1.272,1.332A1.434,1.434,0,0,1-35.5-.84c-.612,0-1.032-.288-1.032-.78s.372-.72,1.044-.72h1.512Zm9.384-.72A2.915,2.915,0,0,0-27.48-6.024a2.454,2.454,0,0,0-2.052.96v-.828h-1.176V2.16h1.26V-.72A2.553,2.553,0,0,0-27.48.132,2.912,2.912,0,0,0-24.588-2.952Zm-1.3.012a1.813,1.813,0,0,1-1.8,1.92A1.757,1.757,0,0,1-29.46-2.952a1.754,1.754,0,0,1,1.776-1.92A1.817,1.817,0,0,1-25.884-2.94Zm9.108-.012a2.915,2.915,0,0,0-2.892-3.072,2.454,2.454,0,0,0-2.052.96v-.828H-22.9V2.16h1.26V-.72a2.553,2.553,0,0,0,1.968.852A2.912,2.912,0,0,0-16.776-2.952Zm-1.3.012a1.813,1.813,0,0,1-1.8,1.92,1.757,1.757,0,0,1-1.776-1.932,1.754,1.754,0,0,1,1.776-1.92A1.817,1.817,0,0,1-18.072-2.94Zm6.96-2.952-1.74,4.284-1.692-4.284H-15.9l2.352,5.628-.24.552a1.248,1.248,0,0,1-1.284.864c-.1,0-.324-.012-.7-.048V2.172a3.851,3.851,0,0,0,.972.12,2.238,2.238,0,0,0,2.16-1.62l2.868-6.564Zm13.5-2.16L-.936-3.624-4.26-8.052H-4.7V0h1.272V-4.98l2.28,2.988H-.72L1.548-4.968V0H2.82V-8.052Zm7.824,5.52a3.751,3.751,0,0,0,.1-.792,2.65,2.65,0,0,0-2.724-2.7A3.038,3.038,0,0,0,4.536-2.94,3.063,3.063,0,0,0,7.7.132a3.3,3.3,0,0,0,2.352-.948l-.6-.864a2.54,2.54,0,0,1-1.716.7A1.821,1.821,0,0,1,5.82-2.532ZM5.844-3.516a1.726,1.726,0,0,1,1.692-1.44,1.424,1.424,0,0,1,1.512,1.44Zm14.988-.168a2.117,2.117,0,0,0-2.184-2.34,2.493,2.493,0,0,0-1.992.924,1.99,1.99,0,0,0-1.788-.924,2.3,2.3,0,0,0-1.7.684v-.552H11.988V0h1.26V-3.5a1.267,1.267,0,0,1,1.3-1.368A1.229,1.229,0,0,1,15.78-3.5V0h1.26V-3.564a1.251,1.251,0,0,1,1.3-1.308A1.215,1.215,0,0,1,19.56-3.5V0h1.272Zm8.112.744a2.919,2.919,0,0,0-2.892-3.084,2.5,2.5,0,0,0-1.968.852V-9h-1.26V0H24V-.816a2.484,2.484,0,0,0,2.064.948A2.921,2.921,0,0,0,28.944-2.94Zm-1.3-.012a1.817,1.817,0,0,1-1.8,1.932,1.754,1.754,0,0,1-1.776-1.92,1.757,1.757,0,0,1,1.776-1.932A1.813,1.813,0,0,1,27.648-2.952Zm8.292.42a3.751,3.751,0,0,0,.1-.792,2.65,2.65,0,0,0-2.724-2.7A3.038,3.038,0,0,0,30.264-2.94,3.063,3.063,0,0,0,33.432.132a3.3,3.3,0,0,0,2.352-.948l-.6-.864a2.54,2.54,0,0,1-1.716.7,1.821,1.821,0,0,1-1.92-1.548Zm-4.368-.984a1.726,1.726,0,0,1,1.692-1.44,1.424,1.424,0,0,1,1.512,1.44Zm9.516-2.376a1.944,1.944,0,0,0-.48-.06,2.178,2.178,0,0,0-1.716.828v-.768H37.716V0h1.26V-3.144A1.576,1.576,0,0,1,40.7-4.776h.384ZM41.9-1.008A2.959,2.959,0,0,0,44.28.132a2.535,2.535,0,0,0,1.56-.468,1.586,1.586,0,0,0,.624-1.332c0-.828-.492-1.308-1.608-1.776l-.564-.228c-.576-.24-.78-.4-.78-.7,0-.372.312-.564.8-.564a1.92,1.92,0,0,1,1.38.6l.684-.78a2.522,2.522,0,0,0-2.04-.912c-1.2,0-2.076.648-2.076,1.7,0,.828.492,1.284,1.536,1.716l.6.252c.576.24.828.384.828.732,0,.432-.408.66-.948.66a2.259,2.259,0,0,1-1.656-.84Z" transform="translate(626 18.333)" fill="#fff"/><path d="M-11.14-2.46V-5.1h-1.62v-8.3h-4.08l-5.98,7.98v2.96h6.96V0h3.1V-2.46ZM-15.86-5.1h-3.62l3.62-5.12ZM-.94-13.4h-9.6v2.88H-4.5L-8.86,0h3.54L-.94-11.02ZM8.42-6.86a3.253,3.253,0,0,0,2-3.08c0-2.2-1.98-3.76-4.82-3.76S.78-12.14.78-9.94A3.216,3.216,0,0,0,2.76-6.86,3.352,3.352,0,0,0,.32-3.66C.32-1.34,2.44.3,5.6.3c3.14,0,5.24-1.64,5.24-3.96A3.394,3.394,0,0,0,8.42-6.86ZM5.58-11.22A1.614,1.614,0,0,1,7.36-9.68,1.629,1.629,0,0,1,5.58-8.12,1.569,1.569,0,0,1,3.84-9.66,1.583,1.583,0,0,1,5.58-11.22Zm0,8.92A1.638,1.638,0,0,1,3.76-3.9,1.645,1.645,0,0,1,5.58-5.54a1.684,1.684,0,0,1,1.86,1.6A1.7,1.7,0,0,1,5.58-2.3Zm16.6-2.46V-7.38H18.76v-3.48H16.14v3.48H12.72v2.62h3.42v3.48h2.62V-4.76Z" transform="translate(626 3.333)" fill="#fff"/></g></g><g transform="translate(-10 10)"><path d="M15.5,0,31,20H0Z" transform="translate(596.5 20.833) rotate(90)" fill="#75b031"/><rect width="180" height="60" rx="30" transform="translate(536 -23.667)" fill="url(#d)"/><g transform="translate(0 2)"><path d="M-64.788,0h1.272V-3.06h1.62A2.463,2.463,0,0,0-59.208-5.5,2.447,2.447,0,0,0-61.9-7.92h-2.892Zm1.272-4.188v-2.6h1.6a1.257,1.257,0,0,1,1.4,1.308,1.248,1.248,0,0,1-1.4,1.3Zm10.428.624A2.245,2.245,0,0,0-55.5-6.024a2.886,2.886,0,0,0-2.484,1.26l.732.744A2.021,2.021,0,0,1-55.62-4.9a1.139,1.139,0,0,1,1.26,1.26v.384h-1.668c-1.332,0-2.172.66-2.172,1.68s.816,1.7,2.052,1.7A2.357,2.357,0,0,0-54.264-.66V0h1.176ZM-54.36-2.232A1.434,1.434,0,0,1-55.884-.84c-.612,0-1.032-.288-1.032-.78s.372-.72,1.044-.72h1.512Zm6.636-3.66a1.944,1.944,0,0,0-.48-.06,2.178,2.178,0,0,0-1.716.828v-.768H-51.1V0h1.26V-3.144a1.576,1.576,0,0,1,1.728-1.632h.384Zm4.872,4.824c-.348.036-.6.06-.78.06-.768,0-1.164-.264-1.164-1.02V-4.8h1.752V-5.892H-44.8V-7.44h-1.272v1.548h-.96V-4.8h.96v2.88A1.9,1.9,0,0,0-43.9.132,5.161,5.161,0,0,0-42.852,0ZM-41.34,0h1.26V-5.892h-1.26Zm-.228-8.088a.838.838,0,0,0,.864.828.835.835,0,0,0,.852-.828.845.845,0,0,0-.852-.84A.848.848,0,0,0-41.568-8.088Zm3.18,5.136A3.083,3.083,0,0,0-35.268.132a2.851,2.851,0,0,0,2.484-1.368l-.888-.684a1.921,1.921,0,0,1-1.584.888A1.851,1.851,0,0,1-37.1-2.952,1.848,1.848,0,0,1-35.256-4.86a1.875,1.875,0,0,1,1.584.9l.888-.7a2.808,2.808,0,0,0-2.484-1.368A3.081,3.081,0,0,0-38.388-2.952ZM-31.152,0h1.26V-5.892h-1.26Zm-.228-8.088a.838.838,0,0,0,.864.828.835.835,0,0,0,.852-.828.845.845,0,0,0-.852-.84A.848.848,0,0,0-31.38-8.088Zm9.672,5.136A2.915,2.915,0,0,0-24.6-6.024a2.454,2.454,0,0,0-2.052.96v-.828h-1.176V2.16h1.26V-.72A2.553,2.553,0,0,0-24.6.132,2.912,2.912,0,0,0-21.708-2.952ZM-23-2.94a1.813,1.813,0,0,1-1.8,1.92A1.757,1.757,0,0,1-26.58-2.952,1.754,1.754,0,0,1-24.8-4.872,1.817,1.817,0,0,1-23-2.94Zm7.668-.624a2.245,2.245,0,0,0-2.412-2.46,2.886,2.886,0,0,0-2.484,1.26l.732.744A2.021,2.021,0,0,1-17.868-4.9a1.139,1.139,0,0,1,1.26,1.26v.384h-1.668c-1.332,0-2.172.66-2.172,1.68s.816,1.7,2.052,1.7A2.357,2.357,0,0,0-16.512-.66V0h1.176Zm-1.272,1.332A1.434,1.434,0,0,1-18.132-.84c-.612,0-1.032-.288-1.032-.78s.372-.72,1.044-.72h1.512ZM-9.84-1.068c-.348.036-.6.06-.78.06-.768,0-1.164-.264-1.164-1.02V-4.8h1.752V-5.892h-1.752V-7.44h-1.272v1.548h-.96V-4.8h.96v2.88A1.9,1.9,0,0,0-10.884.132,5.161,5.161,0,0,0-9.84,0ZM-8.328,0h1.26V-5.892h-1.26Zm-.228-8.088a.838.838,0,0,0,.864.828.835.835,0,0,0,.852-.828.845.845,0,0,0-.852-.84A.848.848,0,0,0-8.556-8.088Zm8.7,4.4a2.122,2.122,0,0,0-2.208-2.34,2.322,2.322,0,0,0-1.764.708v-.576H-5V0h1.26V-3.516A1.3,1.3,0,0,1-2.4-4.884,1.258,1.258,0,0,1-1.116-3.516V0H.144ZM6.756-5.892v.84a2.485,2.485,0,0,0-2.088-.972A2.829,2.829,0,0,0,1.8-3.072,2.823,2.823,0,0,0,4.668-.12,2.542,2.542,0,0,0,6.66-.96v.42A1.576,1.576,0,0,1,4.9,1.14,3.147,3.147,0,0,1,2.832.3l-.7.876A4.093,4.093,0,0,0,4.968,2.292,2.7,2.7,0,0,0,7.92-.612v-5.28ZM6.672-3.084A1.79,1.79,0,0,1,6.144-1.7a1.749,1.749,0,0,1-1.248.48,1.765,1.765,0,0,1-1.284-.5A1.809,1.809,0,0,1,3.1-3.072a1.754,1.754,0,0,1,.516-1.32A1.765,1.765,0,0,1,4.9-4.9,1.684,1.684,0,0,1,6.672-3.084ZM18.384,0h1.368L16.26-8.052h-.432L12.336,0h1.356l.564-1.32H17.82Zm-1.02-2.412H14.712l1.332-3.276Zm3.228-.54A3.083,3.083,0,0,0,23.712.132,2.851,2.851,0,0,0,26.2-1.236l-.888-.684a1.921,1.921,0,0,1-1.584.888,1.851,1.851,0,0,1-1.848-1.92A1.848,1.848,0,0,1,23.724-4.86a1.875,1.875,0,0,1,1.584.9l.888-.7a2.808,2.808,0,0,0-2.484-1.368A3.081,3.081,0,0,0,20.592-2.952Zm6.744,0A3.083,3.083,0,0,0,30.456.132,2.851,2.851,0,0,0,32.94-1.236l-.888-.684a1.921,1.921,0,0,1-1.584.888,1.851,1.851,0,0,1-1.848-1.92A1.848,1.848,0,0,1,30.468-4.86a1.875,1.875,0,0,1,1.584.9l.888-.7a2.808,2.808,0,0,0-2.484-1.368A3.081,3.081,0,0,0,27.336-2.952Zm6.744,0A3.088,3.088,0,0,0,37.188.132,3.094,3.094,0,0,0,40.32-2.952a3.084,3.084,0,0,0-3.132-3.072A3.071,3.071,0,0,0,34.08-2.952Zm4.944.012a1.845,1.845,0,0,1-1.836,1.908A1.829,1.829,0,0,1,35.364-2.94,1.852,1.852,0,0,1,37.2-4.872,1.857,1.857,0,0,1,39.024-2.94Zm2.916.468a2.476,2.476,0,0,0,2.58,2.6,2.476,2.476,0,0,0,2.556-2.6v-3.42h-1.26v3.516a1.267,1.267,0,0,1-1.3,1.344,1.276,1.276,0,0,1-1.332-1.344V-5.892H41.94ZM54.228-3.684a2.122,2.122,0,0,0-2.208-2.34,2.322,2.322,0,0,0-1.764.708v-.576H49.08V0h1.26V-3.516a1.3,1.3,0,0,1,1.344-1.368,1.258,1.258,0,0,1,1.284,1.368V0h1.26Zm5.5,2.616c-.348.036-.6.06-.78.06-.768,0-1.164-.264-1.164-1.02V-4.8h1.752V-5.892H57.78V-7.44H56.508v1.548h-.96V-4.8h.96v2.88A1.9,1.9,0,0,0,58.68.132,5.161,5.161,0,0,0,59.724,0Zm.96.06A2.959,2.959,0,0,0,63.06.132a2.535,2.535,0,0,0,1.56-.468,1.586,1.586,0,0,0,.624-1.332c0-.828-.492-1.308-1.608-1.776l-.564-.228c-.576-.24-.78-.4-.78-.7,0-.372.312-.564.8-.564a1.92,1.92,0,0,1,1.38.6l.684-.78a2.522,2.522,0,0,0-2.04-.912c-1.2,0-2.076.648-2.076,1.7,0,.828.492,1.284,1.536,1.716l.6.252c.576.24.828.384.828.732,0,.432-.408.66-.948.66A2.259,2.259,0,0,1,61.4-1.8Z" transform="translate(626 18.333)" fill="#fff"/><path d="M-31.82-13.4H-33.9l-4.32,2.48v2.96l3.2-1.64V0h3.2Zm6.02,4.7.08-1.84h5.92V-13.4h-8.8L-28.84-6h4.6a1.7,1.7,0,0,1,1.92,1.66A1.786,1.786,0,0,1-24.24-2.5c-1.1,0-2.1-.68-2.12-2.42l-3.12.62C-29.4-1.28-27.06.3-24.3.3c3.08,0,5.08-1.92,5.08-4.68,0-2.62-1.76-4.32-4.72-4.32Zm10.1,5.2a1.8,1.8,0,0,0-1.82,1.8A1.761,1.761,0,0,0-15.7.1a1.778,1.778,0,0,0,1.84-1.8A1.814,1.814,0,0,0-15.7-3.5Zm9.28-5.2A4.227,4.227,0,0,0-9.44-7.48a3.956,3.956,0,0,1,.9-2.72,2.2,2.2,0,0,1,1.64-.76A1.582,1.582,0,0,1-5.14-9.82l3.1-.6C-2.6-12.54-4.4-13.7-6.78-13.7a5.22,5.22,0,0,0-3.86,1.58c-1.34,1.34-1.86,3.28-1.86,5.66C-12.5-2.14-10.24.3-6.82.3c2.96,0,5.06-1.9,5.06-4.56A4.292,4.292,0,0,0-6.42-8.7ZM-6.9-2.4A1.929,1.929,0,0,1-8.86-4.32,1.942,1.942,0,0,1-6.9-6.3a1.967,1.967,0,0,1,2,1.94A1.984,1.984,0,0,1-6.9-2.4ZM6.02-13.7c-3.54,0-5.9,2.82-5.9,7s2.36,7,5.9,7,5.92-2.82,5.92-7S9.56-13.7,6.02-13.7Zm0,11.1c-1.58,0-2.58-1.58-2.58-4.1,0-2.5,1-4.1,2.58-4.1s2.6,1.6,2.6,4.1C8.62-4.18,7.6-2.6,6.02-2.6ZM19.7-13.7c-3.54,0-5.9,2.82-5.9,7s2.36,7,5.9,7,5.92-2.82,5.92-7S23.24-13.7,19.7-13.7Zm0,11.1c-1.58,0-2.58-1.58-2.58-4.1,0-2.5,1-4.1,2.58-4.1s2.6,1.6,2.6,4.1C22.3-4.18,21.28-2.6,19.7-2.6ZM37.26-4.76V-7.38H33.84v-3.48H31.22v3.48H27.8v2.62h3.42v3.48h2.62V-4.76Z" transform="translate(626 3.333)" fill="#fff"/></g></g></g></svg>