<svg xmlns="http://www.w3.org/2000/svg" width="624" height="420" fill="none" xmlns:v="https://vecta.io/nano"><style><![CDATA[.B{fill:#f7dbbc}.C{fill:#e6e6e6}.D{stroke-miterlimit:10}.E{fill:#333}.F{fill:#1c0d00}.G{fill:#f15e5e}.H{fill:#71b6bd}.I{stroke:#ededed}.J{stroke-width:1.439}.K{fill:#4d4d4d}]]></style><path fill="#ac6700" fill-opacity=".37" d="M46 404h578v16H46z"/><path d="M61.503 331.945c1.041 6.583 1.737 13.699 1.411 20.392a50.2 50.2 0 0 1-1.775 10.993c-.36 1.291-4.117 8.757-3.743 9.457.48.907 1.886.912 2.682.264s1.128-1.698 1.406-2.682c3.071-10.892 5.081-23.9 3.085-35.152a188.09 188.09 0 0 0-9.98-35.094 188.87 188.87 0 0 0-7.845-17.451c-1.247-2.437-2.197-4.798-3.181-7.269-.806-2.015-3.167-3.963-2.802-6.31.202-1.271 1.228-2.279 2.366-2.879s2.399-.907 3.618-1.372c.168.101-.24.24-.24.043s.23-.288.422-.326l8.464-1.723c.238-.02.462-.126.629-.297a.96.96 0 0 0 .115-.653c-.101-1.568-.375-3.121-.816-4.63-4.211 1.577-8.544 2.806-12.955 3.676.797-.778 11.463-6.761 11.573-6.555l-1.843-3.407c-3.126 1.758-6.346 3.344-9.644 4.751 3.152-1.349 4.957-4.28 8.426-5.485-3.575-8.991-11.842-15.791-21.198-18.233-5.436-1.439-11.367-1.439-16.549.72-13.344 5.623-16.069 22.705-10.191 34.398a1.44 1.44 0 0 0 .456.61 1.49 1.49 0 0 0 1.219 0l7.677-2.299a56.55 56.55 0 0 0-7.121 4.319c-.223.091-.417.24-.563.432a1.35 1.35 0 0 0-.164 1.36c.096.221.25.412.444.554a32.97 32.97 0 0 0 4.875 4.995c.758.628 1.665 1.262 2.639 1.099 1.06-.178 1.919-1.157 2.879-1.517-3.8 4.612 2.236 6.281 5.83 7.893.481.285 1.044.398 1.598.322.614-.158 1.003-.753 1.329-1.296l3.699-6.156c-1.473 2.841-1.756 5.59-2.154 8.704.668.598 1.428 1.084 2.25 1.44.072.041.152.067.234.077a.62.62 0 0 0 .246-.02c.074-.048.138-.11.188-.184a.65.65 0 0 0 .1-.243l.864-2.701a7.29 7.29 0 0 0 0 3.565 4.27 4.27 0 0 1 2.956-.182c-.23-3.839.456-7.677 1.142-11.458.235-1.315.557-2.764 1.636-3.551s2.769-.605 3.925.182 1.919 2.02 2.548 3.263c2.226 4.318 4.578 8.579 6.66 12.993 3.387 7.176 6.228 14.598 8.498 22.202 2.012 6.695 3.575 13.517 4.678 20.421z" fill="#63a564"/><path d="M116.802 268.58c1.022-3.671 1.183-7.529.469-11.273s-2.282-7.273-4.583-10.311-5.273-5.503-8.684-7.204-7.168-2.591-10.979-2.601a24.76 24.76 0 0 0-19.714 9.702c-2.317 3.026-3.904 6.547-4.637 10.287s-.593 7.599.411 11.275a39.45 39.45 0 0 1 7.221 3.791l.038.024c.345.235 2.965 2.231 1.919 8.109-1.142 6.286-19.241 51.849-16.064 70.025l1.943 16.894 1.224-3.195s-4.774-45.583 16.496-81.21c0 0 3.517-2.74 7.154.72a47.91 47.91 0 0 1 2.222 2.98 22.87 22.87 0 0 0 1.723.062c1.87.002 3.734-.209 5.556-.629-1.307-5.98-4.084-11.541-8.08-16.179 0 0 7.831 8.066 10.752 15.426a24.75 24.75 0 0 0 8.666-5.278c-.638-1.881-3.839-10.163-11.165-10.163a17.83 17.83 0 0 1 7.986 1.485 17.82 17.82 0 0 1 6.499 4.873 24.68 24.68 0 0 0 2.088-3.541 7.64 7.64 0 0 0-2.059-3.009c-.919-.822-2.024-1.41-3.219-1.712 0 0 3.972-.471 6.818.652z" fill="#007f09"/><path d="M64.558 351.761s-1.895-34.148-17.149-44.22a6.13 6.13 0 0 1-2.035-2.248 6.14 6.14 0 0 1-.71-2.948 34.33 34.33 0 0 1 3.071-5.653 18.66 18.66 0 0 1 .408-.585 14.46 14.46 0 0 0-7.697-7.076c-3.358-1.317-7.087-1.331-10.455-.039a14.46 14.46 0 0 0-8.742 17.426 17.26 17.26 0 0 1 5.791-.268 15.39 15.39 0 0 0-5.48 1.228c.443 1.23 1.052 2.394 1.809 3.46l.201.278c3.656-4.626 6.962-4.966 6.962-4.966-3.306 1.123-4.918 4.15-5.686 6.453 2.15 2.193 4.944 3.64 7.975 4.132.581-2.447 2.495-6.267 3.234-7.678-1.225 2.434-1.813 5.138-1.708 7.86a14.38 14.38 0 0 0 3.143-.168c-.13-1.531 1.209-4.443 1.607-5.278-.619 1.439-.523 5.057-.523 5.062a14.39 14.39 0 0 0 2.207-.729c.057-.725.163-1.44.288-2.14.231-1.255.531-2.496.897-3.719 2.087-.696 8.872-1.511 14.174 14.169 6.353 18.771 5.662 28.458 5.662 28.458l2.754-.811zm-28.252-43.183c.014-.03.03-.059.048-.087-.015.025-.031.049-.048.072v.015z" fill="#40a847"/><path d="M75.062 356.964a9.52 9.52 0 0 0 2.233-2.961 9.51 9.51 0 0 0 .93-3.589H52.501c.145 2.517 1.285 4.873 3.167 6.55a9.49 9.49 0 0 0-3.186 7.101c.001 1.342.283 2.669.832 3.894a9.5 9.5 0 0 0 2.354 3.212 9.52 9.52 0 0 0-3.185 7.104 9.51 9.51 0 0 0 .833 3.892c.549 1.225 1.351 2.319 2.352 3.212a9.49 9.49 0 0 0-3.186 7.101 9.52 9.52 0 0 0 .725 3.645c.479 1.156 1.18 2.205 2.065 3.09a9.52 9.52 0 0 0 6.735 2.789h6.717c2.526 0 4.949-1.003 6.735-2.789s2.79-4.209 2.79-6.735a9.51 9.51 0 0 0-.831-3.891 9.5 9.5 0 0 0-2.35-3.21 9.54 9.54 0 0 0 2.349-3.213 9.52 9.52 0 0 0 .831-3.891c0-1.341-.283-2.668-.831-3.892a9.53 9.53 0 0 0-2.349-3.212 9.51 9.51 0 0 0 2.35-3.213 9.52 9.52 0 0 0 .831-3.893 9.51 9.51 0 0 0-.831-3.891 9.5 9.5 0 0 0-2.35-3.21h-.005zm318.567 5.987v35.074c0 3.066-1.602 5.552-3.579 5.552s-3.58-2.486-3.58-5.552v-24.754c0-14.61-7.634-26.452-17.052-26.452h-44.624c-9.414 0-17.048 11.842-17.048 26.452v24.754c0 3.066-1.602 5.552-3.579 5.552s-3.58-2.486-3.58-5.552v-35.074c0-14.611 7.634-26.453 17.048-26.453h58.956c9.404 0 17.038 11.842 17.038 26.453z" fill="#aa1e3d"/><path d="M213.969 394.334h-79.482a46.96 46.96 0 0 1-23.915-6.543 46.97 46.97 0 0 1-17.253-17.808l-6.506-11.837c-8.164-14.858-13.191-31.234-14.771-48.113a123.89 123.89 0 0 1 5.587-50.019l9.783-29.917a46.96 46.96 0 0 1 19.102-24.826c9.021-5.846 19.774-8.42 30.464-7.293l31.461 3.32c7.365.776 14.441 3.283 20.652 7.315s11.38 9.478 15.085 15.889l29.308 50.707c3.931 6.797 9.502 12.501 16.203 16.593l15.091 9.207a47 47 0 0 1 14.799 14.296 46.99 46.99 0 0 1 7.272 19.249l.878 6.237c1.084 7.69.244 15.528-2.445 22.813a46.96 46.96 0 0 1-12.962 18.932c-8.584 7.587-19.645 11.774-31.102 11.774l-27.249.024z" class="H"/><g class="D I J"><path d="M176.438 202.835s20.632 12.423 17.854 25.838c0 0 1.603 28.036 21.285 38.688 0 0 19.433 30.709 0 62.641l48.582 6.477h-115.21s5.552-47.655-46.269-62.923c0 0-11.103-12.476 1.852-45.804 0 0 24.553-13.68 20.373-29.509"/><path d="M215.578 330.021H149.07"/></g><path d="M93.319 369.985l-6.506-11.838c-8.164-14.858-13.191-31.234-14.771-48.113a123.89 123.89 0 0 1 5.587-50.019l9.783-29.917a46.85 46.85 0 0 1 15.114-21.923c-15.896 15.46-12.336 25.186-19.116 52.3s-4.318 47.502-4.318 47.502c9.865 75.27 55.515 74.017 55.515 74.017h112.278c44.82-7.979 39.125-51.547 39.072-51.964.36 1.487.652 2.994.868 4.525l.878 6.237c1.084 7.69.244 15.528-2.445 22.813a46.96 46.96 0 0 1-12.962 18.932c-8.584 7.587-19.645 11.774-31.102 11.774H134.487a46.97 46.97 0 0 1-23.911-6.532 46.98 46.98 0 0 1-17.257-17.794z" fill="#47a0aa"/><path d="M480.232 394.335h79.482c8.413 0 16.672-2.26 23.913-6.544a46.96 46.96 0 0 0 17.251-17.807l6.506-11.837a123.87 123.87 0 0 0 14.775-48.113 123.89 123.89 0 0 0-5.586-50.02l-9.774-29.917c-3.341-10.219-10.086-18.983-19.109-24.828s-19.779-8.419-30.471-7.291l-31.462 3.321a46.97 46.97 0 0 0-20.651 7.316c-6.211 4.033-11.38 9.477-15.086 15.888l-29.307 50.707a46.98 46.98 0 0 1-16.199 16.592l-15.095 9.208c-5.924 3.615-10.974 8.499-14.785 14.299s-6.29 12.373-7.258 19.245l-.883 6.238c-1.083 7.689-.242 15.527 2.447 22.812s7.141 13.79 12.96 18.932a46.98 46.98 0 0 0 31.107 11.775l27.225.024z" class="H"/><g class="D J"><path d="M517.764 202.835s-20.633 12.423-17.859 25.838c0 0-1.603 28.036-21.28 38.688 0 0-19.433 30.709 0 62.641l-48.582 6.477h115.205s-5.552-47.655 46.269-62.923c0 0 11.103-12.476-1.852-45.804 0 0-24.548-13.68-20.369-29.509" class="I"/><path d="M478.625 330.021h66.508" stroke="#e6e6e6"/></g><path d="M600.878 369.985l6.506-11.838c8.166-14.857 13.194-31.233 14.775-48.113s-.321-33.904-5.586-50.019l-9.774-29.917a46.86 46.86 0 0 0-15.095-21.923c15.896 15.46 12.341 25.186 19.116 52.3s4.318 47.502 4.318 47.502c-9.894 75.27-55.544 74.017-55.544 74.017H447.316c-44.82-7.979-39.129-51.547-39.072-51.964-.359 1.487-.652 2.994-.868 4.525l-.883 6.237c-1.083 7.69-.242 15.528 2.447 22.813s7.141 13.789 12.96 18.932c8.586 7.587 19.649 11.774 31.107 11.774h106.707c8.411.003 16.668-2.254 23.909-6.533a46.97 46.97 0 0 0 17.255-17.793z" fill="#47a0aa"/><path d="M257.83 388.472h-15.733v15.104h7.869l7.864-15.104zm-132.943 0h15.728v15.104h-7.864l-7.864-15.104zm446.463 0h-15.729v15.104h7.864l7.865-15.104zm-132.944 0h15.733v15.104h-7.869l-7.864-15.104z" class="E"/><path d="M161.094 216.98l-18.463-2.462 8.301-27.436 12.796 1.703-2.634 28.195z" class="B"/><path d="M158.503 188.09l-7.571-1.008-8.301 27.436 5.719.763a29.94 29.94 0 0 1-.101-8.637c1.061-7.739 4.899-14.318 10.254-18.554z" fill="url(#A)"/><path d="M161.703 198.162c11.63 0 21.059-9.429 21.059-21.06s-9.429-21.059-21.059-21.059-21.06 9.429-21.06 21.059 9.429 21.06 21.06 21.06z" class="B"/><path d="M156.593 192.868c-.825-4.318.245-16.367.586-19.917a4.87 4.87 0 0 0-.61-.12c-1.017-.134-2.051.038-2.97.494a5.17 5.17 0 0 0-2.858 5.002c.074 1.023.451 2.001 1.083 2.809-1.406 1.517-6.564 4.942-8.325 6.545-5.278-4.189-9.913-19.754 2.308-25.546 2.169-4.519 6.002-6.578 10.287-7.197a14.97 14.97 0 0 1 9.841.576c5.681 1.262 10.58 3.695 11.895 4.928-.725 5.441-1.996 6.914-10.978 5.575-2.366.873-4.319 2.658-6.459 5.057 0 .178-.959 16.54 4.04 17.212s12.735-1.291 14.952-.998c1.612.216.983 2.188-.288 3.541-1.046 1.118-8.484 1.065-8.738 2.979-.144 1.08.96 1.224 1.881 1.349.725.096 1.368.182 1.305.671-.249 1.881-.125 5.494-3.359 5.058s-12.624-2.903-13.593-8.018z" class="F"/><path d="M253.8 356.295c-10.321-15.004-18.838-28.396-21.592-33.544a11.08 11.08 0 0 1-1.329-4.28l16.669-10.633c.549.281 1.039.667 1.439 1.137 7.068 8.512 24.471 38.434 48.731 84.314l-8.157 5.686c-16.659-17.869-29.735-33.919-35.761-42.68z" fill="#f8cdba"/><path d="M273.861 384.374c-14.716-22.072-41.173-32.148-50.918-60.822l27.652-17.638c13.799 14.395 36.672 66.321 39.772 70.025l-16.506 8.435z" class="E"/><path d="M283.136 391.981c-.203-.035-.411-.029-.612.017s-.391.132-.559.251-.31.271-.42.445a1.6 1.6 0 0 0-.218.573v.077l-.638 5.45a50.93 50.93 0 0 0 1.679 6.003l43.707-7.039s.797-5.907-2.946-5.758l-6.237.168-21.775-5.782a.78.78 0 0 0-.594.081c-.18.104-.311.275-.365.476l-.797 3.358s-3.143 2.131-5.278 2.472l-4.947-.792z" fill="#666"/><path d="M231.359 275.509c2.529-.068 5.062-.653 7.643-.341 2.692.326 5.384 1.339 7.251 3.306 1.127 1.292 2.026 2.767 2.658 4.361.926 2.091 1.703 4.244 2.327 6.444a8.06 8.06 0 0 1 .422 3.062c-.302 2.72-3.637 4.615-6.127 3.483-2.059-.931-3.085-3.267-4.914-4.587-1.516-1.094-3.44-1.406-5.278-1.684-5.479-.83-10.604-2.27-16.122-3.047-1.516-.206-3.138-.48-4.284-1.473-4.607-4.103 3.229-9.923 6.78-10.604 2.878-.552 5.354.83 8.157 1.046a14.46 14.46 0 0 0 1.487.034z" class="B"/><path d="M130.894 260.541c2.221 1.713 44.949 30.296 100.762 29.13l3.762-16.909s-68.528-6.333-81.363-39.345-23.161 27.124-23.161 27.124z" fill="#b68a56"/><path d="M256.265 399.411l8.978-2.524c-7.37-48.054-13.579-79.875-17.221-89.582-2.399-6.41-21.069-5.839-19.049 7.029.85 5.398 4.271 19.865 8.795 36.313 2.644 9.606 9.28 27.825 18.497 48.764z" fill="#f8cdba"/><path d="M253.023 391.973c-.369-.129-.773-.106-1.125.063a1.47 1.47 0 0 0-.751.839v.072l-1.44 4.928c.081 1.947.283 3.888.605 5.811l41.466.403s1.67-5.326-1.809-5.787l-5.758-.825-19.193-8.781a.73.73 0 0 0-.959.365l-1.267 2.994s-3.239 1.473-5.278 1.439l-4.491-1.521z" fill="#666"/><path d="M127.588 300.636l61.546-3.393c2.817-.158 2.044-4.467 1.516-6.636-6.084-25.008-25.91-51.23-27.887-87.197l-17.916-2.015c-13.291 26.059-16.65 57.4-17.259 99.241z" class="C"/><path d="M238.556 307.593s-27.349 17.274-53.317 24.404c-4.446 1.247-9.004 2.051-13.608 2.399-1.401.102-2.762.152-4.083.149-15.081.081-34.183-8.637-32.062-23.857.811-10.906 17.039-9.39 24.836-16.055 1.127-.777 2.264-1.531 3.402-2.245 5.671-3.589 11.309-6.329 15.834-7.346 16.256-3.671 56.618-.423 56.618-.423l2.38 22.974z" class="K"/><path d="M178.189 179.65c.077-.067.394.111.754.557.454.598.761 1.294.897 2.033s.096 1.498-.115 2.218c-.178.547-.408.826-.509.787-.22-.081.115-1.343-.182-2.879s-1.022-2.562-.845-2.716z" class="F"/><g fill="#3b0f7f"><path d="M147.98 201.525c.206.096-.058 1.123-.595 2.298s-1.137 2.049-1.344 1.953.063-1.123.6-2.293 1.132-2.049 1.339-1.958z"/><path d="M145.951 205.742c.23 0 .417.063.422.163s-.173.197-.398.207-.418-.058-.422-.163.187-.197.398-.207zm5.911-2.907c.226.034.283.902.135 1.919s-.48 1.857-.682 1.824-.283-.903-.129-1.92.456-1.871.676-1.823zm4.035.119c.226 0 .48.96.533 2.212s-.062 2.241-.288 2.255-.48-.959-.533-2.212.063-2.245.288-2.255zm3.791.911c.22-.029.547 1.314.513 2.994s-.408 3.008-.629 2.975-.22-1.368-.192-2.99.082-2.96.308-2.979z"/></g><path d="M135.14 211.379a24.23 24.23 0 0 1 3.421-2.169 25.63 25.63 0 0 1 12.826-2.807 20.79 20.79 0 0 1 5.758 1.209s1.751 1.603 5.652 4.554c3.805 1.814 7.346 2.778 10.369 4.937a40.06 40.06 0 0 1 7.37 9.17c2.485 4.145 4.477 9.164 7.077 13.54a94 94 0 0 0 .547 2.879l.605 2.879c2.289 7.994 7.197 18.233.245 24.375-2.879 2.456-8.599-7.783-13.277-2.663-.66.604-1.19 1.337-1.555 2.154-.267.905-.428 1.837-.48 2.778a14.59 14.59 0 0 0 .087 2.74c.288.854.547 1.737.787 2.658.398.782.844 1.56 1.319 2.323 1.68 2.288 3.724 4.318 4.535 7.518a28.87 28.87 0 0 1 1.276 4.199c2.255 10.023-.518 21.486-6.411 29.614-.889 1.088-1.836 2.127-2.835 3.114a44.04 44.04 0 0 1-2.332 2.126c-.8.678-1.63 1.318-2.49 1.919-6.718 3.306-15.168 3.114-22.552.274a31.4 31.4 0 0 1-4.256-2.015c-22.225-20.69-28.765-57.157-22.331-86.426a67.49 67.49 0 0 1 1.243-4.006c3.144-9.37 8.416-17.884 15.402-24.874z" fill="#9a6c27"/><path d="M225.874 253.57c5.849.087 8.743-3.589 13.886-5.513 4.069-1.526 8.599-.264 12.759 1.003l12.849 3.911c1.142.35 2.351.743 3.1 1.669 1.166 1.44.72 3.69-.48 5.096s-2.98 2.164-4.688 2.879c-4.544 1.919-9.39 3.867-14.265 3.104-2.615-.412-5.038-1.583-7.586-2.307-7.36-2.107-12.955 1.05-19.994 2.068" class="B"/><path d="M153.835 229.944c11.247 6.238 23.784 8.373 35.641 12.605 12.638 4.511 26.126 8.474 39.657 8.426.583-.065 1.173.051 1.689.331 2.965 2.044 1.646 11.276 2.193 14.443-19.711 4.98-40.881 9.903-59.935 2.821" fill="#9a6c27"/><path d="M173.751 269.405c-4.842-6.838-7.351-11.516-9.448-21.18l.566-.124c2.073 9.567 4.563 14.197 9.357 20.968l-.475.336z" fill="#3b0f7f"/><path d="M170.421 176.767c-.158.008-.305.08-.411.198a.59.59 0 0 0-.15.43c.009.158.08.306.198.411a.6.6 0 0 0 .43.151.61.61 0 0 0 .226-.059.6.6 0 0 0 .185-.139.59.59 0 0 0 .118-.201.6.6 0 0 0 .033-.23c-.005-.078-.024-.155-.058-.225a.61.61 0 0 0-.341-.304.58.58 0 0 0-.23-.032zm10.518-.582c-.078.004-.155.024-.225.058a.58.58 0 0 0-.186.14c-.052.058-.092.126-.118.2a.6.6 0 0 0-.033.23c.005.078.024.155.058.225a.61.61 0 0 0 .341.304.58.58 0 0 0 .23.032c.158-.008.305-.08.411-.198a.59.59 0 0 0 .15-.43c-.009-.158-.08-.306-.198-.411s-.273-.159-.43-.15z" fill="#000"/><path d="M188.338 291.477c4.28-2.951 9.423-4.319 14.471-5.552 9.357-2.293 19.634-3.272 29.269-2.399 4.184.379 8.397 1.742 11.516 4.568 7.615 6.914 10.378 20.575 10.906 30.464.696 13.051 3.92 25.843 6.343 38.76.226 1.218 3.935 18.559 2.918 18.833-7.845 2.14-22.206 7.197-20.009 6.314-10.882-24.336-19.836-49.22-31.586-73.182" class="K"/><path d="M181.606 173.162c.096.111 0 .403-.379.61-.252.112-.526.165-.802.153s-.545-.087-.786-.22c-.436-.232-.789-.592-1.013-1.032-.153-.317-.168-.561-.052-.662s.359-.039.642.12l.96.571a3.14 3.14 0 0 0 .878.292c.23.053.451.044.552.168zm-11.31-.691c.111-.091.437.043.61.537a1.86 1.86 0 0 1 .013.988c-.084.324-.255.619-.493.855a2.21 2.21 0 0 1-.779.507c-.293.112-.607.16-.92.141-.451-.039-.695-.211-.686-.365 0-.317.984-.48 1.574-1.075a2.03 2.03 0 0 0 .48-.959c.091-.284.072-.533.201-.629zm4.381 21.664c-.129.086-.345 0-.604-.044a1.92 1.92 0 0 0-.897-.05c-.298.054-.58.178-.821.362-.225.144-.398.293-.557.255s-.249-.303-.105-.706c.111-.263.286-.495.509-.674s.487-.3.769-.351a1.72 1.72 0 0 1 .843.056 1.73 1.73 0 0 1 .715.451c.278.326.273.619.148.701z" fill="#332501"/><path d="M162.423 179.857c.151.14.311.27.48.389 2.994 2.048 7.197 2.293 10.69 2.355 2.985.048 6.176-.134 8.603-1.876a1.08 1.08 0 0 1 .725-.302c.398.048.595.528.6.931.043 3.014-.593 5.998-1.862 8.733-1.855 3.662-4.285 7.004-7.197 9.898-1.305 1.315-2.812 2.596-4.645 2.879-1.607.235-3.229-.35-4.678-1.094-2.297-1.18-4.356-2.775-6.075-4.702-2.197-2.471-3.766-5.412-5.1-8.416-1.44-3.21-2.879-6.142-3.872-9.524-.123-.305-.157-.638-.096-.96.018-.077.051-.15.098-.214a.55.55 0 0 1 .174-.159c.068-.041.143-.068.222-.079a.6.6 0 0 1 .235.015 22.65 22.65 0 0 0 .96 2.788 2.99 2.99 0 0 0 .902 1.353c1.761 1.257 4.62-2.529 5.143-3.886a2.67 2.67 0 0 0 0-1.483c-.182-.939-.464-1.856-.839-2.735a2.3 2.3 0 0 1-.298-1.334c.091-.456.667-.825 1.032-.542 2.404 1.876 2.562 5.93 4.798 7.965z" class="C"/><path d="M182.936 180.421a1.08 1.08 0 0 0-.725.302c-1.043.725-2.224 1.23-3.469 1.483a26.26 26.26 0 0 1-.801 4.692c-1.037 3.888-2.754 7.561-5.072 10.849a30.69 30.69 0 0 1-4.458 5.11c.467.063.94.063 1.406 0 1.833-.273 3.359-1.554 4.645-2.879 2.912-2.894 5.342-6.236 7.197-9.898 1.269-2.734 1.905-5.719 1.862-8.733.01-.398-.187-.878-.585-.926z" fill="#ccc"/><path d="M167.152 183.196c2.808-.155 5.054-.815 5.018-1.474s-2.342-1.067-5.149-.912-5.054.815-5.018 1.474 2.342 1.067 5.149.912zm17.965-.988c2.807-.155 5.054-.815 5.017-1.474s-2.341-1.067-5.149-.912-5.053.815-5.017 1.473 2.342 1.068 5.149.913z" fill="#fa9e9f"/><path d="M124.46 198.085c2.346 13.54-10.129 23.137-20.206 29.375-4.318 10.556-7.197 22.071-6.237 33.587.48 4.318.96 8.637 4.318 11.995 7.197 2.879 14.395 5.278 21.112 10.077a14.59 14.59 0 0 0 3.359 2.399c8.157 6.717 14.394 14.394 17.753 23.991 2.879 7.197 3.839 14.874 4.112 22.311a40.35 40.35 0 0 1-.168 4.506v32.306s-50.054-4.932-57.784-49.968-4.006-86.675 9.256-97.471a258.84 258.84 0 0 0 24.486-23.108z" class="H"/><path d="M148.949 336.497s5.552-47.656-46.269-62.924c0 0-11.103-12.475 1.852-45.803 0 0 24.553-13.68 20.373-29.509" class="D I J"/><path d="M413.1 405.389l1.123-.84a20.03 20.03 0 0 0 2.126-1.972 21.71 21.71 0 0 0 1.919-2.399l2.217-2.975c33.189-44.892 32.627-51.235 19.576-58.437-9.735-6.324-17.182 14.63-23.357 30.166l-2.011 4.938c-4.606 9.927-7.61 21.788-18.991 25.329l17.398 6.19z" class="B"/><path d="M383.874 400.52l6.266-.826 9.971-4.452c2.025 1.919 5.062 2.399 7.749 2.37a31.19 31.19 0 0 0 9.597-1.703l.767-.269c.291.046.584.07.878.072l4.832-1.627c.4-.134.837-.103 1.215.085a1.59 1.59 0 0 1 .8.918c.002.024.002.048 0 .072l1.512 5.36a51.22 51.22 0 0 1-.725 6.285l-44.906-.062s-1.727-5.772 2.044-6.223z" class="E"/><path d="M460.655 244.541l-7.787-4.28a40.91 40.91 0 0 1-6.526-4.155c-1.717-1.44-3.195-3.186-5.076-4.405s-3.795-1.368-5.864-1.881c-.351-.11-.728-.11-1.079 0-.629.264-.725 1.19-.36 1.766.427.539 1 .946 1.651 1.17l-12.073 1.267c-1.175.125-2.624.48-2.879 1.641a2.4 2.4 0 0 0 .293 1.468c2.514 5.307 10.796 5.202 15.834 4.923 1.372-.076 2.769-.23 4.093.135 1.066.355 2.069.878 2.97 1.55 4.798 3.198 9.469 6.557 14.011 10.076" class="B"/><path d="M537.537 206.328c-.307-1.138-1.468-1.886-2.634-2.044-1.179-.092-2.362.082-3.465.508-9.054 2.913-16.63 9.026-23.117 15.834-5.12 5.365-9.179 11.588-13.435 17.619-1.694 2.399-4.146 7.375-6.622 8.91-2.552 1.584-7.509.111-10.364-.604-7.787-1.948-14.874-5.916-21.846-9.817-3.676 4.2-6.318 9.202-7.716 14.606-.187.724 6.473 7.067 7.198 7.739a91 91 0 0 0 10.513 8.339c3.205 2.179 6.592 4.175 10.306 5.278 5.537 1.641 13.838 1.992 19.289-.244 4.357-1.785 7.84-6.305 11.962-8.743 6.343-3.747 12.955-7.058 19.135-11.036" class="G"/><path d="M520.273 322.215l1.132-11.276a1.01 1.01 0 0 0-.902-1.099l-38.865-3.906c-.266-.025-.531.055-.738.224a1.01 1.01 0 0 0-.366.678l-1.108 11.271 40.847 4.108z" fill="#0f8784"/><path d="M537.268 209.676v-.125a17.86 17.86 0 0 0 15.868-17.753v-17.427a17.85 17.85 0 0 0-17.849-17.854h-1.641a17.85 17.85 0 0 0-11.643 4.319c-3.239 2.786-5.371 6.642-6.01 10.867-2.879 10.556-6.588 34.249-2.783 37.973h24.058z" class="F"/><path d="M531.524 219.263h17.969l-4.448-27.292h-12.451l-1.07 27.292z" class="B"/><path d="M537.68 191.971h7.365l4.448 27.292h-5.575a28.95 28.95 0 0 0 1.195-8.234c0-7.543-2.865-14.327-7.433-19.058z" fill="url(#B)"/><path d="M536.021 201.37c11.22 0 20.315-9.095 20.315-20.315a20.32 20.32 0 0 0-20.315-20.316 20.32 20.32 0 0 0-20.316 20.316 20.32 20.32 0 0 0 20.316 20.315z" class="B"/><path d="M543.631 207.959h24.082c.176-2.51.131-5.031-.135-7.533a20.67 20.67 0 0 0-1.209-5.125 19.4 19.4 0 0 0-4.241-6.276c-2.97-3.272-6.036-6.655-6.036-17.273l-.619-.61c-.591-.585-1.152-1.137-1.709-1.636v-.648a33.58 33.58 0 0 0-4.318-6.401c-1.439-1.708-3.126-3.191-5.004-4.4-1.949-1.268-4.216-1.961-6.54-2-4.28 0-7.634.887-10.245 2.711-1.997 1.519-3.688 3.403-4.985 5.551.626 2.141 1.965 4.003 3.796 5.278 1.959 1.329 4.049 2.454 6.237 3.359 2.086.911 4.111 1.952 6.065 3.119.567-.46 1.236-.776 1.951-.924s1.455-.121 2.158.077 1.347.562 1.88 1.06.939 1.118 1.183 1.806a4.57 4.57 0 0 1-.57 4.156c-.421.596-.979 1.083-1.626 1.42a4.57 4.57 0 0 1-2.097.514h-.206c-.479 4.848-.572 9.728-.279 14.591.25 3.32.874 7.624 2.467 9.184zm-23.934-27.249c-.081-.063-.369.134-.681.59-.391.604-.633 1.292-.706 2.007a4.57 4.57 0 0 0 .283 2.11c.212.508.452.758.543.714.206-.095-.211-1.276-.043-2.744s.786-2.538.604-2.677z" class="F"/><path d="M530.33 187.284c1.73 0 3.133-.514 3.133-1.147s-1.403-1.147-3.133-1.147-3.133.514-3.133 1.147 1.402 1.147 3.133 1.147z" fill="#fa9e9f"/><path d="M522.129 191.275c.144-.105.389 0 .677.044.072 0 .148.038.235.052l.254.048c.178 0 .374.039.581.043.194-.005.388-.021.58-.047.087 0 .178-.024.255-.048l.23-.053c.293-.072.532-.154.681-.053.039.035.067.08.083.13s.016.102.004.153a.68.68 0 0 1-.072.23c-.042.095-.099.182-.168.259a1.79 1.79 0 0 1-.639.48c-.301.137-.628.207-.959.207a2.32 2.32 0 0 1-.96-.207c-.247-.111-.466-.275-.643-.48-.065-.079-.122-.166-.168-.259-.037-.072-.061-.15-.072-.23-.009-.05-.004-.101.013-.148a.28.28 0 0 1 .088-.121z" fill="#2a1c10"/><path d="M528.414 181.103a.46.46 0 0 1 .125-.197.44.44 0 0 1 .197-.129c.072-.038.153-.056.235-.053l.163.024a.62.62 0 0 1 .269.158l.096.12c.053.096.081.203.081.312v.13c.005.081-.014.163-.052.235a.48.48 0 0 1-.125.196.44.44 0 0 1-.197.125.43.43 0 0 1-.235.053h-.163c-.101-.027-.194-.08-.269-.154l-.096-.124c-.053-.094-.081-.2-.081-.307v-.13c-.01-.09.008-.18.052-.259zm-12.119-.633a.61.61 0 0 1 .431.178c.115.114.179.269.179.431s-.064.317-.179.431a.61.61 0 0 1-.861 0c-.115-.114-.179-.269-.179-.431s.064-.317.179-.431a.61.61 0 0 1 .43-.178z" class="F"/><path d="M558.414 305.343c-5.518 3.628-11.66 7.135-18.171 9.333a48.29 48.29 0 0 1-3.949 1.151c-15.152 3.546-32.085-2.399-41.663-14.816a11.11 11.11 0 0 1-1.329-2.807c-.646-2.183-.612-4.511.096-6.675a83.02 83.02 0 0 1 .24-4.092c.115-1.358.255-2.721.427-4.074 1.219-6.265 2.889-12.434 4.995-18.459l1.272-3.512c5.57-11.429 12.345-22.436 18.65-34.106l2.217-3.929c3.68-6.305 7.84-12.13 14.044-16.156.881-.562 1.824-1.018 2.812-1.358 2.946-.96 6.305-.302 10.076 5.225a125.17 125.17 0 0 1 1.742 4.525c2.199 6.275 3.989 12.686 5.36 19.193.676 3.359 1.242 6.775 1.722 10.287 1.876 13.795 2.318 28.924 1.92 45.852l-.13 4.664-.149 4.798-.182 4.956z" class="B"/><path d="M555.209 234.786a152.54 152.54 0 0 0-5.312-19.049c-2.938 3.009-6.212 5.669-9.759 7.927-5.25 3.272-11.934 4.87-17.672 1.847a15.97 15.97 0 0 1-1.847-1.147l-1.637 2.923c-6.305 11.669-13.08 22.676-18.65 34.105a116.86 116.86 0 0 0-1.272 3.512c-2.109 6.025-3.778 12.194-4.995 18.459-.172 1.353-.315 2.711-.427 4.074s-.192 2.725-.24 4.093a11.22 11.22 0 0 0-.096 6.674 11.11 11.11 0 0 0 1.329 2.807c9.597 12.437 26.511 18.363 41.663 14.817a43.64 43.64 0 0 0 3.949-1.152c6.511-2.197 12.653-5.705 18.171-9.332l.168-4.966.149-4.799.129-4.663c.389-16.929-.053-32.057-1.919-45.852-.49-3.503-1.056-6.929-1.732-10.278z" class="K"/><g class="G"><path d="M531.606 209.384c-3.747 6.717-10.076 11.669-13.089 19.471-.448 1.151-.806 2.335-1.07 3.541-.335 7.881-1.839 15.669-4.463 23.108l-.763 2.538-4.021 12.955-.724 2.236c-2.217 7.428-5.489 14.635-7.121 22.072l-.959 2.946-1.92 5.796c-2.142-1.382-4.119-3.005-5.892-4.836a25.3 25.3 0 0 1-2.74-3.359c-1.252-2.082-2.562-4.05-2.562-6.012 1.31-11.784 11.785-20.301 10.153-32.796.133-1.155.34-2.301.619-3.43 2.481-10.005 10.321-17.567 16.64-25.728l1.55-2.755c3.642-6.472 7.893-13.132 15.45-15.104.581-.379.912-.643.912-.643z"/><path d="M538.237 219.264l-21.352 22.748-13.651 43.606-.729 2.346c-2.822 5.278-4.582 11.631-3.882 17 .137 1.054.381 2.091.729 3.095 4.554 8.09 15.834 13.022 22.168 6.684 5.633-5.638-1.411-11.995-1.175-18.555a24 24 0 0 1 .302-3.56c.15-1.026.405-2.034.763-3.008l.518-2.193 16.309-68.163z"/><path d="M518.718 266.171l1.583-5.494 1.502-4.798c1.602-5.062 3.229-10.556 5.172-16.026a116.58 116.58 0 0 1 1.521-4.069c.453-1.125.98-2.218 1.579-3.273l2.615-3.949c4.251-7.72 9.889-14.764 9.184-23.923 9.155 5.638 17.609 11.995 23.511 21.39a25.98 25.98 0 0 1 1.535 3.719c.853 2.603 1.235 5.338 1.128 8.075a54.54 54.54 0 0 1 0 4.318c-.137 3.56-.539 7.105-1.205 10.604-.124.687-.263 1.368-.407 2.044l-1.032 7.135c-.585 2.376-1.027 4.799-1.406 7.198l-2.284 14.745-.091.614a2.32 2.32 0 0 0-.336.859c-1.137 5.801-1.487 11.645-1.694 17.508-.691 2.879-1.473 5.787-2.365 8.671-.202.653-.319 1.331-.346 2.015l-7.12 8.478h-.48l-36.639-4.371c-3.056-11.736.566-31.673 6.075-51.47z"/></g><g fill="#a03535"><path d="M516.963 243.742l-.303-.307c-3.617-3.613-3.07-8.91-2.178-13.583l.398-1.958c.135-.633.331-1.128.514-1.699.906-1.583 1.161-3.641 1.919-5.182.102.097.224.169.358.213a.97.97 0 0 0 .414.042c-.513 1.799-1.545 3.358-2.048 5.023-.2.571-.36 1.154-.48 1.747l-.48 2.476c-.773 4.232-1.137 8.891 1.795 12.125a6.93 6.93 0 0 1 3.003-2.193 24.97 24.97 0 0 1 1.238-.48 20.56 20.56 0 0 0 2.701-1.18l1.814-.83 1.027-.48 4.712-2.399c9.016-4.765 11.516-16.228 10.863-25.363 0-1.406-.077-2.822-.187-4.228l.7-.057c.116 1.439.178 2.855.187 4.256.677 9.337-1.919 21.112-11.242 26.016l-4.731 2.399-1.036.479-1.795.821c-.89.471-1.814.875-2.763 1.209-.418.158-.821.312-1.21.48a6.16 6.16 0 0 0-2.95 2.289l-.24.364z"/><path d="M508.071 263.479l8.191-20.661.657.259-7.02 17.706 3.877-3.671 1.018-.892 6.184-5.758 1.238-1.416c2.083-2.476 3.407-5.479 4.688-8.387l2.068-4.381.619.331-2.044 4.319c-1.3 2.946-2.644 5.998-4.798 8.545l-1.272 1.44c-1.919 2.025-4.112 3.944-6.237 5.796l-1.008.883-6.161 5.887z"/><path d="M508.421 262.481c-.648-1.948-.705-3.359-.791-5.278v-.605l-.063-2.087c.451-7.975 1.728-18.267 7.629-27.292l.59.384c-5.81 8.886-7.067 19.063-7.514 26.932 0 .681 0 1.367.058 2.025l.029.614c.086 1.919.139 3.229.753 5.081l-.691.226z"/><path d="M501.555 277.364l-.786-.527 8.118-15.854.787.528-8.119 15.853z"/></g><path d="M497.822 295.891h-.706v8.157h.706v-8.157z" class="E"/><path d="M452.958 353.254c4.146-17.998 7.198-33.808 7.869-39.685 1.603-14.021-18.621-13.791-20.934-6.718-2.663 8.123-6.358 30.2-10.527 63.389l-.451 3.915a73.43 73.43 0 0 1-1.44 14.059c-.318 1.531-.726 3.042-1.223 4.525-.711 7.432-9.304 8.358-12.586 14.294 6.511 1.996 17.317 5.757 21.357-2.284a29.12 29.12 0 0 0 1.439-2.735c1.329-2.817 2.399-5.811 3.517-8.767.427-1.002.869-1.996 1.344-2.965l1.113-2.975c5.168-14.572 8.819-26.663 10.522-34.053z" class="B"/><path d="M400.255 409.559l6.108-1.617 12.552-7.624c.331.502.744.943 1.224 1.305 1.972 1.502 4.62 1.593 6.981 1.315 3.124-.369 6.857-1.55 9.596-3.656l2.347-1.142c.277-.145.588-.211.9-.189a1.68 1.68 0 0 1 .865.314c.213.167.378.387.48.638l2.183 5.11a51.62 51.62 0 0 1 .082 6.281c-.001.011-.006.021-.014.029s-.018.013-.029.014l-44.47 5.662c-.007.005-.015.008-.024.008s-.017-.003-.024-.008c-.197-.451-2.289-5.542 1.243-6.44z" class="E"/><g class="C"><path d="M497.62 295.027c-8.076-.821-15.647-1.574-23.847-1.387-1.085 0-2.169.077-3.253.139a103.32 103.32 0 0 0-16.314 2.251 40.12 40.12 0 0 0-3.143.998c-5.101 1.866-9.573 4.764-12.336 10.11-.662 1.088-1.244 2.224-1.742 3.397a25.62 25.62 0 0 0-1.252 3.665c-.442 1.366-.866 2.831-1.272 4.396-6.098 23.185-8.584 69.262-10.014 73.412l18.713 2.039c1.579-6.933 4.232-13.363 7.269-19.639l2.073-4.318c7.274-12.989 12.413-26.592 16.041-40.938l.998-4.055c.211-1.205.486-2.399.825-3.574.902-3.382 2.151-6.66 3.728-9.784.547-1.084 1.137-2.153 1.771-3.205.584-.825 1.215-1.614 1.89-2.366.775-1.083 1.627-2.109 2.548-3.071 4.515-4.956 11.17-5.935 16.861-7.864.156-.059.308-.128.456-.206z"/><path d="M550.439 296.106l-43.284-3.728c-4.348.854-19.793 5.604-35.723 10.681l-5.993 1.919c-7.116 2.154-13.982 5.278-21.002 8.786a14.52 14.52 0 0 0-4.011 2.495 64.17 64.17 0 0 1-2.087 3.545 132.11 132.11 0 0 1-2.246 3.417l-3.109 4.712-3.037 4.798c-4.942 7.303-9.021 15.388-12.639 23.76h-.081l-9.117 22.072c-.547 1.325-1.099 2.817-.561 4.151.397.803.996 1.491 1.737 1.996 4.075 3.223 8.789 5.543 13.828 6.808a2.97 2.97 0 0 0 1.516.096c.471-.176.891-.464 1.224-.839a82.79 82.79 0 0 0 8.934-10.153c11.516-11.324 19.85-25.402 31.112-37.393 1.3-1.035 2.713-1.918 4.213-2.634 1.473-.699 3.008-1.256 4.587-1.665a35.3 35.3 0 0 1 4.87-.907c18.468-1.794 37.128 2.798 54.886-3.44a25.14 25.14 0 0 0 3.92-1.972c3.743-2.313 6.896-5.71 9.189-10.638a32.87 32.87 0 0 0 1.684-5.201c1.329-5.623 1.67-12.456 1.19-20.666z"/></g><path d="M491.718 293.343l-5.446 3.8-3.19-6.146 2.979-2.678 5.657 5.024z" fill="#0fabbc"/><path d="M497.13 295.195l-28.856 5.451s5.451 14.395-4.496 44.734m-30.814-17.461s-9.443 48.697-8.536 64.066" stroke="#b3b3b3" stroke-width=".48" class="D"/><path d="M493.647 293.799c.619-5.581 9.304-4.031 13.915-4.415l3.244-.278c3.238-.283 6.463-.595 9.673-1.161.911-.247 1.808-.545 2.687-.893a35.08 35.08 0 0 0 2.514-1.137c1.3-.58 2.581-1.204 3.839-1.876 2.499-1.334 4.858-2.917 7.038-4.726a34.22 34.22 0 0 1 3.513-2.817 142.58 142.58 0 0 1 3.618-2.063l3.627-2.044c1.972-1.198 3.879-2.502 5.71-3.906.604-.46 1.201-.929 1.79-1.406 3.953-3.358 7.677-7.394 11.395-11.117a86.85 86.85 0 0 0-1.526 9.332c-.244 1.267-.479 2.544-.662 3.839l-2.284 14.745-.096.614a2.44 2.44 0 0 0-.331.859c-1.669 8.536-1.641 17.163-1.957 25.809l-.279 5.307c-.307 1.55-.619 4.343-2.787 3.724-4.655-.931-8.685-3.105-13.157-5.317l-3.013-1.439c-13.051-6.372-25.911-13.474-40.104-16.914l-1.708-.552c-1.866-.926-4.966-.926-4.659-2.168z" class="G"/><path d="M426.295 289.489l-.816 4.722 3.201 2.312.633-3.517-3.018-3.517z" fill="#3f1189"/><path d="M428.68 299.945l15.115 13.953 51.537-4.054-14.711-13.522-51.941 3.623z" class="K"/><path d="M431.353 300.525l13.54 14.064 52.224-3.278-13.181-13.631-52.583 2.845z" class="C"/><path d="M442.172 300.411l4.683 5.624m36.865-2.318l4.683 5.619m-13.593-10.975l9.366 11.243m-15.143-10.877l9.366 11.237m-14.957-10.888l9.366 11.238m-13.204-11l9.371 11.243m-13.637-10.971l9.366 11.237m-10.968-11.137l9.366 11.237m-11.045-11.131l9.366 11.237" stroke-width=".48" stroke="#3b0f7f" class="D"/><g fill="#3f1189"><path d="M439.485 300.766l.23.264-1.516.259-.671.101h.762l1.776.043.23.264-2.917.446-.183-.211 1.488-.211.959-.125h-1.065l-1.708-.048-.158-.187 1.439-.254.931-.144h-2.711l-.192-.221 3.306.024z"/><path d="M441.127 302.602c.273.317-.159.576-1.171.643s-1.79-.11-2.063-.427.129-.58 1.142-.648 1.818.111 2.092.432zm-.48.029c-.163-.192-.715-.283-1.44-.235s-1.017.197-.854.389.696.287 1.397.239 1.06-.201.892-.388l.005-.005z"/><path d="M441.74 303.39l.187.216-1.218.081.168.197c.216.254.081.48-.591.513a1.49 1.49 0 0 1-.702-.034c-.228-.068-.436-.189-.608-.354l-.335-.413 3.099-.206zm-1.473.326l-1.017.072.149.168a.76.76 0 0 0 .705.225c.355 0 .48-.124.312-.292l-.149-.173zm2.044.341l.211.24-2.024-.264.196-.183 1.617.207zm.38.442l.187.216-.911.058-.403.215 1.751.231.202.24-2.28-.312-.892.456-.206-.24 1.041-.528-1.44.096-.187-.216 3.138-.216z"/><path d="M443.991 305.938c.235.273-.043.479-.552.479a1.95 1.95 0 0 1-1.05-.191l-.322-.149a1.11 1.11 0 0 0-.604-.168c-.231 0-.303.101-.202.216a1 1 0 0 0 .48.249l-.254.135c-.27-.048-.521-.169-.725-.351-.201-.24.034-.436.528-.479.358-.027.716.039 1.041.191l.326.154c.188.115.405.171.624.163.245 0 .336-.105.221-.24-.181-.151-.397-.253-.629-.297l.269-.149c.319.062.613.213.849.437zm.513.666l.182.216-1.382.092.422.479 1.387-.091.187.216-3.123.206-.183-.215 1.253-.082-.427-.48-1.253.082-.187-.216 3.124-.207zm1.061 1.239l.647.753-.48.029-.479-.538-.922.063.375.441-.48.029-.374-.437-.802.053.446.518-.479.029-.634-.734 3.182-.206zm.863 1.004l.648.753-.48.034-.48-.538-.921.063.374.436-.479.034-.375-.442-.801.053.446.518-.48.034-.633-.734 3.181-.211zm1.075 1.251l.187.216-2.653.178.302.35-.479.034-.792-.922.48-.033.302.355 2.653-.178z"/></g><path d="M429.663 294.278l-2.979 2.433 5.921 7.538 4.601-.379-7.543-9.592z" fill="#ffa4a4"/><path d="M493.845 307.732l-14.899-18.962c-.235-.302-.96-.48-1.641-.442l-50.491 4.165c-.672.053-1.022.341-.787.643l14.908 18.963a2.17 2.17 0 0 0 .777.389 2.16 2.16 0 0 0 .869.052l50.477-4.145c.671-.072 1.026-.36.787-.663z" fill="#b3b3b3"/><path d="M430.897 295.85l-2.985 2.432 5.926 7.538 4.601-.379-7.542-9.591z" fill="#63a564"/><path d="M494.468 306.801l-14.913-18.963c-.229-.181-.493-.313-.775-.389s-.577-.094-.866-.052l-50.486 4.165c-.672.052-1.027.34-.792.643l14.908 18.962c.23.181.495.313.778.389a2.17 2.17 0 0 0 .868.053l50.486-4.175c.672-.043 1.027-.331.792-.633z" fill="#ccc"/><path d="M429.275 293.785l-2.98 2.438 5.926 7.533 4.597-.379-7.543-9.592z" fill="#cca500"/><path d="M494.779 305.87l-14.908-18.962c-.229-.181-.493-.314-.775-.39s-.577-.093-.866-.052l-50.496 4.175c-.672.052-1.022.34-.787.643l14.908 18.962a2.16 2.16 0 0 0 .775.389c.282.076.577.094.866.053l50.492-4.165c.671-.048 1.022-.351.791-.653z" class="C"/><path d="M494.156 304.632l-14.908-18.962c-.235-.302-.959-.48-1.646-.446l-50.477 4.165c-.671.057-1.026.345-.787.643l14.908 18.962c.236.302.96.48 1.641.446l50.492-4.165c.662-.057 1.012-.345.777-.643z" fill="#666"/><path d="M443.755 297.643l-5.849-7.437c-.229-.181-.493-.314-.775-.39a2.16 2.16 0 0 0-.866-.052l-4.52.37c-.671.057-1.026.345-.786.647l5.849 7.437c.229.181.493.314.775.39a2.16 2.16 0 0 0 .866.052l4.519-.37c.672-.057 1.022-.345.787-.647zm-.676-4.603l-2.581-3.282c-.143-.113-.307-.196-.483-.244s-.359-.059-.539-.034h-.101c-.417.033-.638.215-.48.403l2.577 3.282c.143.112.307.194.483.241a1.34 1.34 0 0 0 .539.032h.105c.408-.019.624-.197.48-.398zm2.759-.211l-2.582-3.282a1.34 1.34 0 0 0-.482-.244c-.176-.048-.359-.059-.54-.034h-.1c-.418.034-.639.211-.48.398l2.581 3.287c.144.112.308.193.484.24s.358.058.538.034h.101c.398-.034.619-.187.48-.399z" class="C"/><path d="M427.999 292.157l-2.985 2.433 5.926 7.538 4.597-.379-7.538-9.592z" fill="#f94169"/><path d="M441.236 308.995s-.758 4.472 4.127 5.595 48.054-2.797 48.054-2.797 2.879-2.188.739-7.159" class="E"/><path d="M515.134 182.52c5.503 1.204 11.611 2.145 16.482-.686 2.682-1.56 4.639-4.083 6.525-6.545l.715.542a44.29 44.29 0 0 1-5 6.382c-.314.28-.551.637-.686 1.036-.053.342-.027.692.077 1.022a25.08 25.08 0 0 0 3.104 7.457 18.54 18.54 0 0 0 6.032-6.761c.436-.835 1.199-1.876 2.073-1.507-2.762 6.456-7.517 11.859-13.57 15.417-1.084.633-2.313 1.224-3.55 1.008a5.73 5.73 0 0 1-1.728-.711c-3.191-1.746-6.391-3.689-8.637-6.563s-3.32-6.9-1.861-10.235" class="C"/><path d="M527.144 198.189c-3.316-4.424-6.718-9.342-7.471-14.827-1.535-.22-3.061-.518-4.539-.844v-.144c-1.439 3.335-.369 7.356 1.862 10.235s5.426 4.798 8.636 6.564c.533.329 1.117.569 1.728.71.399.064.807.056 1.204-.024-.503-.531-.977-1.089-1.42-1.67z" fill="#f2f2f2"/><path d="M458.846 292.009l.777.921a.87.87 0 0 0 1.181.273l22.153-18.775a.88.88 0 0 0-.067-1.214l-.773-.926a.87.87 0 0 0-1.18-.274l-22.144 18.776a.89.89 0 0 0 .053 1.219z" fill="#1a1a1a"/><path d="M458.059 293.467l.552-2.533 2.02 2.413-2.572.12z" fill="#999"/><path d="M497.985 280.037l-9.117-.091c-5.455-.052-9.908-2.73-15.234-3.574a3.19 3.19 0 0 0-1.368 0c-.224.051-.429.167-.59.332a1.2 1.2 0 0 0-.317.598c-.086.73.691 1.238 1.358 1.555-2.485-.302-4.961.086-6.995 1.636a9.05 9.05 0 0 0-2.729 3.506 9.03 9.03 0 0 0-.731 4.383 2.99 2.99 0 0 0 .48 1.506 2.77 2.77 0 0 0 1.593.926c3.1.758 6.046-1.017 9.088-1.252 2.85-.221 5.35-.106 8.061-1.358.344-.185.712-.32 1.094-.403.304-.041.612-.041.916 0 4.592.456 9.145.326 13.723.859" class="B"/><path d="M562.07 248.743c.897 13.882-5.878 34.178-18.641 41.601-2.26 1.314-4.851 1.919-7.404 2.5-13.387 3.07-28.89 3.003-42.301.062a2.93 2.93 0 0 1-1.689-.792c-.322-.473-.502-1.029-.518-1.602a72.79 72.79 0 0 1-.326-12.927l23.857-7.048c2.691-.797 14.509-1.919 14.874-4.083a104.79 104.79 0 0 1 5.758-20.69c2.202-5.609 4.692-12.672 8.401-17.442 1.67-2.145 4.132-3.838 6.848-3.934" class="G"/><path d="M562.07 248.744a1.53 1.53 0 0 1 .096.523l.11 1.55c.076 1.992.01 3.986-.197 5.969-.326 3.142-.915 6.25-1.761 9.294-1.115 4.043-2.682 7.948-4.673 11.64-1.174 2.148-2.529 4.191-4.05 6.108-.388.509-.83.984-1.247 1.483s-.883.96-1.373 1.44a28.81 28.81 0 0 1-3.09 2.663l-.854.604c-.288.197-.59.374-.892.566a13.02 13.02 0 0 1-1.919 1.022c-1.342.577-2.731 1.038-4.151 1.377-2.907.733-5.849 1.319-8.814 1.756-9.747 1.416-19.647 1.416-29.394 0-.859-.115-1.713-.259-2.572-.412l-2.572-.48-1.295-.264c-.51-.099-.998-.291-1.44-.566-.258-.172-.477-.396-.643-.657-.154-.246-.269-.515-.34-.797-.104-.463-.175-.933-.211-1.406a71.32 71.32 0 0 1-.408-6.333 62.97 62.97 0 0 1 0-3.134c0-.518.033-1.041.053-1.554l.033-.778.077-1.242 18.065-5.307 4.208-1.233 2.073-.61c.753-.206 1.439-.321 2.154-.451 2.803-.479 5.528-.873 8.124-1.439a63.27 63.27 0 0 0 1.919-.48 9.13 9.13 0 0 0 1.718-.676 1.53 1.53 0 0 0 .528-.423c.033-.028 0-.038.028-.048s0-.052 0-.086l.024-.12.087-.48c.11-.643.24-1.271.36-1.919.502-2.505 1.074-4.913 1.717-7.226 1.186-4.258 2.628-8.44 4.319-12.524 1.468-3.747 2.845-7.125 4.318-9.975 1.184-2.48 2.71-4.782 4.534-6.837 1.203-1.273 2.732-2.192 4.42-2.659a6.48 6.48 0 0 1 1.329-.201c.307 0 .48 0 .48.033s-.624.053-1.718.413a9.83 9.83 0 0 0-4.136 2.754c-1.714 2.072-3.145 4.361-4.256 6.809-1.382 2.845-2.687 6.238-4.103 9.99a112.27 112.27 0 0 0-4.121 12.475c-.61 2.289-1.157 4.683-1.632 7.164l-.34 1.881-.082.48v.115c-.004.052-.014.103-.029.153a1.26 1.26 0 0 1-.168.394 2.56 2.56 0 0 1-.959.835 10.08 10.08 0 0 1-1.92.791c-.657.207-1.314.379-1.981.533-2.654.624-5.403 1.036-8.157 1.531-.682.129-1.392.254-2.02.431l-2.064.615-4.203 1.252-17.144 5.091c0 .35-.033.7-.053 1.055l-.043 1.526a63.09 63.09 0 0 0 0 3.076 71.36 71.36 0 0 0 .403 6.237c.031.405.089.808.173 1.205a1.09 1.09 0 0 0 .441.686c.48.321 1.44.437 2.251.624s1.694.345 2.538.48l2.534.407c3.358.48 6.717.816 10.018.96a100.53 100.53 0 0 0 19.001-.859 87.71 87.71 0 0 0 8.699-1.679 24.49 24.49 0 0 0 3.973-1.277 12.22 12.22 0 0 0 1.78-.935c.283-.183.576-.346.849-.538l.821-.571c1.061-.767 2.063-1.612 2.999-2.528.48-.432.897-.917 1.339-1.368s.844-.935 1.228-1.439a42.36 42.36 0 0 0 4.021-5.921c2.012-3.606 3.621-7.423 4.798-11.381a60.27 60.27 0 0 0 1.962-9.146 52.97 52.97 0 0 0 .452-5.902c-.057-.708-.066-1.42-.029-2.13z" fill="#a03535"/><path d="M492.036 292.114l-1.92 7.389s17.466 25.829 55.007 35.344l9.155-11.866 2.054 11.866 4.524-1.583-1.439-24.265s-63.624-11.971-67.381-16.885z" class="G"/><path d="M569.795 198.085c-2.352 13.54 10.124 23.137 20.2 29.375 4.318 10.556 7.197 22.071 6.238 33.587-.48 4.318-.96 8.637-4.319 11.995-7.197 2.879-14.394 5.278-21.112 10.077a14.59 14.59 0 0 1-3.359 2.399c-8.157 6.717-14.394 14.394-17.753 23.991-2.879 7.197-3.838 14.874-4.112 22.311a40.35 40.35 0 0 0 .173 4.506v32.306s50.069-4.932 57.78-49.968 4.011-86.675-9.251-97.471c-8.655-7.163-16.834-14.882-24.485-23.108z" class="H"/><path d="M544.892 336.13s-5.557-47.656 46.264-62.924c0 0 11.108-12.475-1.848-45.804 0 0-24.552-13.679-20.373-29.508" class="D I J"/><path d="M133.667.01c-14.172 0-28.024 4.219-39.79 12.12a71.38 71.38 0 0 0-30.125 73.658 71.39 71.39 0 0 0 19.893 36.529l32.004 36.855c1.351 1.555 3.166 2.637 5.177 3.085 4.966 1.104 8.454-4.798 5.105-8.608l-.705-.801a.57.57 0 0 1-.139-.374v-10.221c9.668 1.177 19.476.363 28.818-2.392a71.37 71.37 0 0 0 25.504-13.629c7.482-6.235 13.61-13.935 18.005-22.627a71.38 71.38 0 0 0 3.41-56.533 71.39 71.39 0 0 0-15.155-24.628A71.38 71.38 0 0 0 133.667.01zm418.945 0c14.174-.002 28.027 4.216 39.794 12.116a71.38 71.38 0 0 1 30.127 73.662 71.39 71.39 0 0 1-19.899 36.529l-32.004 36.855a9.6 9.6 0 0 1-5.178 3.085c-4.966 1.104-8.454-4.798-5.1-8.608l.7-.801a.58.58 0 0 0 .144-.375v-10.22c-9.663 1.165-19.462.342-28.795-2.419a71.38 71.38 0 0 1-25.477-13.636c-7.474-6.235-13.594-13.932-17.984-22.619a71.38 71.38 0 0 1-7.543-27.895c-.586-9.715.821-19.448 4.134-28.6a71.38 71.38 0 0 1 38.786-41.219A71.38 71.38 0 0 1 552.612 0v.01z" fill="#f2f2f2"/><path d="M170.901 98.232c-.091 3.498-2.12 6.3-4.347 8.833-1.051 1.195-2.341 3.052-3.958 3.474-2.174.571-4.127-1.079-5.653-2.375l-6.151-5.278c-2.744-1.919-6.002-3.152-9.15-4.256-10.115-3.546-23.737-5.571-29.547-15.858-3.513-6.214-1.579-13.363 1.463-19.341 2.534-4.99 7.869-12.754 14.539-9.419.572.272 1.079.662 1.488 1.145s.711 1.048.885 1.657.216 1.248.123 1.874-.317 1.226-.659 1.759c-2.106 3.359-5.757.096-8.046-1.257a18.3 18.3 0 0 0-12.754-2.082c-8.699 1.607-17.835 10.076-15.464 19.711 2.989 12.135 22.22 8.191 30.166 4.841 5.902-2.49 10.609-6.506 15.498-10.556 5.158-4.251 11.516-8.786 18.588-7.984 12.528 1.44 13.752 17.662 9.491 26.712-5.024 10.667-16.261 17.653-28.088 16.794a29.97 29.97 0 0 1-16.54-6.578c-3.8-3.11-10.647-10.633-4.136-14.553 5.552-3.359 11.415.389 16.184 3.287 5.178 3.143 10.441 5.216 16.597 4.837 11.156-.681 21.813-8.157 25.685-18.766 1.056-2.879 1.113-5.839 1.324-8.867l.773-10.997c.307-6.343-.077-12.423-3.675-17.873-2.971-4.501-7.75-8.291-13.325-8.512-3.244-.13-5.835 1.382-8.853-.542-2.36-1.507-4.275-3.392-7.106-3.968-4.587-.936-9.75 1.108-11.779 5.475-1.853 3.992-.874 9.217 2.691 11.928 2.169 1.651 4.837 2.202 7.476 2.548 3.8.504 7.677.844 11.213 2.423 5.71 2.533 8.239 8.047 8.32 14.064.072 5.503-2.221 12.528-8.037 14.395-6.074 1.948-13.271-2.908-16.213-8.013s-2.063-11.995 2.99-15.522c4.798-3.359 11.784-.48 12.681 5.417.228 1.291-.01 2.621-.672 3.752-1.329 1.972-3.613 1.08-5.402.408-2.524-.96-4.799-1.847-7.514-2.034-4.822-.269-9.587 1.148-13.478 4.006-8.009 5.868-9.712 16.592-4.588 24.984 5.279 8.637 15.906 11.252 24.634 6.204 4.103-2.399 7.442-6.262 8.709-10.877 1.569-5.758-.959-12.744 2.203-18.037 1.578-2.634 4.318-4.198 7.149-5.225 1.159-.425 2.343-.779 3.546-1.06 2.557-.6 4.462-.418 5.657 2.183 2.716 5.921 5.393 13.958 1.919 20.071-3.291 5.83-9.654 5.46-14.054 1.18-4.246-4.131-6.765-9.692-10.076-14.538-3.654-5.369-7.833-10.361-12.475-14.903-4.348-4.251-9.179-8.637-14.937-10.858-11.453-4.376-23.838 2.725-31.054 11.458-7.337 8.872-11.588 21.41-9.356 32.911 2.178 11.223 12.816 17.591 23.823 16.866 5.945-.393 11.626-2.687 16.655-5.791a65.18 65.18 0 0 0 7.025-5.086c2.547-2.092 4.985-4.52 8.037-5.887 6.112-2.745 12.667.873 18.991.326 5.897-.513 9.553-4.865 14.332-7.759 6.166-3.733 14.659-2.557 21.558-2.634l22.965-.221 46.936-.245 91.875.307 91.867 1.353h66.56 10.129c1.334 0 1.79-1.536 1.018-2.457.748.893.211.662.374-.134.061-.478.098-.958.11-1.439.125-1.44.293-2.85.48-4.27.386-2.645 1.073-5.237 2.049-7.725 2.644-7.106 7.197-13.061 14.001-16.573 11.621-5.983 28.237-6.54 37.863 3.498 6.434 6.718 7.197 15.882 5.407 24.624-1.765 8.589-4.913 18.713-11.914 24.505-12.518 10.326-34.513 5.24-40.146-10.263-3.033-8.358-.989-18.257 3.085-25.91a25.43 25.43 0 0 1 8.679-9.434c3.652-2.352 7.844-3.729 12.179-4.001 4.641-.288 9.271.731 13.363 2.941 4.524 2.519 6.511 6.717 7.082 11.751.498 4.886.034 9.822-1.368 14.529-1.257 4.381-3.042 9.117-6.3 12.403-6.237 6.3-17.273 6.501-24.077 1.056-7.116-5.676-9.256-17.605-4.913-25.498 3.8-6.909 11.741-10.983 19.456-8.45 9.083 2.975 12.447 11.995 9.659 20.771-1.559 4.894-4.798 8.099-10.028 8.699-4.448.513-8.92-1.003-11.636-4.645-1.215-1.602-2.007-3.486-2.3-5.475a11.94 11.94 0 0 1 .621-5.906c.701-1.885 1.867-3.563 3.389-4.877a11.94 11.94 0 0 1 5.32-2.641 10.22 10.22 0 0 1 6.141.441c2.495 1.041 3.609 3.244 4.237 5.758 1.022 4.098.768 8.363-3.68 10.004-2.836 1.046-6.622.768-8.867-1.439-3.061-2.994-.365-9.966 3.934-10.326 2.539-.211 4.525 2.438 4.381 4.798-.067 1.07-1.286 4.102-2.97 2.941-.365-.254-.393-.787-.48-1.147l-.086-.552c-.288-1.11.152-1.822 1.319-2.135-.892 1.627 1.593 3.081 2.486 1.439 2.279-4.141-4.045-6.434-6.123-2.437-1.866 3.579.605 9.376 5.182 7.538 4.319-1.742 4.429-7.951 1.593-11.036-3.445-3.723-8.324-2.514-11.151 1.219s-3.478 8.958.48 12.211c3.009 2.471 7.461 2.903 11.07 1.651 4.251-1.478 6.664-5.129 6.348-9.63-.355-5.038-2.255-10.225-7.442-11.904-9.856-3.191-20.071 6.051-18.66 16.031 1.516 10.738 13.559 16.189 23.002 11.194 4.798-2.529 6.948-8.157 7.644-13.262.743-5.427-.557-10.791-4.319-14.874a18.86 18.86 0 0 0-25.881-1.665c-8.795 7.255-9.678 19.764-4.453 29.442 5.408 10.009 18.747 13.238 28.568 7.883 5.005-2.73 7.865-7.495 9.88-12.658 2.298-5.873 3.517-12.317 2.984-18.627-.479-5.537-2.207-10.762-6.914-14.078-4.904-3.445-11.424-4.798-17.336-4.318-11.093.931-19.951 8.219-24.154 18.324-4.318 10.374-4.899 22.739 2.399 31.913 6.569 8.257 17.375 11.515 27.609 9.97 5.103-.699 9.892-2.866 13.785-6.237 4.429-3.925 7.111-9.476 9.117-14.946 3.987-10.935 6.65-24.216-.48-34.475-5.201-7.49-13.742-11.338-22.695-11.852-9.29-.537-19.467 2.207-26.736 8.157-6.674 5.456-10.901 14.318-11.995 22.777-.236 1.799-.48 3.599-.595 5.407-.077 1.003-.274 2.111.417 2.941l1.017-2.457h-70.812c-21.927 0-43.86-.715-65.788-1.003l-95.868-.677c-32.292-.035-64.58.125-96.866.48-6.928.077-15.162-.931-21.692 1.847-5.648 2.399-9.467 8.291-15.983 8.603-6.286.302-12.408-2.826-18.598-.437-5.854 2.255-10.187 7.639-15.417 10.983-5.681 3.714-12.24 6.348-19.111 5.916-6.118-.384-12.418-3.253-15.628-8.67-3.575-6.027-3.128-13.992-1.468-20.551 1.569-6.228 4.612-11.987 8.872-16.794 4.409-4.937 10.21-9.011 16.794-10.359 7.677-1.574 14.015 1.967 19.672 6.818 5.404 4.634 10.266 9.865 14.491 15.594 3.642 4.952 6.367 10.556 10.196 15.354 3.032 3.81 7.24 7.337 12.427 6.79 5.278-.557 8.978-5.172 10.077-10.105 1.386-6.17-.912-13.262-3.542-18.814-2.734-5.758-9.044-3.92-13.838-1.919-5.239 2.202-8.636 6.118-9.27 11.871-.681 6.146.922 12.327-3.099 17.653-3.297 4.371-8.978 7.077-14.462 6.583-5.724-.513-10.412-4.75-12.538-9.937-4.688-11.444 4.856-23.007 16.885-22.11 4.554.341 10.887 5.489 14.769 1.08 3.196-3.627 1.655-9.241-1.348-12.413-7.903-8.349-19.87-.177-20.153 9.812-.302 10.378 12.423 21.27 22.605 17.048 9.937-4.117 11.602-19.255 6.3-27.494-3.316-5.153-9.117-7.226-14.937-8.099-3.057-.456-6.487-.389-9.275-1.862-3.071-1.622-4.29-5.393-3.09-8.603 1.07-2.879 4.006-4.486 6.967-4.534 3.666-.067 5.734 2.533 8.68 4.179 2.471 1.382 4.654 1.156 7.346.744 3.891-.6 7.427.849 10.287 3.474 5.782 5.316 6.545 12.475 6.185 19.85-.182 3.671-.513 7.332-.772 10.997-.279 3.954-.562 7.332-2.515 10.887-6.338 11.549-21.515 17.672-33.549 11.285-5.153-2.735-10.162-7.121-16.352-6.833-4.232.201-8.944 2.423-9.942 6.905-1.214 5.446 3.719 10.705 7.548 13.853 4.395 3.618 9.654 6.035 15.263 7.015 5.537.92 11.219.348 16.461-1.658a31.58 31.58 0 0 0 13.364-9.752c6.559-8.123 9.381-19.874 4.05-29.399-2.505-4.477-6.813-7.548-11.967-8.037-6.487-.614-12.614 2.62-17.619 6.43-5.508 4.198-10.402 9.117-16.793 11.996-6.084 2.749-13.834 4.39-20.445 2.855-3.45-.801-6.44-2.821-6.79-6.617-.269-2.879.806-5.863 2.452-8.2 2.956-4.199 8.109-6.814 13.205-7.077 2.564-.164 5.128.331 7.446 1.44 2.452 1.219 4.491 3.306 7.313 3.666 4.395.561 7.284-3.781 6.756-7.826-.682-5.216-6.425-7.197-11.036-6.132-5.801 1.343-9.318 6.986-11.741 11.971-2.726 5.6-4.554 12.058-2.519 18.185 1.573 4.755 5.071 8.435 9.164 11.189 4.501 3.028 9.697 5 14.875 6.564 6.943 2.107 14.188 3.839 19.725 8.781 3.459 3.095 8.21 8.243 13.214 5.004 2.327-1.506 4.319-4.227 5.916-6.477a14.08 14.08 0 0 0 2.711-7.802c.053-1.852-2.826-1.852-2.879 0z" fill="#0f6773"/><defs><linearGradient id="A" x1="148.333" y1="180.097" x2="144.654" y2="208.109" gradientUnits="userSpaceOnUse"><stop stop-color="#c38f73"/><stop offset=".19" stop-color="#c48e72" stop-opacity=".99"/><stop offset=".32" stop-color="#c78b70" stop-opacity=".94"/><stop offset=".43" stop-color="#cb876c" stop-opacity=".86"/><stop offset=".54" stop-color="#d28066" stop-opacity=".75"/><stop offset=".63" stop-color="#db785e" stop-opacity=".6"/><stop offset=".73" stop-color="#e66d55" stop-opacity=".42"/><stop offset=".82" stop-color="#f2614a" stop-opacity=".21"/><stop offset=".89" stop-color="#ff553f" stop-opacity="0"/><stop offset="1" stop-color="#3ddeed" stop-opacity="0"/></linearGradient><linearGradient id="B" x1="-54093" y1="15812.9" x2="-54093" y2="17365.3" gradientUnits="userSpaceOnUse"><stop stop-color="#c38f73"/><stop offset=".19" stop-color="#c48e72" stop-opacity=".99"/><stop offset=".32" stop-color="#c78b70" stop-opacity=".94"/><stop offset=".43" stop-color="#cb876c" stop-opacity=".86"/><stop offset=".54" stop-color="#d28066" stop-opacity=".75"/><stop offset=".63" stop-color="#db785e" stop-opacity=".6"/><stop offset=".73" stop-color="#e66d55" stop-opacity=".42"/><stop offset=".82" stop-color="#f2614a" stop-opacity=".21"/><stop offset=".89" stop-color="#ff553f" stop-opacity="0"/><stop offset="1" stop-color="#3ddeed" stop-opacity="0"/></linearGradient></defs></svg>