<?xml version="1.0" standalone="no"?>
<!DOCTYPE svg PUBLIC "-//W3C//DTD SVG 20010904//EN"
 "http://www.w3.org/TR/2001/REC-SVG-20010904/DTD/svg10.dtd">
<svg version="1.0" xmlns="http://www.w3.org/2000/svg"
 width="5906.000000pt" height="5906.000000pt" viewBox="0 0 5906.000000 5906.000000"
 preserveAspectRatio="xMidYMid meet">

<g transform="translate(0.000000,5906.000000) scale(0.100000,-0.100000)"
fill="#000000" stroke="none">
<path d="M49830 49040 c-72 -13 -141 -66 -183 -142 -12 -22 -33 -59 -47 -83
-14 -24 -37 -65 -53 -91 -15 -27 -40 -70 -55 -95 -40 -68 -154 -273 -199 -359
-22 -41 -52 -97 -68 -125 -15 -27 -36 -68 -47 -90 -10 -22 -23 -47 -29 -55 -5
-8 -16 -31 -24 -50 -9 -19 -20 -43 -25 -52 -23 -41 -33 -62 -119 -238 -82
-171 -102 -212 -165 -355 -13 -27 -34 -74 -47 -104 -13 -30 -36 -79 -51 -109
-16 -29 -28 -59 -28 -66 0 -6 -10 -29 -21 -51 -12 -22 -30 -63 -39 -91 -10
-28 -23 -59 -29 -70 -14 -26 -59 -139 -76 -192 -8 -23 -21 -55 -29 -70 -21
-37 -65 -147 -83 -207 -9 -27 -19 -55 -24 -61 -8 -10 -36 -88 -78 -214 -10
-30 -25 -68 -33 -85 -8 -16 -20 -52 -27 -78 -6 -27 -18 -59 -26 -70 -7 -12
-19 -44 -26 -72 -6 -27 -20 -66 -29 -85 -10 -19 -21 -53 -24 -75 -4 -22 -16
-59 -26 -83 -11 -24 -22 -60 -26 -80 -4 -20 -17 -59 -29 -87 -12 -27 -26 -70
-30 -95 -4 -24 -13 -54 -20 -65 -7 -11 -18 -45 -25 -75 -7 -30 -19 -71 -27
-90 -14 -32 -31 -92 -77 -265 -9 -33 -25 -87 -36 -120 -11 -33 -26 -89 -34
-125 -18 -77 -40 -166 -71 -275 -22 -76 -33 -134 -71 -375 -9 -58 -22 -123
-30 -145 -7 -22 -18 -71 -24 -110 -6 -38 -19 -99 -29 -135 -11 -36 -24 -103
-30 -150 -6 -47 -18 -106 -26 -133 -8 -26 -19 -84 -25 -130 -6 -45 -18 -107
-25 -138 -8 -31 -22 -109 -30 -175 -9 -65 -22 -144 -30 -174 -7 -30 -17 -89
-20 -130 -4 -41 -17 -136 -30 -210 -13 -74 -27 -175 -30 -225 -4 -49 -16 -142
-26 -205 -11 -63 -24 -180 -29 -260 -6 -80 -17 -188 -25 -241 -8 -53 -20 -184
-25 -291 -6 -107 -19 -309 -30 -449 -11 -140 -20 -348 -20 -464 0 -205 -7
-276 -29 -298 -16 -16 -23 -4 -41 80 -23 106 -48 202 -76 298 -13 44 -28 103
-33 130 -6 28 -19 76 -31 107 -11 32 -20 64 -20 72 0 8 -14 59 -30 113 -17 54
-42 134 -55 178 -14 44 -32 103 -41 130 -9 28 -24 79 -33 115 -10 36 -25 79
-33 95 -8 17 -18 49 -22 73 -4 24 -17 65 -30 90 -13 26 -27 67 -31 92 -12 75
-45 203 -64 245 -10 22 -26 60 -34 85 -8 25 -30 83 -47 130 -17 47 -42 116
-55 154 -14 37 -28 73 -33 80 -6 6 -13 27 -17 46 -4 19 -18 57 -31 83 -13 27
-24 54 -24 60 0 7 -11 35 -25 62 -13 28 -25 54 -25 59 0 9 -36 96 -84 201 -28
61 -64 148 -82 197 -13 34 -36 84 -141 308 -19 41 -46 98 -59 125 -12 28 -75
156 -139 285 -168 339 -268 528 -419 794 -16 28 -39 69 -51 91 -48 85 -172
291 -225 375 -16 25 -39 63 -51 85 -12 22 -29 51 -39 65 -9 14 -28 43 -42 65
-50 80 -298 451 -337 505 -22 30 -65 91 -95 135 -199 285 -507 679 -624 797
-36 37 -56 49 -90 54 -94 14 -145 -10 -199 -92 -40 -60 -42 -97 -7 -166 27
-54 41 -76 132 -218 30 -47 66 -103 80 -125 14 -22 33 -51 42 -65 9 -14 38
-61 64 -105 26 -44 67 -111 90 -150 23 -38 69 -115 101 -170 32 -55 66 -112
76 -127 11 -15 19 -30 19 -33 0 -4 27 -53 61 -108 64 -108 69 -116 108 -187
13 -25 37 -67 52 -95 16 -27 40 -72 54 -100 15 -27 40 -72 56 -100 16 -27 38
-68 49 -90 11 -22 60 -116 109 -210 162 -307 541 -1079 541 -1100 0 -3 16 -41
36 -83 53 -111 107 -230 156 -347 14 -33 40 -92 57 -131 17 -39 31 -75 31 -80
0 -5 9 -27 19 -49 45 -91 81 -174 81 -185 0 -6 8 -25 17 -43 17 -34 49 -116
89 -231 13 -38 28 -74 33 -80 4 -6 16 -36 26 -66 10 -30 24 -64 31 -75 6 -11
15 -36 19 -55 4 -19 14 -48 23 -65 17 -34 51 -125 86 -230 13 -38 42 -110 66
-160 40 -86 63 -145 97 -245 8 -25 25 -74 38 -110 13 -36 27 -80 31 -99 3 -18
14 -52 24 -75 10 -22 21 -61 25 -86 4 -25 14 -58 23 -75 8 -16 23 -59 33 -95
10 -36 24 -85 33 -110 34 -101 70 -218 82 -270 27 -115 55 -217 73 -275 11
-33 25 -85 31 -116 6 -31 20 -79 30 -108 11 -28 20 -64 20 -81 0 -16 9 -53 19
-82 11 -29 27 -93 36 -141 9 -49 22 -105 30 -126 7 -20 16 -61 20 -91 4 -30
18 -92 31 -139 13 -48 24 -101 24 -119 0 -18 9 -58 20 -89 11 -31 27 -102 35
-157 8 -56 22 -123 30 -149 8 -26 19 -92 24 -145 6 -53 17 -119 26 -147 8 -27
22 -104 31 -170 8 -66 22 -150 29 -187 8 -37 19 -113 25 -170 5 -57 16 -141
25 -188 8 -47 22 -157 30 -245 8 -88 20 -193 26 -233 20 -125 -59 -113 713
-113 368 1 671 3 673 5 12 12 31 135 37 236 3 63 15 162 26 220 11 58 23 137
26 175 5 65 31 226 70 425 9 47 24 132 35 188 10 57 27 130 39 163 11 32 20
77 20 99 0 22 11 69 25 106 14 36 25 80 25 96 0 16 11 62 24 101 13 40 29 96
35 125 6 29 17 65 25 80 7 15 17 47 21 72 4 25 16 69 27 99 11 29 26 79 33
110 8 31 30 101 50 156 19 55 46 134 59 175 42 129 57 173 82 231 13 31 24 63
24 70 0 8 11 34 24 59 13 25 27 61 31 80 4 19 15 49 25 65 10 17 21 45 25 64
4 19 18 54 31 79 13 25 24 51 24 59 0 13 20 58 88 203 14 30 38 70 54 88 15
18 28 38 28 45 0 7 11 35 24 63 12 27 38 81 56 119 43 92 266 543 285 575 27
48 177 323 186 344 5 12 25 46 44 76 18 30 57 96 85 145 28 50 77 131 108 182
31 50 77 125 102 165 55 89 141 223 170 263 11 17 40 59 63 94 23 35 53 80 67
101 14 20 38 57 54 80 15 24 33 48 38 54 8 10 125 174 183 256 13 19 37 52 52
72 15 20 51 67 78 103 28 37 104 135 170 219 187 236 195 250 194 321 -1 63
-6 75 -51 123 -50 53 -106 67 -175 47 -39 -12 -71 -34 -144 -102 -263 -243
-633 -631 -803 -841 -28 -35 -86 -106 -129 -158 -43 -52 -94 -118 -114 -147
-21 -29 -55 -75 -78 -104 -77 -99 -150 -200 -205 -285 -14 -21 -41 -62 -61
-90 -57 -84 -141 -215 -204 -318 -32 -52 -65 -106 -75 -120 -10 -14 -27 -43
-39 -65 -12 -22 -33 -58 -45 -80 -92 -159 -124 -217 -253 -460 -59 -111 -65
-125 -88 -175 -8 -19 -21 -46 -29 -60 -7 -14 -23 -56 -36 -95 -27 -88 -93
-241 -156 -366 -13 -26 -24 -53 -24 -60 0 -8 -14 -41 -30 -74 -16 -33 -30 -66
-30 -74 0 -7 -11 -34 -24 -60 -13 -25 -31 -68 -41 -96 -9 -27 -28 -79 -42
-115 -38 -99 -82 -219 -102 -280 -10 -30 -25 -71 -34 -90 -14 -32 -31 -87
-109 -340 -16 -52 -34 -108 -40 -125 -6 -16 -20 -66 -32 -110 -12 -44 -28 -90
-34 -102 -7 -12 -19 -56 -27 -97 -7 -41 -18 -83 -24 -93 -5 -10 -16 -50 -24
-88 -8 -39 -24 -104 -35 -145 -39 -141 -71 -275 -81 -340 -10 -61 -67 -198
-83 -199 -10 -1 -10 104 2 559 5 201 14 554 19 785 10 376 19 549 51 909 5 59
8 112 5 116 -7 11 14 356 29 475 8 60 17 162 21 225 7 129 33 417 40 440 2 8
9 87 15 175 6 88 19 216 30 285 10 69 21 166 25 215 3 50 15 144 26 210 11 66
24 170 30 230 5 61 16 142 24 181 9 39 22 125 29 190 14 117 33 240 81 504 14
74 27 160 30 190 4 30 15 89 25 130 10 41 21 100 25 130 4 30 19 87 35 125 15
39 31 99 35 135 4 35 14 83 22 104 7 22 20 82 28 132 9 51 22 111 30 133 8 22
19 77 25 121 6 44 17 95 25 113 7 18 20 72 29 120 8 47 19 94 25 105 5 10 17
58 26 108 10 49 23 105 31 124 8 19 20 67 28 105 15 73 43 176 76 280 11 33
26 89 34 125 8 36 21 85 30 110 37 109 58 179 72 239 8 35 21 76 29 91 8 15
19 50 25 76 5 27 19 69 29 94 21 49 52 141 80 235 10 33 25 74 33 90 9 17 20
49 24 70 3 22 17 61 30 87 13 26 24 54 24 63 0 9 9 34 21 57 12 23 27 62 35
87 7 25 23 64 34 86 11 21 20 46 20 55 0 8 7 29 16 45 9 17 25 54 35 84 10 30
23 59 27 65 5 6 14 27 21 46 8 19 22 53 32 75 10 22 34 78 54 125 20 47 47
108 60 135 72 151 188 393 198 410 6 11 27 52 47 90 20 39 58 108 84 155 59
107 58 105 93 166 17 27 40 79 53 115 l23 64 -29 70 c-27 64 -35 73 -89 106
-66 41 -93 48 -145 39z"/>
<path d="M34580 43980 c-8 -5 -29 -10 -46 -10 -18 0 -66 -12 -109 -26 -68 -23
-82 -25 -119 -14 -108 30 -189 40 -260 29 -87 -12 -120 -23 -216 -72 -155 -80
-250 -164 -406 -359 -87 -108 -177 -245 -216 -328 -68 -143 -93 -209 -136
-355 -53 -175 -68 -438 -37 -618 28 -160 110 -373 186 -484 73 -105 172 -193
272 -239 76 -34 225 -58 321 -50 115 10 121 17 45 56 -168 85 -284 221 -353
415 -58 166 -96 395 -96 586 0 109 2 120 18 117 13 -3 16 -12 14 -45 -5 -63
20 -103 65 -103 28 0 43 27 43 78 0 50 -31 92 -68 92 -15 0 -38 3 -51 7 -23 6
-23 8 -17 77 8 89 18 98 106 94 59 -3 65 -1 65 17 0 25 -65 49 -112 41 -30 -4
-33 -2 -33 21 0 81 83 293 167 426 29 47 173 197 188 197 6 0 11 -29 12 -64 5
-185 213 -395 514 -522 135 -57 238 -111 329 -172 l85 -57 12 -81 c7 -45 23
-106 36 -135 l23 -53 22 46 c13 25 31 53 41 62 18 16 20 14 54 -33 75 -104
147 -267 147 -333 0 -25 -32 -60 -83 -92 -15 -9 -31 -25 -34 -34 -3 -9 -23
-54 -44 -99 -22 -45 -39 -84 -39 -87 0 -3 41 15 92 39 50 25 98 45 105 45 24
0 9 -95 -37 -240 -11 -36 -17 -67 -12 -72 41 -41 377 207 556 408 231 260 317
503 234 659 -13 24 -80 113 -150 197 -152 184 -232 287 -391 507 -208 289
-348 446 -447 504 -74 43 -212 76 -240 57z"/>
<path d="M13670 43480 c0 -10 -6 -23 -13 -27 -8 -4 -17 -15 -20 -23 -4 -8 -16
-28 -27 -45 -11 -16 -23 -38 -26 -47 -4 -10 -10 -18 -14 -18 -5 0 -12 -10 -16
-22 -4 -13 -10 -25 -13 -28 -6 -4 -37 -53 -94 -145 -7 -11 -24 -36 -38 -55
-14 -19 -29 -42 -32 -50 -4 -8 -16 -28 -27 -45 -11 -16 -23 -37 -27 -45 -4 -8
-31 -49 -60 -92 -29 -43 -53 -80 -53 -84 0 -3 -13 -23 -29 -43 -15 -20 -31
-46 -35 -58 -4 -13 -11 -23 -16 -23 -4 0 -10 -8 -14 -17 -3 -10 -15 -31 -26
-48 -11 -16 -23 -37 -27 -45 -3 -8 -9 -17 -12 -20 -14 -12 -51 -70 -51 -80 0
-5 -4 -10 -9 -10 -5 0 -13 -10 -17 -22 -4 -13 -10 -25 -13 -28 -4 -3 -25 -34
-47 -69 -21 -35 -47 -75 -56 -90 -10 -14 -21 -33 -25 -41 -3 -8 -12 -19 -20
-23 -7 -4 -13 -16 -13 -26 0 -10 -8 -25 -18 -34 -17 -16 -149 -17 -1699 -17
-1482 0 -1682 -2 -1693 -15 -7 -8 -23 -15 -35 -15 -12 0 -28 -7 -35 -15 -7 -8
-18 -15 -25 -15 -16 0 -155 -133 -155 -147 0 -6 -7 -13 -15 -17 -8 -3 -15 -14
-15 -24 0 -11 -7 -25 -15 -32 -8 -7 -15 -23 -15 -35 0 -13 -6 -25 -12 -27 -10
-4 -14 -193 -16 -890 -2 -781 -1 -888 13 -901 8 -9 15 -27 15 -41 0 -14 4 -26
9 -26 5 0 14 -14 20 -30 14 -40 156 -180 206 -203 22 -10 53 -25 68 -33 23
-11 88 -14 313 -14 l284 0 0 -485 0 -485 230 -2 231 -3 -1 -695 0 -694 -28
-23 c-28 -23 -62 -30 -62 -13 0 23 -74 89 -122 110 -63 27 -144 24 -203 -6
-59 -31 -54 -40 27 -47 74 -5 182 -41 226 -75 23 -18 23 -18 -66 -30 -202 -27
-341 -128 -421 -304 -101 -226 -93 -428 29 -733 42 -107 95 -202 205 -370 192
-293 382 -461 578 -512 72 -18 259 -12 285 9 28 23 78 112 109 193 39 100 47
127 73 244 l21 95 -35 50 c-123 179 -140 345 -44 431 38 35 58 40 126 36 75
-6 156 -62 209 -147 15 -24 35 -44 44 -44 28 0 113 62 190 139 98 98 161 194
219 336 28 68 45 178 44 290 -1 105 -4 128 -27 184 -49 119 -131 203 -262 266
-49 24 -102 47 -117 51 l-28 6 0 629 0 629 230 0 230 0 5 23 c3 12 4 230 3
485 l-3 462 449 -2 449 -3 38 -60 c21 -33 43 -69 49 -80 13 -27 34 -59 41 -65
3 -3 23 -34 44 -70 22 -36 62 -99 90 -140 63 -95 73 -111 81 -132 3 -10 10
-18 14 -18 5 0 12 -10 16 -22 4 -13 20 -39 35 -59 16 -20 29 -39 29 -43 0 -6
82 -132 98 -152 5 -6 13 -20 16 -32 4 -12 11 -22 16 -22 4 0 10 -8 14 -17 7
-22 22 -46 59 -94 15 -20 27 -44 27 -52 0 -8 7 -17 15 -21 8 -3 15 -12 15 -21
0 -8 4 -15 9 -15 5 0 13 -10 17 -22 3 -12 11 -26 16 -32 11 -13 137 -209 163
-253 l19 -33 478 0 478 0 0 46 c0 27 -4 43 -10 39 -5 -3 -10 -1 -10 5 0 7 -13
29 -28 49 -15 20 -36 53 -47 74 -11 20 -23 37 -27 37 -3 0 -10 9 -13 20 -4 11
-31 57 -61 101 -30 44 -54 83 -54 86 0 3 -13 22 -30 43 -16 21 -30 44 -30 51
0 8 -14 29 -30 48 -17 18 -30 37 -30 41 0 6 -74 125 -97 156 -17 22 -33 50
-43 72 -5 12 -14 22 -20 22 -5 0 -10 7 -10 16 0 9 -12 33 -27 53 -32 41 -50
69 -60 91 -4 8 -9 17 -12 20 -9 8 -51 69 -51 74 0 3 12 -2 28 -10 15 -7 39
-14 53 -14 15 0 40 -7 55 -15 16 -8 43 -15 59 -15 17 -1 41 -7 55 -15 14 -8
41 -15 60 -15 19 0 44 -7 54 -15 11 -8 36 -15 55 -15 20 -1 47 -7 61 -15 14
-8 41 -15 60 -15 19 0 44 -7 54 -15 11 -8 37 -15 58 -15 l38 0 0 1728 0 1728
-47 -6 c-27 -3 -58 -12 -70 -18 -12 -7 -35 -12 -51 -12 -16 0 -43 -7 -58 -15
-16 -8 -45 -15 -64 -15 -19 0 -44 -7 -54 -15 -11 -8 -34 -15 -52 -15 -17 0
-45 -7 -60 -15 -16 -8 -45 -15 -64 -15 -19 0 -44 -7 -54 -15 -11 -8 -36 -15
-56 -15 -20 0 -42 -6 -50 -12 -7 -7 -3 5 10 27 13 22 27 42 30 45 4 3 10 12
14 20 9 19 22 41 71 115 56 84 64 98 71 118 3 9 9 17 13 17 3 0 17 20 31 45
14 25 28 45 31 45 4 0 9 8 13 18 3 9 15 31 26 47 11 17 25 40 31 53 7 12 15
22 19 22 4 0 10 8 14 18 3 9 15 31 26 47 11 17 23 37 27 45 4 8 31 49 60 92
29 43 53 80 53 83 0 8 44 69 53 73 4 2 7 12 7 23 0 11 7 22 15 25 8 4 15 11
15 18 0 6 11 23 25 38 15 17 25 39 25 58 l0 30 -490 0 c-479 0 -490 0 -490
-20z"/>
<path d="M34022 42969 c-15 -5 -22 -15 -20 -26 2 -13 20 -20 71 -29 50 -8 77
-19 107 -43 43 -34 73 -37 78 -9 10 54 -168 134 -236 107z"/>
<path d="M33925 42722 c-10 -10 -5 -19 19 -30 21 -9 23 -16 19 -54 -4 -34 0
-49 17 -70 41 -53 89 -27 90 48 0 57 -25 85 -89 100 -28 6 -53 9 -56 6z"/>
<path d="M34336 42132 c-12 -36 -52 -60 -161 -95 -112 -36 -255 -70 -288 -69
-23 1 -67 29 -67 42 0 6 -7 10 -15 10 -20 0 -19 -13 4 -58 23 -44 63 -83 110
-106 38 -18 176 -23 186 -6 3 6 15 10 26 10 23 0 57 20 120 73 46 38 90 112
103 174 8 34 -9 56 -18 25z"/>
<path d="M33045 41301 c-85 -40 -135 -120 -135 -219 0 -55 11 -89 50 -149 13
-20 10 -26 -41 -86 -299 -354 -474 -582 -602 -784 -89 -141 -115 -187 -237
-418 -26 -49 -79 -169 -118 -265 -64 -161 -86 -224 -144 -425 -11 -38 -25 -75
-31 -81 -9 -9 -85 3 -297 46 -157 31 -314 65 -350 74 -36 10 -81 21 -100 26
-19 5 -54 13 -76 19 -74 20 -79 14 -28 -33 l49 -44 -80 -118 -81 -119 -67 -11
c-71 -12 -93 -24 -85 -46 6 -15 222 -145 358 -215 82 -42 270 -129 365 -168
115 -48 185 -74 220 -84 l40 -10 -4 -1153 c-2 -854 -6 -1155 -15 -1160 -6 -4
-18 -8 -26 -8 -12 0 -15 19 -16 107 -1 60 -6 160 -12 223 -23 245 -35 377 -37
415 -5 111 -37 439 -57 591 -6 44 -9 96 -6 114 3 18 0 52 -7 74 -7 23 -10 56
-8 74 3 20 1 32 -6 32 -6 0 -11 9 -11 21 0 36 -82 140 -151 192 -48 36 -108
57 -211 71 -70 10 -88 10 -88 0 0 -15 23 -24 58 -24 45 0 145 -54 200 -108 58
-56 108 -151 116 -216 6 -53 22 -219 36 -371 6 -66 15 -169 20 -230 6 -60 17
-193 25 -295 24 -294 35 -419 46 -513 6 -61 6 -100 -1 -127 l-11 -40 -1428 0
c-785 0 -1430 2 -1433 6 -3 3 -154 5 -334 4 l-329 -1 -53 -32 c-71 -42 -114
-97 -123 -156 -9 -63 0 -146 20 -169 9 -10 21 -27 27 -37 6 -10 19 -23 29 -29
11 -6 25 -17 33 -24 33 -30 84 -41 197 -43 64 -1 119 1 122 5 4 3 1572 6 3486
6 l3479 0 -6 -67 c-6 -61 -16 -248 -46 -858 -10 -201 -22 -422 -40 -765 -6
-102 -14 -270 -20 -375 -5 -104 -14 -278 -20 -385 -20 -393 -40 -780 -50 -975
-10 -191 -18 -348 -40 -765 -5 -104 -14 -274 -20 -377 -5 -104 -14 -276 -20
-383 -16 -313 -39 -759 -50 -980 -6 -113 -15 -290 -21 -395 -15 -288 -27 -529
-39 -745 -5 -107 -14 -280 -20 -385 -33 -637 -39 -767 -34 -780 7 -17 18 -21
114 -37 119 -20 278 -16 409 11 112 23 222 61 251 86 8 7 47 29 87 50 45 22
75 45 79 58 13 42 -9 1282 -36 1962 -25 625 -66 1340 -100 1710 -5 61 -14 160
-20 220 -5 61 -14 182 -20 270 -5 88 -12 175 -15 194 -2 19 0 95 5 170 17 230
39 355 130 741 11 47 29 123 40 170 11 47 36 153 55 235 20 83 39 167 42 188
5 35 18 55 29 44 9 -9 115 -444 154 -634 36 -175 54 -251 120 -498 50 -186
252 -807 393 -1205 138 -390 543 -1430 732 -1878 29 -70 107 -259 174 -419
232 -562 522 -1238 657 -1531 19 -41 34 -78 34 -83 0 -12 29 -11 82 0 24 6 72
15 108 21 94 17 234 65 309 107 43 23 98 69 157 129 l91 93 -13 63 c-20 88
-53 236 -64 283 -5 22 -19 81 -30 130 -21 93 -83 359 -100 430 -5 22 -19 83
-31 135 -38 169 -259 1054 -329 1315 -48 181 -176 626 -221 770 -166 528 -237
769 -269 915 -20 91 -30 136 -64 280 -15 62 -56 330 -76 490 -17 132 -43 486
-60 790 -31 569 -70 1151 -91 1370 -5 58 -14 150 -19 205 -20 218 -48 455 -81
691 -12 89 -20 168 -17 176 3 8 38 27 77 43 39 15 71 31 71 35 0 5 -7 45 -15
91 -8 46 -20 111 -26 144 -10 58 -18 97 -39 188 -5 23 -17 76 -26 117 -207
937 -472 1665 -792 2178 -64 102 -64 104 -87 241 -46 270 -113 1211 -86 1211
6 0 39 -26 74 -57 461 -417 833 -645 1137 -698 l87 -15 118 36 c323 98 547
281 771 631 59 92 217 395 255 488 67 164 156 442 145 453 -4 3 -73 -11 -154
-31 -81 -20 -155 -37 -165 -37 -20 0 -67 93 -89 175 -7 25 -15 44 -19 43 -4
-2 -58 -75 -121 -163 -136 -191 -196 -269 -304 -395 -166 -193 -356 -350 -423
-350 -26 0 -127 69 -276 189 -141 113 -702 669 -956 946 -257 282 -330 350
-418 392 l-75 35 -215 -6 c-402 -12 -461 -17 -461 -37 0 -5 8 -22 18 -37 15
-24 17 -58 17 -344 -1 -174 -3 -320 -6 -323 -3 -3 -31 9 -63 26 -31 17 -62 29
-69 26 -9 -3 -10 -62 -5 -253 8 -319 26 -716 39 -869 9 -118 19 -235 39 -505
18 -228 65 -705 91 -920 5 -47 14 -123 20 -170 5 -47 14 -116 19 -155 24 -185
24 -184 -2 -194 -13 -6 -106 -31 -208 -57 -102 -25 -277 -70 -390 -100 -113
-29 -208 -49 -213 -45 -4 4 -12 32 -17 62 -5 30 -22 126 -39 214 -41 218 -124
697 -201 1160 -12 75 -46 319 -70 500 -11 88 -25 189 -30 225 -16 112 -29 212
-39 305 -6 50 -15 131 -20 180 -6 50 -18 176 -27 280 -9 105 -19 192 -21 195
-8 8 -62 -61 -84 -107 -12 -24 -25 -43 -29 -43 -14 0 -30 70 -30 130 0 126 52
374 96 461 22 43 32 99 19 99 -6 0 -140 -35 -212 -56 -29 -9 -58 -23 -65 -33
-7 -9 -48 -36 -91 -59 -86 -48 -248 -158 -348 -239 -73 -59 -61 -36 -214 -388
-233 -534 -485 -961 -693 -1177 -56 -58 -119 -114 -140 -124 -53 -25 -173 -44
-282 -44 -124 0 -170 8 -170 29 0 9 22 88 49 176 124 400 356 848 631 1215 55
74 185 237 288 362 l187 228 64 0 c78 0 135 25 185 80 86 95 79 236 -16 327
-18 18 -50 39 -70 47 -51 22 -143 20 -193 -3z m508 -2625 c76 -115 107 -156
241 -316 141 -168 219 -296 262 -436 28 -87 28 -95 29 -319 1 -795 -7 -1722
-14 -1734 -8 -12 -179 -13 -1146 -9 -733 4 -1140 9 -1146 15 -7 7 -9 395 -7
1125 3 1208 1 1158 56 1137 72 -27 292 -51 477 -52 163 -1 202 2 272 21 276
72 505 236 789 567 54 63 102 115 106 115 3 0 40 -51 81 -114z"/>
<path d="M52221 40949 c-30 -10 -61 -25 -70 -32 -9 -7 -47 -28 -86 -47 -160
-76 -634 -349 -682 -393 -11 -9 -23 -17 -27 -17 -15 0 -361 -239 -466 -322
-30 -24 -98 -77 -151 -118 -53 -41 -150 -122 -215 -180 -66 -58 -134 -118
-153 -135 -34 -29 -134 -129 -251 -250 -32 -33 -86 -94 -121 -135 -35 -41 -95
-109 -132 -150 -38 -41 -113 -134 -167 -205 -54 -72 -108 -139 -119 -149 -12
-11 -21 -22 -21 -27 0 -4 -18 -33 -40 -65 -53 -77 -105 -157 -187 -289 -22
-35 -75 -129 -99 -175 -13 -25 -28 -52 -33 -60 -6 -8 -16 -28 -24 -45 -8 -16
-21 -43 -30 -60 -34 -61 -127 -263 -127 -275 0 -6 -8 -25 -17 -43 -9 -18 -27
-61 -41 -97 -13 -36 -37 -101 -54 -145 -16 -44 -38 -109 -47 -145 -10 -36 -25
-78 -33 -95 -9 -16 -19 -50 -22 -75 -4 -25 -18 -79 -31 -120 -28 -89 -39 -160
-27 -178 7 -11 66 -14 278 -14 l269 0 23 32 c12 18 22 40 22 49 0 9 19 68 41
131 22 63 49 140 59 170 10 30 27 73 39 95 12 21 21 45 21 52 0 7 11 34 25 60
13 27 38 80 56 118 43 96 94 199 131 265 17 30 48 89 70 130 22 41 50 91 62
110 13 19 48 74 79 123 116 178 173 263 197 292 14 16 41 53 60 80 115 168
459 563 705 811 146 147 324 313 475 444 41 36 92 80 112 99 21 19 48 41 60
49 13 9 61 48 108 87 104 87 335 262 438 333 79 54 123 85 178 124 17 13 44
32 60 43 62 42 125 99 139 126 8 15 15 50 15 77 0 38 -6 57 -31 90 -53 72
-118 87 -218 51z"/>
<path d="M43977 40526 c-50 -18 -76 -42 -98 -91 -41 -90 -16 -149 111 -265 52
-47 123 -112 159 -145 104 -94 499 -491 587 -589 43 -49 110 -122 147 -162
118 -125 418 -490 522 -634 18 -24 56 -74 127 -164 23 -29 52 -71 182 -267 65
-98 81 -123 139 -216 13 -21 35 -56 49 -78 102 -164 368 -679 368 -714 0 -7 8
-25 19 -39 10 -15 24 -45 31 -66 10 -33 76 -174 85 -184 6 -7 523 -4 534 2 16
10 13 78 -4 103 -9 12 -20 48 -26 80 -6 32 -19 72 -29 88 -10 17 -21 48 -25
70 -4 22 -14 51 -23 65 -15 23 -37 79 -82 207 -18 50 -25 65 -89 190 -17 34
-31 67 -31 73 0 7 -8 24 -18 38 -10 15 -25 43 -32 62 -19 47 -217 407 -244
445 -13 17 -26 37 -30 45 -33 70 -371 547 -411 580 -8 7 -15 18 -15 25 0 6
-10 20 -21 31 -12 10 -30 32 -39 47 -20 33 -116 141 -245 277 -382 404 -785
744 -1193 1005 -51 33 -129 83 -173 112 -72 46 -155 84 -183 83 -6 -1 -28 -7
-49 -14z"/>
<path d="M20115 37314 c-87 -7 -253 -26 -300 -34 -27 -4 -84 -14 -125 -20
-235 -39 -479 -170 -635 -342 -143 -157 -203 -369 -160 -558 40 -171 116 -298
223 -372 35 -24 37 -28 159 -313 104 -244 193 -402 290 -514 l37 -43 0 -297
c0 -316 -12 -426 -64 -592 l-21 -65 -51 -3 c-28 -1 -59 -6 -67 -10 -9 -5 -45
-11 -80 -15 -36 -3 -79 -10 -95 -15 -17 -5 -50 -14 -73 -20 -105 -27 -129 -34
-145 -42 -10 -5 -25 -9 -33 -9 -8 0 -23 -4 -33 -9 -9 -5 -44 -17 -77 -26 -33
-9 -70 -21 -83 -26 -13 -5 -32 -9 -43 -9 -10 0 -27 -4 -37 -9 -9 -5 -42 -21
-72 -36 -91 -44 -155 -94 -233 -185 -26 -30 -47 -63 -47 -72 0 -10 -4 -18 -9
-18 -5 0 -11 -15 -14 -32 -4 -18 -11 -58 -17 -88 -6 -30 -13 -75 -16 -100 -3
-25 -9 -54 -14 -65 -5 -11 -12 -60 -15 -110 -3 -49 -10 -130 -15 -180 -18
-199 -31 -501 -28 -700 l3 -210 1325 -5 1325 -5 50 -25 c64 -31 124 -91 155
-155 l25 -50 0 -566 0 -565 -24 -46 c-33 -65 -96 -126 -161 -157 -45 -21 -73
-27 -152 -29 l-98 -4 0 -1874 0 -1873 798 -3 797 -3 70 -29 c39 -15 75 -28 80
-28 11 0 189 17 334 32 52 6 96 9 98 7 2 -2 8 -64 13 -138 12 -156 40 -360 71
-509 12 -58 23 -116 26 -130 3 -14 22 -97 43 -185 22 -88 44 -180 50 -205 5
-25 19 -79 31 -120 11 -41 33 -124 49 -185 16 -60 40 -144 53 -185 13 -41 39
-124 58 -185 18 -60 54 -170 79 -244 l45 -134 445 -174 c245 -95 570 -222 724
-282 l278 -110 -6 32 c-6 27 -56 369 -87 587 -5 36 -13 94 -19 130 -6 36 -15
97 -20 135 -5 39 -23 165 -40 280 -30 215 -42 303 -60 448 -6 45 -15 114 -20
152 -5 39 -14 117 -20 175 -6 58 -15 143 -20 190 -10 90 -34 325 -50 500 -5
58 -12 134 -15 169 l-6 64 61 -6 c34 -4 65 -9 70 -12 4 -2 11 -37 14 -77 7
-70 37 -253 55 -333 60 -272 156 -637 201 -758 10 -29 40 -113 65 -187 121
-349 321 -828 533 -1275 54 -115 279 -564 287 -573 1 -1 287 -114 636 -251
349 -136 697 -273 774 -303 77 -31 141 -55 143 -53 3 3 -64 224 -70 230 -2 3
-24 -4 -47 -16 -24 -11 -48 -18 -55 -16 -7 3 -33 87 -58 188 -55 215 -140 549
-197 769 -49 190 -136 534 -231 905 -118 462 -215 840 -304 1185 -19 74 -67
261 -106 415 -65 253 -84 324 -125 450 -47 143 -173 372 -278 505 -139 176
-408 404 -655 555 -62 37 -112 74 -112 81 0 6 10 31 22 53 20 37 21 45 9 79
-26 74 -70 188 -83 212 -14 26 -101 111 -278 270 -58 52 -116 110 -129 129
-14 20 -65 83 -115 141 -50 58 -145 173 -211 255 -198 248 -263 323 -415 476
-223 225 -416 377 -605 479 -44 23 -158 92 -252 153 -188 119 -195 127 -266
272 -47 95 -342 835 -335 840 3 2 115 56 308 148 25 12 47 25 48 30 2 4 13 7
24 7 18 0 20 5 15 33 -3 18 -26 75 -51 127 -25 52 -46 100 -46 107 0 7 -4 13
-10 13 -5 0 -10 9 -10 20 0 11 -4 20 -10 20 -5 0 -10 5 -10 11 0 15 -29 77
-331 704 -24 50 -47 92 -51 93 -4 2 -8 12 -8 23 0 10 -4 19 -10 19 -5 0 -10 7
-10 15 0 21 -33 95 -42 95 -5 0 -8 9 -8 20 0 11 -4 20 -10 20 -5 0 -10 9 -10
19 0 11 -3 21 -7 23 -8 3 -20 24 -82 143 -14 28 -29 52 -33 53 -5 2 -8 10 -8
18 0 24 -172 189 -245 235 -38 24 -81 49 -95 55 -60 27 -78 34 -123 48 -26 9
-56 16 -67 16 -10 0 -22 5 -25 10 -3 6 -19 10 -36 10 -16 0 -29 5 -29 10 0 6
-13 10 -30 10 -16 0 -30 4 -30 9 0 5 -15 11 -32 14 -18 3 -53 10 -78 16 -25 6
-81 17 -125 26 -44 9 -102 20 -130 26 -27 5 -68 12 -90 16 -22 3 -44 9 -49 14
-6 5 -24 9 -42 9 -18 0 -56 13 -85 28 -30 15 -76 36 -104 46 -27 10 -54 23
-59 27 -6 5 -17 9 -26 9 -9 0 -35 9 -58 20 -22 11 -51 22 -64 23 -40 7 -60 80
-65 242 -4 117 -2 156 16 240 12 55 28 106 35 114 9 8 47 17 93 21 318 29 592
287 659 620 4 19 12 93 18 164 l11 128 49 18 c26 11 51 21 54 24 3 3 -23 48
-58 101 -60 91 -63 97 -62 157 0 35 3 87 7 116 7 49 5 54 -24 81 -17 16 -31
33 -31 39 0 5 -13 49 -30 98 l-29 89 20 17 c26 22 18 48 -16 48 -21 0 -31 12
-65 81 -43 87 -48 109 -26 109 22 0 92 83 111 133 56 148 -56 323 -283 439
-225 116 -441 161 -687 142z m1549 -6236 c123 -284 298 -592 452 -798 93 -123
252 -286 325 -333 30 -19 77 -52 104 -73 46 -37 148 -109 363 -260 99 -69 305
-210 742 -509 331 -226 650 -460 650 -477 0 -12 6 -14 -180 47 -80 26 -176 55
-215 66 -38 10 -104 28 -145 39 -100 27 -283 71 -420 100 -90 18 -335 61 -465
80 -44 6 -107 15 -140 20 -215 31 -543 61 -842 76 -73 4 -134 10 -134 13 -6
29 -15 119 -30 316 -23 298 -26 333 -34 345 -4 7 -9 47 -10 89 -1 42 -8 130
-14 196 -23 231 -30 311 -40 490 -6 99 -16 252 -22 340 -15 211 -22 391 -14
383 4 -3 35 -71 69 -150z"/>
<path d="M11822 36549 c4 -29 51 -50 70 -31 16 16 -5 38 -45 48 -26 6 -28 4
-25 -17z"/>
<path d="M14925 36329 c-22 -5 -71 -17 -110 -26 -191 -44 -323 -121 -483 -281
-88 -88 -134 -127 -163 -137 -65 -23 -197 -105 -257 -160 -73 -66 -127 -141
-165 -228 -29 -68 -30 -79 -31 -207 0 -113 3 -147 22 -208 47 -149 150 -345
282 -532 112 -159 193 -320 210 -417 19 -108 -3 -206 -67 -290 -17 -24 -20
-33 -10 -33 24 0 167 48 245 81 40 18 75 30 78 27 3 -3 -9 -35 -26 -72 -16
-37 -30 -68 -30 -71 0 -4 -64 -145 -82 -182 -23 -46 3 -34 78 33 102 92 146
127 229 184 90 60 132 81 229 114 67 22 95 26 201 26 117 0 269 -22 365 -52
212 -67 351 -131 488 -222 111 -75 104 -72 96 -41 -30 119 -170 313 -298 413
-16 12 -27 24 -25 26 2 2 44 -9 94 -25 83 -28 275 -53 275 -36 0 3 -28 34 -62
69 -119 122 -191 238 -243 396 -26 78 -28 121 -12 202 1 3 -20 16 -47 30 -72
39 -147 110 -188 181 -34 57 -38 71 -38 131 0 84 28 134 97 178 77 49 169 38
247 -31 l35 -30 15 30 c23 43 20 161 -5 262 -29 118 -37 240 -21 330 36 206
26 255 -68 348 -107 105 -269 170 -554 221 -71 12 -245 12 -301 -1z"/>
<path d="M11840 36215 c0 -68 13 -85 30 -39 19 49 7 104 -22 104 -4 0 -8 -29
-8 -65z"/>
<path d="M11826 35879 c-3 -34 -6 -82 -6 -105 0 -42 1 -44 30 -44 31 0 83 19
78 29 -22 42 -68 146 -68 151 0 4 -6 13 -14 19 -11 9 -14 0 -20 -50z"/>
<path d="M15917 35650 c-30 -24 -34 -42 -14 -59 10 -8 20 -4 42 19 26 27 27
32 14 45 -14 14 -18 13 -42 -5z"/>
<path d="M16098 35333 l-37 -26 20 -51 c46 -115 62 -129 67 -57 2 29 -3 56
-14 77 -17 31 -17 34 -1 52 35 39 18 41 -35 5z"/>
<path d="M11367 35060 c-20 -9 -72 -25 -115 -34 -136 -31 -125 -24 -139 -96
-17 -90 -16 -185 2 -254 9 -33 14 -60 12 -62 -1 -2 -43 1 -92 6 -202 21 -633
9 -875 -25 -207 -29 -250 -55 -250 -146 0 -27 -4 -49 -10 -49 -5 0 -7 -7 -4
-15 5 -11 -1 -15 -22 -15 -16 0 -35 -4 -41 -8 -7 -5 -39 -4 -71 2 -50 8 -65 6
-117 -14 -33 -12 -71 -23 -85 -24 -27 -2 -53 -11 -85 -28 -10 -6 -39 -21 -63
-34 -63 -34 -134 -89 -157 -124 -11 -17 -23 -30 -27 -30 -5 0 -8 -6 -8 -13 0
-7 -9 -23 -21 -35 -11 -12 -18 -26 -15 -31 3 -5 -1 -14 -9 -21 -8 -7 -15 -16
-15 -21 0 -5 -9 -28 -19 -52 -11 -23 -21 -53 -24 -67 -3 -14 -10 -38 -15 -55
-42 -123 -47 -145 -47 -227 0 -49 -3 -88 -7 -88 -11 0 -10 -118 1 -124 4 -3 6
-39 3 -79 -3 -58 0 -86 17 -134 11 -32 21 -68 21 -80 0 -11 9 -46 20 -78 11
-32 17 -67 14 -78 -3 -11 -2 -29 4 -41 5 -11 14 -33 21 -48 l11 -28 1343 0
1344 0 71 -36 c76 -37 114 -75 153 -152 l24 -47 3 -546 c2 -540 2 -548 -19
-605 -27 -73 -94 -145 -165 -180 -44 -21 -73 -27 -159 -32 l-105 -5 2 -1871 3
-1871 795 -5 795 -5 58 -24 c102 -41 150 -73 232 -156 65 -66 85 -94 109 -153
28 -66 46 -90 46 -59 4 327 -2 1911 -7 1924 -6 13 -20 19 -48 20 -65 3 -129
14 -139 24 -6 5 -25 9 -42 9 -18 0 -36 5 -39 10 -3 6 -24 10 -45 10 -21 0 -42
5 -45 10 -3 6 -23 10 -44 10 -20 0 -41 4 -47 9 -5 5 -29 11 -54 14 -25 3 -60
9 -77 12 -18 4 -41 4 -50 0 -10 -5 -22 -7 -28 -5 -5 2 -32 7 -60 11 -27 5 -79
14 -115 20 -36 6 -87 14 -115 19 -27 5 -79 13 -115 19 -36 5 -94 15 -130 21
-36 6 -86 13 -112 17 l-48 6 0 346 c0 200 4 351 9 356 8 8 18 297 12 345 -1 8
1 39 5 68 l7 52 248 0 c137 0 249 3 249 7 0 4 -9 16 -19 27 -24 27 -130 237
-171 341 -55 139 -147 396 -185 520 -21 66 -44 131 -52 144 -8 13 -17 49 -20
81 -6 67 14 290 28 306 5 7 20 14 32 17 20 5 59 16 132 37 17 4 73 20 125 35
52 14 109 30 125 35 17 5 47 14 68 19 20 6 52 15 70 20 36 11 87 26 145 41 20
6 61 13 91 16 29 2 57 7 62 10 14 8 11 98 -3 113 -9 8 -12 40 -10 106 2 51 -1
108 -7 127 -5 18 -14 83 -20 143 -5 61 -15 137 -21 170 -6 33 -13 78 -16 100
-4 22 -10 44 -15 50 -5 5 -9 26 -9 47 0 21 -4 38 -9 38 -5 0 -11 17 -14 38
-10 65 -20 107 -26 112 -6 4 -21 60 -38 143 -3 15 -12 27 -20 27 -9 0 -14 8
-12 23 2 22 -5 48 -22 79 -5 10 -9 27 -9 38 0 11 -4 20 -10 20 -5 0 -10 9 -10
20 0 11 -4 20 -10 20 -5 0 -10 7 -10 16 0 18 -71 157 -82 162 -5 2 -8 12 -8
23 0 10 -4 19 -10 19 -5 0 -10 6 -10 13 0 7 -9 23 -20 35 -11 12 -20 25 -20
30 0 5 -11 19 -25 32 -14 13 -25 30 -25 37 0 7 -11 19 -25 25 -14 6 -25 17
-25 25 0 18 -97 113 -115 113 -7 0 -16 8 -19 18 -6 16 -104 85 -155 108 -77
35 -137 45 -240 43 -94 -2 -110 0 -144 19 -21 13 -43 20 -48 16 -6 -3 -18 0
-27 8 -29 23 -61 38 -80 38 -10 0 -22 4 -28 8 -5 5 -47 21 -94 36 -47 15 -94
31 -105 36 -11 4 -40 13 -65 20 -25 7 -57 17 -72 22 -16 6 -36 8 -46 6 -13 -4
-22 3 -32 26 -7 17 -31 55 -52 85 -37 53 -49 96 -28 103 7 2 9 89 8 249 l-3
245 -38 -16z"/>
<path d="M28990 34410 c0 -44 4 -169 10 -278 5 -108 17 -375 25 -592 8 -217
20 -498 25 -625 5 -126 14 -342 20 -480 6 -137 15 -356 20 -485 5 -129 14
-345 20 -480 5 -135 15 -355 20 -490 6 -135 17 -414 25 -620 8 -206 19 -485
25 -620 6 -135 15 -351 20 -480 5 -129 14 -347 20 -485 6 -137 15 -353 20
-480 14 -326 28 -672 45 -1105 30 -761 36 -899 45 -1086 6 -105 10 -234 10
-285 0 -52 3 -118 6 -147 l7 -52 1206 2 1206 3 7 4420 c4 2431 6 4426 3 4433
-3 9 -291 12 -1395 12 l-1390 0 0 -80z"/>
<path d="M41970 33879 c-506 -52 -999 -280 -1368 -634 -97 -92 -112 -117 -112
-182 0 -95 76 -172 167 -173 63 0 84 12 180 100 394 364 862 550 1383 550 521
0 989 -186 1383 -550 96 -88 117 -100 180 -100 91 1 167 78 167 173 0 65 -15
90 -112 182 -375 360 -863 583 -1387 635 -120 12 -359 11 -481 -1z"/>
<path d="M14853 33303 c15 -2 37 -2 50 0 12 2 0 4 -28 4 -27 0 -38 -2 -22 -4z"/>
<path d="M15163 33303 c26 -2 67 -2 90 0 23 2 2 3 -48 3 -49 0 -68 -1 -42 -3z"/>
<path d="M15408 33293 c6 -2 18 -2 25 0 6 3 1 5 -13 5 -14 0 -19 -2 -12 -5z"/>
<path d="M15538 33283 c12 -2 30 -2 40 0 9 3 -1 5 -23 4 -22 0 -30 -2 -17 -4z"/>
<path d="M42075 33229 c-353 -27 -714 -183 -990 -427 -141 -124 -175 -174
-175 -256 0 -83 84 -166 168 -166 57 0 102 28 202 124 260 249 582 379 940
379 358 0 680 -130 940 -379 99 -95 145 -124 199 -124 89 0 171 81 171 169 0
79 -36 130 -175 253 -283 250 -635 399 -1009 428 -133 10 -128 10 -271 -1z"/>
<path d="M48415 32809 c-178 -11 -366 -49 -473 -95 -18 -8 -37 -14 -43 -14 -9
0 -216 -100 -288 -140 -102 -55 -244 -188 -279 -261 -49 -102 -20 -165 125
-275 15 -12 39 -25 53 -29 14 -4 35 -14 48 -22 57 -35 319 -134 487 -182 228
-66 305 -101 384 -175 71 -67 91 -126 105 -302 11 -134 16 -156 40 -198 45
-77 131 -103 239 -71 57 16 93 15 148 -6 90 -35 45 -211 -90 -354 -62 -65 -98
-159 -127 -328 -18 -111 -14 -143 21 -159 40 -18 106 15 240 123 92 75 402
397 429 447 5 9 12 19 16 22 4 3 20 25 36 49 107 161 165 258 208 347 10 22
28 59 41 84 64 127 115 321 140 539 9 83 -20 253 -62 351 -57 134 -207 320
-298 369 -22 12 -68 39 -103 61 -115 72 -349 161 -502 190 -72 14 -317 40
-355 38 -16 -1 -79 -5 -140 -9z"/>
<path d="M42044 32566 c-154 -29 -278 -79 -401 -159 -140 -93 -281 -245 -303
-328 -19 -71 22 -159 91 -194 32 -17 105 -20 143 -6 13 6 75 61 138 123 92 93
127 120 188 150 125 60 179 73 320 73 140 0 194 -13 320 -73 62 -30 95 -56
186 -148 60 -61 120 -116 131 -123 30 -16 119 -14 152 4 69 35 110 123 91 194
-22 83 -163 235 -303 328 -169 111 -337 163 -547 169 -87 2 -160 -1 -206 -10z"/>
<path d="M14338 32523 c375 -2 989 -2 1365 0 375 1 68 2 -683 2 -751 0 -1058
-1 -682 -2z"/>
<path d="M16398 32523 c7 -3 16 -2 19 1 4 3 -2 6 -13 5 -11 0 -14 -3 -6 -6z"/>
<path d="M42151 31919 c-116 -20 -236 -113 -289 -227 -24 -50 -27 -69 -27
-162 0 -96 3 -110 29 -165 39 -79 110 -149 194 -188 61 -29 76 -32 162 -32 86
0 101 3 162 32 84 39 155 109 194 188 26 55 29 69 29 165 0 93 -3 112 -27 162
-55 118 -172 207 -298 227 -36 6 -67 10 -70 10 -3 -1 -29 -5 -59 -10z"/>
<path d="M9360 29375 c0 -1866 0 -1885 35 -1885 7 0 18 -7 25 -15 11 -13 133
-15 986 -15 l974 0 0 1875 0 1875 -1010 0 -1010 0 0 -1835z"/>
<path d="M9032 30890 c-23 -30 -55 -71 -70 -90 -16 -19 -79 -102 -141 -185
-63 -82 -124 -161 -137 -176 -13 -14 -24 -30 -24 -37 0 -18 409 -17 415 1 3 7
4 131 3 277 l-3 265 -43 -55z"/>
<path d="M14004 30915 c-3 -8 -4 -20 -1 -27 3 -7 6 -3 6 10 l1 22 985 0 985 0
0 -690 0 -690 -72 0 c-40 0 -169 5 -287 10 -117 6 -216 8 -218 6 -3 -3 -13
-61 -23 -130 -10 -69 -21 -129 -24 -134 -6 -11 -40 -9 320 -18 254 -6 301 -5
305 7 3 8 5 381 5 829 l-1 815 -988 3 c-862 2 -988 0 -993 -13z"/>
<path d="M14013 30820 c0 -30 2 -43 4 -27 2 15 2 39 0 55 -2 15 -4 2 -4 -28z"/>
<path d="M18376 30562 c-3 -5 -2 -147 1 -317 4 -170 9 -300 13 -290 5 13 10
-10 13 -60 9 -124 24 -246 36 -290 13 -46 26 -111 70 -350 18 -93 37 -190 42
-215 13 -57 57 -242 70 -295 8 -29 6 -73 -5 -160 -51 -383 22 -791 206 -1160
54 -108 117 -194 208 -285 122 -121 248 -198 475 -291 l70 -29 406 0 407 0 7
1823 c4 1002 5 1845 3 1872 l-3 50 -1007 3 c-554 1 -1009 -2 -1012 -6z"/>
<path d="M14043 30340 c0 -41 2 -58 4 -37 2 20 2 54 0 75 -2 20 -4 3 -4 -38z"/>
<path d="M42352 30268 c-7 -7 -12 -18 -12 -25 0 -8 -18 -71 -41 -141 -22 -70
-55 -176 -74 -237 -19 -60 -52 -168 -74 -240 -22 -71 -43 -142 -46 -157 -8
-41 -48 -48 -83 -16 -15 14 -43 28 -62 32 -19 3 -53 15 -76 27 -37 17 -48 18
-88 8 -26 -6 -61 -9 -78 -5 -25 5 -40 0 -70 -20 -21 -15 -38 -32 -38 -39 0
-12 -41 -35 -65 -35 -7 0 -35 11 -62 24 -26 13 -75 31 -108 41 -33 9 -75 26
-93 37 -35 21 -47 17 -54 -16 -6 -38 -32 -42 -110 -18 -40 12 -125 36 -188 53
-63 16 -156 43 -206 59 -50 16 -114 32 -141 36 l-51 6 -26 -53 c-15 -30 -38
-109 -51 -176 -14 -67 -34 -137 -45 -156 -11 -18 -29 -84 -40 -146 -11 -62
-31 -133 -44 -159 -14 -26 -31 -91 -40 -145 -10 -60 -28 -123 -46 -161 -30
-63 -36 -92 -22 -112 8 -13 110 -47 204 -69 37 -8 118 -31 180 -51 150 -47
158 -45 174 31 40 186 190 331 261 253 28 -31 77 -129 112 -223 15 -42 26 -54
67 -77 65 -36 90 -71 75 -104 -6 -14 -11 -47 -11 -73 0 -40 6 -56 36 -96 l37
-47 -14 -56 c-7 -30 -24 -71 -37 -91 -14 -20 -33 -63 -42 -96 -10 -33 -25 -73
-33 -88 -29 -56 -19 -67 182 -187 85 -51 86 -51 72 -104 -17 -68 -7 -78 101
-110 51 -15 123 -38 160 -51 37 -13 95 -31 129 -40 35 -9 83 -27 108 -40 25
-12 62 -26 81 -30 19 -4 51 -17 70 -30 19 -13 47 -27 62 -30 55 -14 59 -30 42
-141 -10 -63 -24 -114 -39 -140 -15 -25 -32 -84 -44 -152 -12 -63 -31 -132
-45 -160 -15 -29 -32 -90 -41 -148 -10 -60 -26 -118 -41 -148 -15 -29 -33 -91
-44 -155 -11 -63 -29 -126 -44 -156 -15 -31 -31 -89 -41 -150 -10 -65 -24
-114 -40 -141 -17 -28 -30 -77 -41 -146 -10 -65 -24 -118 -39 -143 -12 -22
-28 -65 -34 -95 -33 -167 -43 -210 -52 -216 -17 -10 -28 -51 -45 -153 -9 -58
-26 -120 -44 -156 -16 -35 -35 -100 -44 -157 -9 -55 -27 -117 -41 -145 -15
-29 -32 -92 -44 -159 -12 -74 -25 -121 -39 -140 -13 -17 -28 -65 -38 -119 -24
-133 -25 -128 20 -137 22 -5 54 -18 73 -29 20 -13 78 -28 146 -40 61 -10 118
-21 124 -24 18 -6 16 -83 -3 -136 -15 -42 -46 -152 -119 -414 -18 -66 -40
-140 -49 -165 -10 -25 -28 -88 -41 -140 -13 -52 -33 -122 -45 -154 -11 -33
-29 -96 -39 -140 -11 -45 -27 -101 -36 -126 -10 -25 -30 -92 -46 -150 -30
-114 -62 -224 -115 -395 -18 -60 -39 -137 -47 -170 -8 -33 -28 -105 -45 -160
-37 -116 -73 -239 -111 -380 -15 -55 -42 -145 -58 -200 -29 -95 -46 -153 -94
-325 -11 -41 -36 -124 -55 -185 -19 -60 -45 -150 -58 -200 -31 -116 -69 -245
-108 -370 -17 -55 -37 -127 -45 -160 -7 -33 -25 -95 -39 -137 -14 -43 -38
-124 -54 -180 -64 -230 -71 -250 -119 -312 -25 -34 -54 -72 -64 -86 -22 -32
-45 -62 -189 -251 -102 -136 -171 -227 -263 -349 -14 -19 -53 -71 -87 -115
-33 -44 -94 -126 -136 -183 -43 -57 -99 -132 -127 -167 -27 -36 -63 -81 -78
-102 -15 -21 -59 -78 -98 -128 -38 -49 -80 -106 -94 -125 -13 -19 -38 -53 -54
-75 -17 -22 -38 -51 -48 -65 -10 -14 -38 -51 -63 -82 -25 -31 -58 -74 -73 -95
-45 -61 -146 -195 -170 -227 -36 -48 -74 -99 -104 -139 -15 -20 -43 -56 -60
-80 -18 -23 -39 -51 -47 -62 -24 -32 -83 -107 -110 -141 -15 -18 -26 -35 -26
-39 0 -4 -12 -22 -27 -41 -33 -39 -144 -184 -218 -284 -16 -22 -52 -70 -80
-105 -65 -83 -87 -112 -105 -140 -18 -27 -44 -62 -88 -118 -18 -23 -39 -51
-48 -62 -8 -11 -29 -39 -47 -62 -17 -24 -45 -60 -60 -80 -30 -40 -68 -91 -104
-139 -21 -27 -109 -145 -170 -227 -15 -21 -50 -67 -78 -102 -51 -66 -82 -107
-135 -180 -16 -22 -38 -51 -49 -65 -18 -22 -42 -55 -168 -223 -15 -21 -48 -63
-73 -95 -56 -71 -83 -107 -115 -152 -32 -46 -67 -93 -140 -187 -33 -42 -68
-89 -78 -103 -22 -31 -35 -49 -237 -315 -176 -231 -209 -275 -237 -315 -10
-14 -42 -56 -71 -95 -30 -38 -88 -116 -130 -173 -43 -57 -99 -132 -127 -167
-27 -36 -63 -81 -78 -102 -16 -21 -53 -71 -83 -110 -30 -40 -78 -106 -108
-145 -30 -40 -67 -90 -83 -111 -42 -56 -82 -109 -136 -179 -52 -68 -218 -289
-245 -326 -10 -13 -30 -41 -47 -62 -16 -22 -43 -58 -60 -80 -16 -22 -52 -69
-80 -105 -27 -35 -75 -98 -105 -140 -30 -42 -79 -106 -107 -143 -51 -65 -76
-99 -136 -179 -15 -21 -48 -65 -74 -97 -44 -56 -45 -60 -28 -72 10 -8 26 -14
34 -14 9 0 80 -14 159 -31 110 -25 148 -30 166 -21 12 5 52 49 87 96 35 48 87
115 114 150 28 35 64 82 80 105 17 23 55 73 85 111 30 38 66 85 80 105 24 34
95 126 160 207 17 20 30 40 30 43 0 4 24 35 53 70 28 35 66 82 82 106 17 23
53 71 80 105 28 35 64 82 80 104 17 22 53 70 80 105 28 36 64 83 80 105 17 22
53 69 80 105 28 35 64 83 80 105 17 22 53 69 80 104 28 34 64 82 80 105 17 24
42 57 56 74 14 18 63 82 109 142 46 61 95 124 109 142 14 17 40 50 56 74 17
23 53 71 80 105 28 35 64 82 80 104 17 22 53 70 80 105 28 36 64 83 80 105 17
22 53 70 80 105 28 36 64 83 80 105 17 22 53 70 80 105 28 36 64 83 80 105 17
22 53 69 80 105 28 35 64 83 80 105 17 23 42 55 56 73 14 18 62 79 106 137 43
58 117 155 163 215 45 61 95 124 109 142 14 18 40 50 56 73 17 22 53 70 80
105 28 36 63 82 78 102 16 21 38 51 50 67 12 16 36 46 52 67 17 21 44 57 60
79 17 22 53 70 80 105 28 36 64 83 80 105 17 22 38 51 47 63 10 12 32 41 50
64 18 24 47 61 63 83 17 23 37 49 45 58 8 10 31 39 50 65 36 49 91 121 111
146 12 13 37 46 230 301 52 68 101 132 109 142 8 9 29 35 45 58 17 22 45 59
63 83 18 23 40 52 50 64 9 12 31 41 47 63 17 22 53 69 80 104 28 34 64 82 80
105 17 23 53 71 80 106 28 36 64 83 80 105 17 22 44 58 60 78 17 21 39 51 50
67 11 15 31 42 45 59 14 17 34 43 43 59 10 15 25 27 34 27 23 0 13 -81 -27
-205 -18 -55 -45 -147 -60 -205 -28 -107 -60 -221 -110 -390 -16 -52 -38 -133
-50 -180 -12 -47 -34 -128 -50 -180 -16 -52 -42 -138 -56 -190 -75 -266 -108
-385 -134 -484 -16 -60 -41 -143 -54 -185 -14 -42 -33 -107 -41 -146 -9 -38
-31 -119 -50 -180 -18 -60 -42 -144 -54 -185 -12 -41 -30 -106 -41 -145 -51
-180 -76 -269 -106 -380 -17 -66 -39 -140 -48 -164 -9 -24 -26 -85 -37 -135
-12 -50 -28 -109 -36 -131 -8 -22 -30 -96 -48 -165 -51 -190 -84 -304 -120
-425 -19 -60 -44 -150 -56 -200 -12 -49 -25 -97 -30 -107 -5 -9 -20 -63 -34
-120 -15 -56 -37 -138 -51 -181 -14 -42 -38 -126 -54 -185 -53 -200 -98 -360
-119 -424 -20 -60 -49 -164 -112 -403 -16 -60 -40 -144 -54 -185 -13 -41 -35
-121 -49 -178 -14 -56 -32 -117 -40 -136 -7 -18 -21 -66 -30 -107 -10 -41 -30
-115 -46 -164 -16 -50 -36 -122 -44 -159 -9 -37 -26 -96 -37 -129 -24 -70 -79
-272 -82 -301 -1 -12 7 -24 23 -32 62 -31 168 -74 181 -74 8 0 37 -12 64 -25
28 -14 57 -25 66 -25 31 0 26 -11 119 305 23 77 59 196 81 265 21 69 39 131
39 138 0 8 18 68 39 135 37 116 52 166 101 337 12 41 39 131 60 200 36 120 52
173 106 360 14 47 37 121 51 165 14 44 38 125 54 180 51 181 80 279 109 370
16 50 34 110 40 135 6 25 26 95 45 155 19 61 53 173 76 250 22 77 58 196 79
265 21 69 41 139 44 155 4 17 24 86 46 155 21 69 55 181 75 250 20 69 54 181
76 250 21 69 41 139 45 155 3 17 21 77 39 135 38 119 71 229 121 408 18 68 38
131 43 141 5 9 21 62 35 117 14 54 35 122 46 151 11 29 27 85 36 125 9 40 25
95 35 121 11 27 33 97 49 155 44 161 77 274 121 409 21 67 39 127 39 135 0 7
18 69 39 138 22 69 58 188 80 265 23 77 57 190 76 250 19 61 42 142 52 180 20
85 37 128 57 144 25 21 33 5 39 -71 3 -40 13 -125 22 -188 9 -63 21 -153 26
-200 6 -47 15 -119 20 -160 5 -41 14 -111 19 -155 31 -265 48 -399 66 -520 8
-60 20 -145 25 -187 5 -43 14 -115 19 -160 6 -46 15 -119 20 -163 5 -44 14
-116 19 -160 6 -44 15 -118 20 -165 6 -47 17 -134 26 -195 19 -131 33 -243 46
-345 15 -131 29 -243 39 -325 5 -44 14 -118 20 -165 5 -47 16 -134 25 -195 19
-134 34 -244 46 -347 5 -43 14 -114 19 -158 14 -116 27 -222 39 -325 14 -114
26 -211 46 -350 9 -60 20 -148 26 -195 5 -47 14 -119 19 -160 5 -41 14 -115
20 -165 38 -312 48 -392 65 -515 16 -109 21 -148 45 -347 5 -46 15 -120 20
-165 6 -46 14 -117 19 -158 6 -41 14 -113 20 -160 5 -47 17 -137 26 -200 9
-63 21 -149 26 -190 5 -41 14 -115 20 -165 24 -192 27 -223 38 -319 6 -55 13
-107 16 -116 3 -9 -1 -24 -7 -33 -14 -18 0 -19 -235 17 -145 23 -269 21 -316
-3 -53 -27 -93 -82 -102 -137 -3 -26 -3 -50 2 -54 4 -4 42 -13 83 -20 41 -7
113 -25 160 -40 47 -16 135 -38 195 -50 61 -12 151 -34 200 -50 50 -15 131
-36 180 -45 50 -9 133 -30 185 -46 52 -17 142 -39 200 -50 58 -10 146 -32 195
-48 50 -17 131 -37 180 -46 50 -9 131 -29 180 -45 50 -16 142 -38 205 -50 63
-12 138 -31 165 -41 57 -22 75 -24 75 -8 0 6 13 37 28 68 16 31 34 79 41 106
7 28 21 65 32 84 11 19 26 59 34 89 8 30 24 70 35 89 22 37 50 137 50 177 0
19 -16 39 -67 81 -76 63 -199 147 -283 192 -143 78 -386 130 -419 89 -8 -9
-29 -16 -50 -16 -20 -1 -47 -7 -61 -15 -14 -8 -33 -14 -43 -15 -17 0 -102 -55
-143 -91 -11 -11 -26 -19 -32 -19 -7 0 -12 -4 -12 -10 0 -5 -15 -16 -32 -25
-18 -8 -40 -19 -48 -23 -55 -32 -128 -56 -208 -69 -25 -4 -39 0 -56 16 -20 19
-24 35 -30 119 -3 53 -9 117 -11 142 -5 48 -19 178 -35 338 -5 53 -17 174 -25
267 -8 94 -20 214 -25 268 -6 53 -14 141 -20 195 -5 53 -12 120 -15 147 -3 28
-10 97 -16 155 -18 185 -28 282 -39 390 -26 258 -44 435 -65 665 -22 234 -45
465 -66 668 -5 56 -14 143 -19 192 -12 121 -28 279 -40 397 -21 207 -29 287
-39 408 -6 69 -15 166 -21 215 -5 50 -14 140 -20 200 -12 130 -28 280 -35 350
-3 28 -10 97 -16 155 -18 190 -28 284 -38 388 -23 219 -45 437 -66 667 -27
291 -46 477 -85 860 -5 50 -14 135 -20 190 -33 332 -42 423 -65 670 -17 186
-30 319 -45 465 -28 271 -26 292 45 520 18 58 35 123 39 145 4 22 21 85 38
140 17 55 45 156 63 225 18 69 51 193 73 275 23 83 58 215 80 295 39 146 74
273 118 430 14 47 42 154 64 237 21 84 41 157 45 162 3 6 24 81 47 168 22 87
58 221 79 298 21 77 53 199 72 270 35 131 86 314 133 480 14 50 39 142 54 205
16 63 36 135 45 160 9 25 27 92 41 149 13 57 37 147 53 200 16 53 38 134 50
181 11 47 32 123 45 170 13 47 27 96 30 110 3 14 11 33 19 43 13 18 17 18 118
2 125 -20 165 -32 202 -59 16 -12 30 -16 35 -10 5 5 14 44 20 86 7 44 23 99
37 127 15 29 33 92 45 157 11 61 30 131 44 159 14 28 32 93 42 150 10 61 25
116 39 140 14 24 31 84 43 153 12 67 29 126 42 146 12 21 28 78 40 143 11 66
28 128 44 158 16 31 33 92 45 163 11 62 26 121 34 130 21 25 27 46 47 160 10
56 30 126 44 155 15 30 33 94 41 146 9 55 27 118 44 155 20 40 34 92 42 154 7
52 18 100 26 107 7 8 20 32 28 54 13 38 13 43 -11 83 -36 63 -38 66 -78 148
-20 42 -36 82 -36 90 0 8 -7 24 -15 34 -8 11 -15 29 -15 41 0 12 -7 30 -15 41
-8 10 -15 32 -15 47 0 15 -7 42 -16 59 -10 20 -17 66 -20 137 -2 58 -8 126
-14 151 -33 156 -31 414 4 578 18 84 25 98 60 131 36 34 69 22 136 -48 79 -83
216 -323 324 -566 15 -33 33 -73 41 -90 8 -16 29 -64 49 -106 19 -42 42 -79
50 -82 21 -8 43 1 50 19 3 8 21 21 39 29 90 38 111 -24 85 -258 -10 -99 -10
-111 6 -138 10 -17 16 -31 14 -33 -1 -1 -15 -8 -30 -15 -15 -8 -30 -22 -34
-33 -3 -10 -86 -83 -184 -163 -98 -80 -182 -150 -185 -155 -10 -16 -35 -12
-67 11 -28 20 -30 20 -42 3 -24 -32 -59 -209 -47 -232 82 -152 374 -533 606
-787 216 -237 592 -582 784 -720 106 -76 168 -124 181 -140 16 -19 13 -41 -40
-340 -17 -93 -50 -298 -75 -455 -93 -585 -107 -668 -136 -793 -38 -165 -80
-408 -80 -472 0 -27 -4 -72 -9 -100 -10 -58 -29 -179 -65 -424 l-27 -174 22
-29 21 -29 -40 -183 c-23 -101 -57 -287 -77 -412 -19 -126 -55 -320 -80 -431
-24 -111 -58 -291 -75 -400 -28 -189 -47 -287 -103 -543 -14 -63 -37 -191 -51
-285 -26 -161 -26 -173 -11 -220 8 -27 20 -72 26 -100 6 -27 81 -257 166 -510
85 -253 159 -473 164 -490 5 -16 70 -210 145 -430 75 -220 140 -413 145 -430
4 -16 14 -46 21 -65 6 -19 17 -51 24 -70 7 -19 18 -51 24 -70 7 -19 17 -48 21
-65 5 -16 83 -250 175 -520 91 -269 177 -526 191 -570 14 -44 32 -94 40 -112
8 -17 14 -38 14 -46 0 -8 7 -28 15 -43 8 -16 15 -37 15 -46 0 -10 6 -32 14
-50 7 -18 19 -49 25 -68 6 -19 49 -147 95 -285 46 -137 87 -263 90 -278 7 -30
31 -46 47 -30 6 6 17 37 25 69 9 32 24 73 34 89 10 17 25 56 34 87 9 32 25 72
36 90 10 18 24 56 31 83 6 28 20 64 29 80 10 17 26 57 35 90 9 33 25 74 34 90
10 17 28 63 40 103 12 39 30 86 40 104 10 18 24 58 31 88 7 30 21 66 30 80 9
14 29 67 44 119 23 82 25 100 16 150 -13 72 -24 155 -59 423 -6 40 -17 120
-26 178 -8 58 -20 139 -26 180 -6 41 -15 107 -20 145 -5 39 -14 105 -19 147
-5 43 -11 86 -14 95 -3 10 -10 56 -16 103 -6 47 -16 117 -21 155 -13 94 -26
194 -38 290 -6 43 -15 102 -20 130 -6 27 -15 91 -21 140 -6 50 -15 119 -20
155 -5 36 -15 103 -21 150 -6 47 -16 110 -21 140 -5 30 -14 88 -19 127 -5 40
-13 107 -19 148 -5 41 -14 108 -20 148 -5 39 -16 119 -25 177 -9 58 -20 137
-25 175 -5 39 -14 102 -19 140 -5 39 -15 108 -21 155 -6 47 -13 92 -16 101 -2
9 -9 54 -15 100 -6 46 -15 116 -20 154 -5 39 -14 102 -19 140 -5 39 -16 117
-25 175 -16 109 -29 206 -45 325 -5 39 -14 104 -19 145 -6 41 -14 100 -20 130
-5 30 -14 96 -21 145 -6 50 -16 114 -21 142 -6 29 -7 58 -3 64 10 16 79 5 246
-40 175 -48 433 -91 758 -126 206 -22 690 -20 925 4 61 6 146 15 190 19 44 5
85 11 91 15 6 3 40 9 75 13 35 3 72 10 81 15 9 5 32 9 51 9 19 0 54 7 77 15
23 8 59 15 79 15 20 0 41 4 46 9 6 5 33 14 60 20 28 5 75 15 105 21 30 7 60
15 65 20 6 5 28 11 49 16 22 4 51 13 65 20 14 8 33 14 42 14 9 0 30 7 45 15
16 8 38 15 49 15 11 0 26 9 33 20 7 11 19 20 28 20 9 0 30 6 47 14 32 13 128
49 159 59 19 7 19 7 58 262 17 110 56 349 86 530 83 500 225 1481 288 1990 8
66 27 210 41 320 24 184 37 295 79 665 9 74 27 254 41 400 14 146 31 292 39
325 8 33 17 96 21 140 3 44 15 159 26 255 10 96 23 265 29 375 6 110 17 279
26 375 22 233 26 1067 6 1180 -31 172 -62 312 -84 375 -5 17 -13 41 -16 55 -3
14 -14 38 -24 55 -10 16 -18 37 -18 45 0 44 -145 360 -220 480 -70 112 -187
267 -207 274 -9 4 -70 -20 -149 -59 -72 -36 -137 -65 -142 -65 -5 0 -23 -7
-38 -15 -16 -8 -38 -15 -49 -15 -12 0 -25 -4 -31 -10 -5 -5 -30 -14 -54 -19
-25 -5 -65 -13 -90 -19 -107 -25 -176 -32 -336 -32 -184 0 -287 14 -432 57
-48 14 -100 28 -117 30 -16 2 -60 8 -96 15 -56 9 -71 8 -95 -5 -16 -9 -72 -36
-124 -61 -272 -131 -473 -270 -685 -474 -124 -121 -255 -277 -328 -391 -66
-102 -89 -141 -111 -186 -14 -27 -30 -57 -35 -65 -5 -8 -26 -51 -46 -95 -49
-107 -49 -108 -66 -115 -8 -4 -28 -15 -46 -24 -17 -9 -40 -16 -50 -16 -11 0
-28 -7 -39 -15 -10 -8 -25 -15 -32 -15 -8 0 -28 -7 -45 -15 -42 -19 -116 -45
-147 -52 -14 -3 -34 -12 -45 -19 -11 -8 -28 -14 -38 -14 -10 0 -31 -6 -45 -14
-25 -12 -42 -19 -127 -48 -16 -6 -42 -17 -57 -24 -14 -8 -35 -14 -45 -14 -10
0 -27 -6 -38 -14 -11 -7 -31 -16 -45 -19 -31 -7 -105 -33 -147 -52 -17 -8 -37
-15 -45 -15 -7 0 -22 -6 -33 -14 -11 -7 -31 -16 -45 -19 -34 -7 -86 -26 -139
-50 -43 -19 -46 -20 -120 -2 -42 9 -103 28 -136 42 -33 13 -80 30 -104 37 -24
6 -49 19 -54 28 -10 14 30 158 110 398 14 41 34 109 44 150 11 41 31 104 44
140 13 36 31 94 40 130 9 36 27 94 40 130 13 36 33 99 44 140 10 41 30 109 44
150 14 41 44 136 67 210 23 74 59 190 81 257 21 67 39 129 39 138 0 9 16 58
35 109 19 52 32 101 29 110 -6 16 -114 54 -241 85 -43 10 -125 32 -183 49
-143 43 -261 76 -415 117 -71 19 -150 41 -175 50 -25 9 -83 25 -130 36 -47 11
-128 33 -180 49 -121 38 -240 71 -405 114 -71 19 -143 39 -160 46 -16 6 -82
25 -145 40 -63 16 -148 41 -189 55 -85 29 -93 29 -109 13z m-355 -1010 c-3 -8
-6 -5 -6 6 -1 11 2 17 5 13 3 -3 4 -12 1 -19z m-507 -1208 c12 -8 9 -10 -12
-10 -15 0 -30 5 -33 10 -8 13 25 13 45 0z m130 -15 c0 -17 -4 -18 -39 -8 -23
6 -23 7 -5 14 30 12 44 10 44 -6z m660 -965 c0 -5 -4 -10 -10 -10 -5 0 -10 5
-10 10 0 6 5 10 10 10 6 0 10 -4 10 -10z m2867 -826 c34 -9 35 -30 7 -108 -14
-39 -37 -118 -50 -174 -31 -130 -48 -172 -70 -172 -10 0 -55 26 -101 58 -47
31 -92 62 -102 67 -9 6 -43 28 -75 50 -75 51 -134 91 -170 113 -54 33 -67 47
-61 64 4 9 18 19 31 22 39 10 235 38 374 54 47 6 96 15 110 21 28 11 75 13
107 5z"/>
<path d="M14054 29970 c0 -102 2 -143 3 -92 2 50 2 134 0 185 -1 50 -3 9 -3
-93z"/>
<path d="M40195 30136 c-11 -8 -39 -16 -61 -16 -28 0 -44 -5 -48 -15 -3 -8
-15 -15 -26 -15 -21 0 -50 -50 -50 -87 0 -10 -14 -45 -30 -77 -17 -32 -30 -71
-30 -87 0 -49 -29 -163 -54 -211 -14 -28 -29 -82 -36 -135 -7 -56 -22 -110
-40 -148 -17 -35 -36 -101 -46 -160 -9 -57 -27 -120 -41 -147 -14 -26 -32 -93
-43 -156 -12 -65 -29 -127 -44 -153 -15 -27 -31 -84 -41 -149 -11 -67 -26
-120 -41 -146 -28 -47 -30 -67 -9 -84 8 -7 15 -23 15 -35 0 -26 87 -121 125
-135 14 -5 75 -15 136 -22 102 -11 112 -11 124 5 7 9 21 17 31 17 32 1 71 43
78 86 4 21 18 57 31 80 17 28 30 82 45 175 22 136 41 191 63 186 7 -1 13 12
15 33 6 87 24 192 42 242 11 29 19 45 20 36 0 -10 4 -18 9 -18 5 0 12 33 16
73 9 89 30 195 47 232 11 24 13 25 19 8 6 -16 7 -15 12 7 3 14 10 68 16 120 6
53 18 117 28 142 15 41 18 45 30 30 11 -15 12 -10 13 30 0 62 27 188 44 208
32 36 25 93 -15 144 -47 58 -85 96 -98 96 -8 0 -32 12 -53 26 -47 33 -123 43
-153 20z"/>
<path d="M14041 29636 c0 -11 -9 -29 -19 -40 -28 -32 -52 -121 -52 -196 l0
-67 61 -7 c34 -3 91 -6 127 -6 48 0 71 -5 85 -17 19 -17 19 -17 7 3 -13 20 -8
89 16 245 l6 36 -110 7 c-110 8 -111 8 -115 34 -2 17 -5 19 -6 8z"/>
<path d="M14412 29577 c-6 -7 -18 -66 -27 -132 -11 -78 -22 -127 -33 -140 -16
-19 -16 -19 1 -6 27 22 853 -5 882 -28 18 -15 19 -15 6 2 -12 15 -12 32 -3 95
6 42 14 102 18 133 l6 56 -123 6 c-68 4 -243 9 -389 12 -146 3 -279 8 -297 10
-17 2 -36 -2 -41 -8z"/>
<path d="M16390 29516 c-6 -6 -10 -25 -10 -43 0 -17 -4 -54 -9 -80 -5 -26 -12
-69 -15 -95 l-6 -48 89 0 c65 0 92 4 100 14 7 8 19 63 27 123 14 106 14 108
-7 125 -16 14 -37 17 -90 16 -38 -1 -74 -7 -79 -12z"/>
<path d="M13970 27496 l0 -326 338 2 c334 3 387 9 290 34 -71 18 -205 81 -266
125 -82 60 -117 94 -181 179 -54 71 -151 247 -151 275 0 7 -7 18 -15 25 -13
11 -15 -25 -15 -314z"/>
<path d="M12803 26902 c-471 -1 -723 -6 -723 -12 0 -13 -13 -12 160 -21 197
-11 388 -34 405 -50 5 -5 21 -9 36 -9 15 0 31 -4 34 -10 3 -5 15 -10 25 -10
61 0 240 -128 240 -171 0 -10 5 -21 10 -24 6 -3 10 -17 10 -30 0 -13 5 -27 10
-30 6 -3 10 -31 10 -61 0 -30 -4 -54 -10 -54 -6 0 -10 -28 -10 -65 0 -37 -4
-65 -10 -65 -6 0 -10 -28 -10 -63 0 -35 -4 -67 -9 -72 -5 -6 -11 -39 -15 -75
-6 -69 -30 -261 -47 -370 -5 -36 -14 -105 -19 -155 -5 -49 -14 -132 -20 -182
-49 -445 -51 -467 -72 -838 -5 -88 -13 -225 -19 -305 -5 -80 -12 -347 -15
-594 l-5 -448 169 7 169 7 8 -325 c4 -179 4 -331 0 -336 -8 -14 -301 -15 -310
-1 -10 17 -98 11 -121 -8 -22 -17 -28 -35 -45 -129 -5 -29 -13 -78 -19 -108
-10 -53 -16 -88 -39 -225 -6 -36 -14 -125 -17 -198 -6 -130 -6 -134 17 -159
l24 -25 190 8 c105 5 219 9 255 9 l65 0 3 -178 2 -178 143 3 142 3 3 170 c1
93 6 173 10 177 4 4 81 3 171 -1 120 -6 166 -12 172 -22 5 -8 9 -151 8 -319
l-1 -305 136 -3 136 -3 0 344 c0 307 2 346 16 358 55 46 89 161 65 222 -6 15
-27 37 -46 48 l-35 21 0 1004 c0 886 2 1004 15 1004 10 0 15 10 15 29 0 17 5
33 10 36 6 3 10 19 10 35 0 16 4 31 9 34 5 3 11 20 14 38 3 18 11 53 17 78 6
25 15 63 20 85 5 22 13 58 19 80 6 22 11 55 11 73 0 17 5 32 10 32 6 0 10 16
10 35 0 19 5 35 10 35 6 0 10 15 10 34 0 19 4 37 9 40 5 3 11 23 14 43 11 71
18 108 27 128 7 18 17 63 24 117 1 10 5 21 9 24 4 4 7 22 7 40 0 18 5 36 10
39 6 3 10 22 10 41 0 19 5 34 10 34 6 0 10 20 10 45 0 25 5 45 10 45 6 0 10
20 10 44 0 25 5 48 10 51 6 3 10 24 10 45 0 21 4 41 9 44 5 3 12 42 16 86 4
44 11 83 16 86 5 3 9 25 9 50 0 24 5 44 10 44 6 0 10 20 10 45 0 25 5 45 10
45 6 0 10 17 10 38 0 21 4 42 9 48 5 5 11 27 14 49 3 22 10 60 16 85 11 49 37
186 40 210 1 8 4 41 7 73 3 31 10 57 15 57 5 0 9 25 9 55 0 30 5 55 10 55 6 0
10 21 10 46 0 25 5 54 10 64 8 15 6 21 -9 30 -13 6 -208 10 -570 10 l-551 0 0
43 c0 43 26 131 54 185 19 37 19 39 4 43 -7 2 -338 3 -735 1z m846 -3710 l111
3 0 -400 c0 -220 -4 -405 -8 -411 -6 -9 -64 -34 -78 -34 -9 0 -3 25 10 39 23
28 37 81 25 102 -11 21 -49 25 -79 9 -21 -11 -60 -74 -61 -98 0 -11 -2 -12 -6
-4 -2 6 -8 10 -13 7 -5 -3 -19 9 -32 26 -39 52 -85 99 -96 99 -16 0 -23 143
-20 415 l3 250 55 5 c30 3 60 2 67 -3 6 -5 61 -7 122 -5z m47 -716 c7 -19 -19
-69 -63 -117 -38 -41 -63 -50 -63 -21 0 18 44 118 62 139 14 17 57 17 64 -1z
m59 -167 l0 -34 -72 -3 c-55 -2 -73 0 -73 10 0 21 106 71 135 64 6 -2 10 -18
10 -37z m2 -109 c1 -19 0 -29 -3 -22 -3 6 -11 12 -17 12 -21 1 -49 28 -42 40
4 6 19 10 33 8 23 -3 27 -8 29 -38z"/>
<path d="M9150 24130 l0 -2770 135 0 135 0 0 2770 0 2770 -135 0 -135 0 0
-2770z"/>
<path d="M10882 24128 l3 -2773 135 0 135 0 3 2773 2 2772 -140 0 -140 0 2
-2772z"/>
<path d="M11380 24130 l0 -2771 136 3 137 3 1 2767 1 2768 -137 0 -138 0 0
-2770z"/>
<path d="M38920 26836 c0 -2 16 -39 36 -82 19 -43 42 -94 51 -112 12 -29 13
-52 4 -155 -10 -122 -14 -143 -45 -289 -15 -72 -16 -84 -1 -165 46 -253 46
-348 -2 -453 -35 -77 -115 -177 -181 -225 -87 -64 -207 -115 -274 -115 -21 0
-35 -13 -74 -67 -26 -38 -60 -93 -75 -124 -16 -31 -36 -59 -45 -63 -8 -3 -559
-6 -1224 -6 -1142 0 -1209 1 -1214 18 -3 9 -5 285 -3 612 2 657 6 609 -60 698
-25 33 -98 92 -115 92 -4 0 -8 -46 -8 -103 0 -62 -6 -123 -15 -153 -20 -67
-131 -242 -216 -340 -84 -97 -99 -121 -135 -211 -93 -237 -162 -325 -299 -382
-112 -47 -223 -66 -304 -52 -36 5 -68 8 -71 5 -3 -3 -7 -47 -10 -97 l-5 -92
-3427 0 -3428 0 -2 -930 c-2 -511 -2 -933 0 -937 2 -5 2590 -8 5753 -8 l5749
0 -2 938 -3 937 -333 5 c-379 6 -365 1 -232 85 339 215 507 426 552 692 10 62
9 84 -6 155 -37 182 -49 281 -36 326 13 49 32 61 65 41 30 -18 157 -170 275
-329 51 -69 97 -127 102 -129 14 -5 60 21 50 28 -9 7 -74 108 -174 271 -332
540 -405 636 -536 696 -47 22 -82 30 -82 20z m-3172 -1184 c18 -45 44 -297 57
-535 5 -87 3 -111 -9 -122 -21 -22 -718 -22 -710 -1 3 8 16 17 30 20 85 22
238 120 316 203 53 57 76 98 117 213 55 150 137 269 175 254 8 -3 19 -17 24
-32z"/>
<path d="M15005 26616 c-17 -12 -18 -24 -11 -177 9 -204 8 -1507 0 -2500 l-7
-747 246 6 247 5 0 -289 c0 -242 2 -286 13 -274 25 27 277 487 277 505 0 10 9
25 19 34 16 14 247 419 432 756 l39 70 0 252 c0 210 2 254 15 267 8 8 15 21
15 30 0 8 4 17 9 20 5 3 11 20 14 38 3 18 10 56 17 83 13 59 20 96 27 148 3
20 9 40 14 43 5 3 9 23 9 44 0 21 5 42 10 45 6 3 10 21 10 40 0 19 5 37 10 40
6 3 10 23 10 44 0 20 4 41 9 47 10 10 15 40 31 184 6 52 15 103 20 112 6 10
10 38 10 62 0 25 5 48 10 51 6 3 10 28 10 54 0 26 4 51 9 57 5 5 12 36 15 69
3 33 10 95 16 138 5 42 14 110 19 150 5 39 12 86 16 102 3 17 10 98 16 180 5
83 12 186 15 229 4 59 2 81 -8 87 -7 5 -367 9 -799 9 -644 0 -788 -2 -804 -14z"/>
<path d="M17720 26549 c0 -39 3 -69 8 -67 94 48 152 72 204 86 43 12 64 23 66
35 3 15 -9 17 -137 17 l-141 0 0 -71z"/>
<path d="M19900 26101 l0 -169 131 -51 c73 -28 133 -50 135 -48 2 2 5 100 7
218 l2 214 -137 3 -138 3 0 -170z"/>
<path d="M20395 26261 c-4 -8 -8 -368 -5 -510 0 -5 60 -33 133 -61 72 -29 138
-54 145 -57 10 -4 12 60 10 313 l-3 319 -137 3 c-83 1 -139 -1 -143 -7z"/>
<path d="M22130 25681 c0 -324 -2 -596 -5 -603 -4 -11 68 -43 282 -127 l288
-112 28 33 c56 66 105 146 161 258 66 135 73 188 31 234 -21 23 -32 26 -85 26
-75 0 -100 -12 -192 -96 -83 -76 -182 -144 -209 -144 -18 0 -19 24 -21 558
l-3 557 -137 3 -138 3 0 -590z"/>
<path d="M14959 22527 c-17 -14 -29 -36 -32 -62 -4 -22 -11 -65 -16 -95 -6
-30 -15 -86 -21 -125 -6 -38 -14 -86 -17 -105 -3 -19 -6 -64 -8 -100 -1 -36
-7 -96 -14 -135 -26 -146 -25 -157 3 -187 20 -22 34 -28 68 -28 l43 0 230 411
c127 225 232 414 233 420 2 5 -74 9 -192 9 -119 0 -197 4 -201 10 -11 17 -49
11 -76 -13z"/>
<path d="M23679 22265 c-2 -2 -33 -5 -69 -6 -36 -2 -69 -5 -75 -8 -5 -2 -21
-6 -35 -8 -37 -4 -200 -52 -234 -69 -16 -8 -33 -14 -38 -14 -9 0 -63 -23 -198
-82 -25 -11 -58 -26 -75 -33 -92 -41 -181 -87 -230 -120 -47 -31 -69 -45 -85
-52 -8 -3 -58 -39 -110 -80 -52 -40 -106 -81 -119 -90 -67 -51 -232 -213 -337
-333 -53 -60 -134 -172 -174 -240 -185 -316 -272 -624 -274 -970 -1 -216 27
-339 117 -515 78 -151 273 -313 471 -389 53 -21 100 -36 103 -32 3 3 -13 28
-36 57 -56 71 -146 258 -166 349 -62 268 -16 573 150 995 55 141 171 365 188
365 7 0 18 -9 24 -19 10 -16 9 -24 -8 -45 -34 -44 -48 -89 -40 -128 11 -48 16
-55 48 -61 55 -10 113 59 113 136 0 63 -6 73 -59 109 -73 50 -73 47 4 157 l50
71 40 -5 c21 -3 55 -18 73 -33 82 -65 80 -64 102 -52 35 19 25 54 -29 99 -27
23 -63 46 -80 52 -17 6 -31 15 -31 21 0 50 288 319 423 394 152 86 320 150
417 159 38 4 39 3 29 -18 -6 -12 -17 -29 -24 -37 -34 -41 -56 -134 -57 -235 0
-171 61 -356 186 -562 65 -109 83 -134 234 -326 85 -110 213 -315 252 -405
l22 -52 -21 -50 c-12 -28 -30 -79 -41 -113 -20 -65 -37 -197 -26 -197 6 0 64
38 76 50 13 13 70 40 84 40 9 0 18 -10 20 -22 37 -177 34 -337 -11 -522 -15
-63 -19 -70 -52 -84 -20 -8 -65 -16 -99 -18 -35 -2 -69 -7 -75 -12 -100 -77
-174 -132 -207 -155 -23 -16 -39 -31 -36 -34 3 -4 69 -8 147 -9 161 -3 180
-10 152 -54 -31 -48 -95 -121 -186 -213 -49 -49 -86 -94 -84 -101 15 -40 194
-40 424 -1 21 3 52 8 68 10 45 5 332 81 395 104 30 11 82 29 115 41 106 38
253 108 275 130 3 3 21 13 40 23 66 34 72 38 143 99 153 133 227 267 227 414
0 23 -8 80 -19 126 -19 83 -49 227 -76 368 -21 107 -81 483 -100 625 -9 66
-20 147 -25 180 -5 33 -12 85 -15 115 -14 127 -78 430 -111 529 -75 224 -186
346 -382 419 -68 25 -105 34 -222 54 -63 11 -68 14 -159 99 -122 114 -244 177
-396 203 -45 8 -281 17 -286 11z"/>
<path d="M26981 20950 c-145 -352 -262 -643 -259 -646 3 -2 813 -337 1799
-743 987 -406 1826 -752 1866 -768 l72 -31 26 62 c178 423 502 1222 497 1227
-5 4 -3637 1501 -3724 1534 -10 4 -83 -163 -277 -635z m652 -39 c141 -60 181
-237 79 -344 -86 -91 -225 -93 -309 -5 -68 71 -81 159 -35 248 30 59 57 84
118 105 54 19 95 18 147 -4z m742 -115 c33 -13 61 -28 62 -33 2 -5 -50 -140
-116 -299 -65 -159 -117 -291 -116 -292 2 -2 84 -37 182 -77 196 -82 187 -73
150 -155 l-22 -48 -250 103 c-137 57 -250 108 -250 113 0 15 289 712 295 712
4 0 33 -11 65 -24z m612 -251 c31 -14 58 -27 60 -29 3 -3 -284 -707 -292 -715
-6 -5 -114 37 -129 50 -6 6 89 249 271 687 7 17 18 32 23 32 5 0 35 -11 67
-25z m226 -93 c37 -16 69 -31 72 -33 2 -3 5 -143 6 -312 0 -169 4 -307 7 -307
4 0 104 98 224 217 l217 217 70 -28 c39 -15 73 -31 75 -35 3 -4 -129 -141
-292 -304 l-297 -296 -75 32 -75 32 -3 423 c-1 232 -1 422 1 422 1 0 33 -13
70 -28z m1047 -432 c174 -72 264 -114 262 -122 -9 -34 -45 -108 -53 -108 -5 0
-98 36 -206 80 -107 45 -197 79 -198 78 -7 -10 -66 -160 -63 -162 2 -2 83 -35
181 -75 97 -41 177 -78 177 -85 0 -6 -10 -34 -22 -63 -26 -62 -1 -65 -226 28
-91 38 -166 67 -167 66 -1 -1 -17 -41 -36 -88 l-36 -86 204 -84 c226 -92 210
-77 171 -168 -11 -25 -23 -41 -31 -38 -152 59 -537 223 -535 227 2 4 68 165
148 358 79 194 149 352 155 352 6 0 130 -49 275 -110z"/>
<path d="M23392 20998 c-24 -24 -11 -45 53 -86 66 -42 96 -79 125 -156 18 -48
43 -66 68 -50 9 6 18 20 20 31 4 26 -42 131 -71 161 -78 84 -166 129 -195 100z"/>
<path d="M23130 20764 c0 -4 10 -23 21 -44 l22 -39 -26 -31 c-47 -55 -49 -140
-5 -173 26 -20 26 -20 60 1 43 27 78 89 78 137 0 33 -7 45 -62 96 -56 52 -88
71 -88 53z"/>
<path d="M22510 19965 c-15 -38 -12 -126 5 -174 28 -81 72 -128 164 -177 51
-27 93 -43 105 -40 11 3 33 -3 49 -12 22 -13 31 -14 34 -5 4 10 10 10 25 2 16
-8 23 -8 29 2 6 10 11 11 20 2 8 -8 18 -7 37 3 15 8 43 14 62 14 46 1 99 26
165 81 83 68 121 155 41 94 -48 -37 -88 -36 -291 6 -27 6 -61 12 -75 13 -25 3
-99 25 -175 52 -23 8 -51 14 -64 14 -32 0 -87 60 -95 104 -9 46 -23 54 -36 21z"/>
<path d="M21035 19585 c-105 -24 -184 -85 -231 -176 -23 -45 -28 -70 -32 -152
l-4 -98 -62 -28 c-33 -16 -79 -34 -101 -41 -22 -7 -44 -16 -50 -20 -5 -4 -53
-24 -105 -44 -52 -21 -108 -44 -125 -51 -16 -8 -61 -26 -100 -41 -38 -15 -94
-37 -123 -50 -29 -13 -54 -24 -57 -24 -2 0 -48 -21 -102 -46 -54 -25 -120 -56
-148 -69 -27 -12 -81 -37 -120 -55 -133 -61 -541 -302 -742 -438 -274 -186
-517 -386 -760 -627 -111 -110 -208 -201 -215 -203 -7 -1 -35 16 -63 38 -115
92 -170 137 -215 175 -26 22 -90 74 -141 115 -52 41 -199 169 -327 283 -129
115 -237 206 -240 203 -2 -3 7 -32 21 -63 48 -111 53 -101 -74 -167 -46 -24
-122 -64 -169 -88 l-86 -46 -34 18 c-19 10 -61 26 -92 35 -61 20 -88 12 -88
-24 0 -19 141 -257 248 -420 93 -141 387 -533 421 -561 3 -3 31 -34 60 -70 30
-36 82 -93 115 -128 l61 -63 -39 -72 c-22 -40 -90 -157 -152 -261 -63 -105
-112 -191 -110 -193 1 -2 51 7 110 19 101 20 108 23 123 52 41 81 187 316 196
316 5 0 31 -19 57 -42 57 -52 103 -88 193 -151 l69 -47 217 39 c477 87 724
118 807 101 101 -21 154 -100 139 -204 -4 -24 -1 -62 5 -86 14 -51 16 -132 6
-179 l-8 -33 53 6 c30 4 79 12 109 18 30 6 64 12 75 13 11 1 20 3 20 4 0 2 11
5 24 7 99 18 471 139 566 184 11 5 47 19 80 31 33 12 65 26 71 30 22 18 31
-18 43 -171 13 -170 34 -302 86 -545 53 -247 68 -378 62 -540 -5 -162 -23
-249 -80 -390 -55 -139 -87 -200 -238 -456 -127 -216 -374 -663 -588 -1067
-56 -106 -106 -190 -109 -188 -58 34 -2693 1536 -2695 1536 -3 0 -10 -43 -17
-96 l-13 -96 -43 -18 c-23 -10 -69 -24 -100 -29 -31 -6 -59 -13 -61 -15 -2 -2
25 -20 61 -40 46 -26 90 -40 153 -51 115 -20 197 -48 269 -91 77 -46 118 -86
157 -153 l32 -54 1052 -600 1053 -601 -47 -87 c-26 -49 -45 -90 -43 -92 3 -2
79 -45 170 -94 91 -50 525 -288 965 -530 2263 -1243 2906 -1595 2923 -1599 14
-4 21 3 30 34 7 22 12 48 12 58 -1 14 -101 76 -415 254 l-414 235 45 39 c69
59 89 105 89 203 0 45 2 80 5 78 3 -1 180 -102 394 -224 213 -122 390 -220
392 -218 3 2 18 56 33 118 31 123 43 176 120 544 11 55 28 132 36 170 26 116
82 461 100 605 9 74 18 144 20 155 4 18 23 206 41 405 11 119 7 663 -6 805
l-11 130 51 150 c28 83 60 175 70 205 10 30 30 82 45 115 15 33 44 103 65 155
78 191 225 517 386 852 57 119 109 229 114 243 10 28 28 29 42 4 4 -8 38 -95
74 -194 80 -216 225 -557 304 -715 104 -207 290 -494 398 -612 81 -90 119
-126 192 -183 101 -78 128 -91 235 -109 55 -10 114 -22 130 -27 61 -18 298
-26 437 -16 110 9 390 81 427 111 8 6 17 10 20 10 6 -2 28 6 79 28 15 6 29 12
32 13 37 13 161 72 245 118 175 96 206 115 430 267 59 40 182 135 243 188 24
20 48 39 53 40 5 2 22 16 37 30 15 15 65 61 111 102 137 122 292 282 287 296
-3 7 -22 16 -43 19 -21 4 -63 14 -93 22 -30 8 -71 19 -90 23 -19 5 -58 16 -87
24 -28 9 -61 16 -72 16 -11 0 -32 6 -47 12 l-27 12 6 111 c4 60 13 137 21 170
8 33 13 61 12 62 -2 3 -238 -111 -291 -139 -36 -20 -109 -55 -220 -107 -60
-29 -118 -56 -127 -61 -9 -5 -59 -26 -110 -46 -51 -20 -111 -44 -134 -54 -103
-47 -385 -132 -478 -145 -17 -2 -53 -8 -81 -14 -77 -16 -179 -20 -203 -7 -31
17 -54 51 -106 154 -154 308 -381 972 -564 1652 -90 333 -151 563 -187 710
-20 80 -44 163 -54 185 -10 23 -21 58 -25 80 -19 98 -104 231 -188 295 -57 43
-452 241 -528 265 -31 10 -67 30 -82 46 -15 16 -34 29 -43 29 -9 0 -44 11 -78
24 -34 13 -76 27 -94 31 l-32 6 6 -48 c4 -41 0 -61 -26 -120 -17 -39 -31 -73
-31 -75 0 -10 -114 -217 -145 -264 -19 -28 -45 -77 -60 -109 -14 -32 -36 -73
-49 -89 -12 -17 -44 -70 -70 -118 -26 -49 -49 -88 -52 -88 -2 0 -13 19 -25 43
-27 52 -87 127 -103 127 -6 0 -39 -55 -73 -123 -119 -235 -411 -833 -443 -907
-18 -41 -66 -142 -108 -225 -41 -82 -89 -188 -107 -235 -42 -110 -111 -270
-169 -390 -24 -52 -65 -142 -89 -200 -25 -58 -73 -170 -107 -250 -98 -229
-165 -390 -246 -595 -41 -104 -88 -220 -105 -256 -16 -36 -29 -69 -29 -73 0
-4 -34 -93 -76 -198 -42 -104 -84 -213 -94 -241 -43 -118 -90 -221 -105 -229
-10 -6 -33 -4 -63 5 -26 9 -60 18 -77 22 -16 3 -48 10 -70 14 -22 5 -76 18
-120 29 -44 11 -111 28 -150 37 -38 9 -83 20 -100 26 -30 9 -405 99 -500 120
-27 7 -56 13 -62 15 -18 5 -16 44 6 106 20 57 26 79 126 393 37 116 129 397
206 625 76 228 144 431 150 450 6 19 22 64 34 100 12 36 28 81 34 100 156 464
189 557 246 690 15 36 36 90 46 120 10 30 36 105 59 165 55 146 106 283 140
375 15 41 37 98 48 125 23 53 70 171 132 325 37 93 101 247 195 465 65 152 64
147 29 139 -38 -8 -148 -68 -174 -94 -25 -25 -50 -26 -50 -2 0 34 39 138 72
192 114 190 337 443 445 506 58 34 71 94 21 94 -12 0 -46 7 -77 16 -31 9 -72
19 -91 24 -19 4 -63 15 -96 23 -50 11 -67 12 -91 2 -17 -7 -102 -15 -203 -18
-96 -4 -188 -9 -205 -11 -16 -3 -55 -7 -85 -11 -30 -3 -66 -7 -80 -10 -14 -3
-41 -7 -60 -9 -20 -3 -47 -7 -60 -11 -14 -3 -38 -8 -55 -10 -16 -2 -30 -4 -30
-5 0 -1 -16 -3 -36 -5 -46 -5 -82 -30 -338 -233 -113 -89 -215 -170 -226 -178
-30 -24 -319 -237 -345 -254 -12 -8 -41 -29 -64 -46 -63 -46 -269 -180 -288
-187 -10 -4 -18 -10 -18 -16 0 -5 -8 -12 -17 -15 -10 -3 -27 -12 -38 -19 -11
-6 -63 -37 -115 -67 -52 -30 -103 -59 -112 -65 -54 -32 -269 -142 -328 -168
-107 -47 -140 -59 -271 -97 -167 -49 -203 -49 -354 1 -84 28 -380 184 -403
212 -6 7 -7 18 -3 26 4 7 80 85 167 173 166 167 495 441 689 574 55 37 141 95
190 129 77 53 274 169 442 261 26 15 53 30 58 34 9 6 205 97 410 190 39 17 89
40 112 51 24 10 46 19 49 19 3 0 20 6 37 14 18 8 66 28 109 45 42 16 97 39
121 50 25 12 49 21 52 21 6 0 116 46 170 70 11 5 46 19 78 31 l58 21 82 -41
c58 -29 96 -42 132 -43 73 -3 144 10 176 33 15 10 31 19 36 19 5 0 27 19 50
43 110 113 130 268 53 404 -68 120 -225 189 -355 158z"/>
<path d="M16380 16496 c0 -3 18 -29 40 -58 52 -69 96 -176 111 -269 10 -61 23
-93 55 -137 1 -2 12 -1 25 3 19 7 21 12 16 59 -7 69 -54 208 -84 248 -48 65
-163 174 -163 154z"/>
<path d="M14385 15408 c-50 -61 -94 -117 -98 -124 -4 -8 64 23 152 68 88 46
159 87 158 91 -1 4 -29 23 -62 42 l-60 34 -90 -111z"/>
<path d="M15773 14208 c-24 -50 -40 -94 -37 -99 3 -5 23 -18 44 -29 l39 -20
39 83 39 82 -26 28 c-49 54 -52 53 -98 -45z"/>
<path d="M15971 14114 c-17 -31 -29 -59 -27 -62 3 -2 47 -1 98 3 l94 7 20 38
21 38 -61 11 c-34 6 -73 13 -87 17 -24 5 -29 0 -58 -52z"/>
<path d="M47725 9933 c-11 -3 -24 -9 -29 -14 -6 -5 -19 -9 -30 -9 -23 0 -119
-46 -166 -80 -45 -32 -66 -83 -80 -190 -25 -208 -43 -297 -70 -360 -15 -36
-31 -80 -35 -99 -4 -18 -18 -49 -31 -68 -13 -20 -24 -41 -24 -48 0 -15 -64
-98 -116 -150 -50 -50 -159 -125 -182 -125 -9 0 -26 -7 -36 -15 -11 -8 -32
-15 -47 -15 -15 0 -40 -5 -56 -11 -26 -11 -76 -19 -230 -37 -34 -4 -68 -13
-75 -20 -6 -6 -24 -12 -38 -12 -14 0 -38 -11 -53 -25 -21 -21 -27 -35 -27 -68
1 -71 27 -91 150 -117 58 -12 133 -32 166 -45 34 -13 99 -31 145 -40 46 -10
119 -30 161 -46 43 -16 108 -34 145 -40 38 -6 104 -24 147 -40 102 -37 113
-37 130 5 8 18 19 37 25 40 6 4 18 22 27 41 9 19 20 35 25 35 5 0 15 12 23 28
26 49 187 221 261 277 14 11 34 28 43 38 9 9 22 17 29 17 6 0 16 6 20 13 8 13
68 57 78 57 3 0 28 16 56 35 27 20 60 40 72 46 107 49 218 145 267 234 31 53
34 67 34 140 0 92 -15 190 -32 207 -7 7 -12 20 -12 30 0 19 -68 150 -113 218
-68 101 -119 152 -187 184 -60 28 -74 30 -190 33 -69 1 -134 -1 -145 -4z"/>
</g>
</svg>
