<?xml version="1.0" standalone="no"?>
<!DOCTYPE svg PUBLIC "-//W3C//DTD SVG 20010904//EN"
 "http://www.w3.org/TR/2001/REC-SVG-20010904/DTD/svg10.dtd">
<svg version="1.0" xmlns="http://www.w3.org/2000/svg"
 width="5906.000000pt" height="5906.000000pt" viewBox="0 0 5906.000000 5906.000000"
 preserveAspectRatio="xMidYMid meet">

<g transform="translate(0.000000,5906.000000) scale(0.100000,-0.100000)"
fill="#000000" stroke="none">
<path d="M20340 47460 l-2115 -5 -40 -27 c-23 -16 -53 -28 -71 -28 -21 0 -42
-10 -62 -27 -16 -16 -38 -33 -48 -39 -11 -7 -18 -19 -16 -27 1 -9 -7 -18 -18
-22 -11 -3 -20 -9 -20 -13 0 -4 -16 -25 -35 -46 -27 -31 -35 -48 -35 -78 0
-24 -8 -50 -21 -68 -35 -46 -36 -116 -5 -178 14 -28 26 -65 26 -82 0 -23 4
-30 20 -30 13 0 20 -7 20 -18 0 -10 3 -22 8 -26 4 -4 7 -11 7 -14 3 -31 19
-53 38 -50 30 3 46 -9 40 -31 -5 -20 28 -47 41 -33 4 3 4 -1 1 -10 -9 -23 31
-48 77 -48 21 0 63 -12 94 -26 l56 -25 1981 3 c1090 2 1991 0 2003 -5 16 -5
31 1 63 25 l43 33 1 327 2 327 33 30 c31 29 32 33 32 106 0 71 2 76 25 87 29
13 33 29 8 26 -10 -2 -970 -5 -2133 -8z m598 -19 c947 -1 1432 -4 1432 -11 0
-7 -500 -10 -1480 -10 -814 0 -1480 4 -1480 8 0 16 12 20 53 17 23 -1 687 -3
1475 -4z"/>
<path d="M43304 47461 c-13 -14 1 -48 31 -77 l35 -33 0 -394 0 -394 35 -32 35
-31 2047 2 2048 3 57 28 c31 15 68 27 82 27 16 0 26 6 26 15 0 10 10 15 30 15
18 0 33 6 36 15 4 8 11 15 18 15 19 0 65 48 86 90 11 22 27 40 34 40 15 0 26
30 26 76 0 16 7 39 15 50 8 10 15 40 15 66 0 25 5 48 11 50 14 5 -8 83 -28 99
-7 6 -13 30 -13 53 0 33 -7 50 -31 77 -17 19 -37 47 -45 62 -8 15 -28 36 -44
46 -16 9 -39 29 -50 44 -17 22 -30 27 -63 27 -28 0 -53 8 -81 28 l-39 27 -731
2 c-1599 6 -3538 8 -3542 4z"/>
<path d="M16579 46422 c-8 -9 -327 -134 -707 -277 l-692 -260 -867 -1582 -866
-1583 -992 0 c-633 0 -1012 -4 -1046 -10 -180 -34 -325 -179 -359 -359 -14
-73 -14 -1709 0 -1782 34 -180 179 -325 359 -359 30 -5 189 -10 353 -10 251 0
299 -2 295 -14 -3 -7 -145 -268 -316 -580 l-310 -566 59 -848 c33 -466 60
-857 60 -870 0 -13 -8 -25 -17 -28 -51 -16 -151 -57 -188 -77 -11 -6 -31 -16
-45 -24 -92 -47 -227 -179 -292 -285 -36 -59 -85 -190 -105 -279 -25 -110 -21
-389 6 -534 41 -215 91 -393 144 -515 9 -19 32 -73 51 -120 89 -214 232 -454
336 -562 116 -120 150 -108 171 62 17 143 5 277 -31 348 -55 109 -70 162 -70
245 0 74 2 80 30 109 29 29 34 30 83 24 29 -4 76 -21 106 -38 40 -23 70 -32
121 -36 l68 -5 45 42 c26 25 52 60 61 84 89 250 108 288 169 338 88 71 157 87
432 100 127 6 242 11 257 11 16 -1 88 8 160 19 73 12 149 23 168 26 19 3 53
13 76 24 22 10 47 19 55 19 8 0 31 11 51 25 20 14 44 25 53 25 8 0 105 -43
215 -97 l200 -96 0 -2009 c0 -1695 2 -2019 14 -2071 26 -114 36 -168 36 -197
0 -25 12 -39 80 -89 44 -33 92 -67 107 -76 16 -8 48 -31 73 -49 25 -19 77 -56
115 -83 39 -27 94 -66 123 -87 l52 -38 0 2201 c0 1211 3 2201 6 2201 3 0 879
-423 1946 -941 1067 -518 1944 -937 1948 -933 5 5 224 401 488 879 263 479
1398 2535 2520 4570 1123 2035 2043 3707 2046 3715 4 12 -437 230 -1892 935
-1043 505 -2237 1084 -2652 1286 -415 201 -1025 497 -1355 656 -330 160 -665
323 -745 362 -175 86 -172 85 -191 63z m3175 -2123 c1670 -810 3036 -1476
3036 -1480 0 -10 -4501 -8172 -4515 -8188 -11 -11 -525 235 -3059 1465 -1754
851 -3045 1483 -3044 1490 2 7 1018 1853 2258 4103 1753 3181 2259 4090 2272
4087 9 -2 1382 -667 3052 -1477z"/>
<path d="M45160 43360 c0 -19 10 -41 25 -58 14 -15 25 -32 25 -38 0 -7 7 -14
15 -18 8 -3 15 -14 15 -25 0 -11 3 -21 8 -23 8 -4 52 -65 52 -73 0 -3 24 -40
53 -83 29 -43 56 -84 60 -92 4 -8 16 -28 27 -45 11 -16 23 -38 26 -47 4 -10
10 -18 14 -18 4 0 12 -10 19 -22 6 -13 20 -36 31 -53 11 -16 23 -38 26 -47 4
-10 9 -18 13 -18 3 0 17 -20 31 -45 14 -25 28 -45 31 -45 4 0 10 -8 13 -17 7
-20 15 -34 71 -118 49 -74 62 -96 71 -115 4 -8 10 -17 14 -20 3 -3 17 -23 30
-45 13 -22 17 -34 10 -27 -8 6 -30 12 -50 12 -20 0 -45 7 -56 15 -10 8 -35 15
-54 15 -19 0 -48 7 -64 15 -15 8 -43 15 -60 15 -18 0 -41 7 -52 15 -10 8 -35
15 -54 15 -19 0 -48 7 -64 15 -15 8 -42 15 -58 15 -16 0 -39 5 -51 12 -12 6
-43 15 -69 18 l-48 6 0 -1728 0 -1728 38 0 c21 0 47 7 58 15 10 8 35 15 54 15
19 0 46 7 60 15 14 8 41 14 61 15 19 0 44 7 55 15 10 8 35 15 54 15 19 0 46 7
60 15 14 8 39 14 55 15 17 0 43 7 59 15 15 8 40 15 55 15 14 0 38 7 54 14 15
8 27 13 27 10 0 -5 -40 -64 -50 -74 -8 -8 -29 -43 -37 -60 -3 -8 -19 -31 -35
-51 -15 -20 -28 -44 -28 -53 0 -9 -5 -16 -10 -16 -6 0 -15 -10 -20 -22 -10
-22 -26 -50 -43 -72 -23 -31 -97 -150 -97 -156 0 -4 -13 -23 -30 -41 -16 -19
-30 -40 -30 -48 0 -7 -13 -30 -30 -51 -16 -21 -30 -40 -30 -43 0 -3 -24 -42
-54 -86 -30 -44 -57 -90 -61 -101 -3 -11 -10 -20 -13 -20 -4 0 -16 -17 -27
-37 -11 -21 -32 -54 -47 -74 -15 -20 -28 -42 -28 -49 0 -6 -4 -8 -10 -5 -6 4
-10 -12 -10 -39 l0 -46 478 0 478 0 19 33 c26 44 152 240 163 253 5 6 13 20
16 32 4 12 12 22 17 22 5 0 9 7 9 15 0 9 7 18 15 21 8 4 15 13 15 21 0 8 12
32 28 52 36 48 51 72 58 94 4 9 10 17 14 17 5 0 12 10 16 22 3 12 11 26 16 32
16 20 98 146 98 152 0 4 13 23 29 43 15 20 31 46 35 59 4 12 11 22 16 22 4 0
11 8 14 18 8 21 18 37 81 132 28 41 68 104 90 140 21 36 41 67 44 70 7 6 28
38 41 65 6 11 28 47 49 80 l38 60 449 3 449 2 -3 -462 c-1 -255 0 -473 3 -485
l5 -23 230 0 230 0 2 -7947 3 -7947 519 -118 c286 -65 520 -117 521 -115 1 1
-16 2716 -36 6032 -22 3497 -38 6883 -38 8060 l-1 2030 230 3 230 2 0 485 0
485 284 0 c225 0 290 3 313 14 15 8 46 23 68 33 50 23 192 163 206 203 6 16
15 30 20 30 5 0 9 12 9 26 0 14 7 32 15 41 14 13 15 120 13 901 -2 697 -6 886
-15 890 -7 2 -13 14 -13 27 0 12 -7 28 -15 35 -8 7 -15 21 -15 32 0 10 -7 21
-15 24 -8 4 -15 12 -15 20 0 8 -3 14 -7 14 -5 0 -21 20 -36 45 -60 94 -168
170 -277 193 -41 9 -481 13 -1695 15 -902 2 -1647 7 -1657 11 -9 4 -19 15 -22
24 -3 9 -14 29 -23 43 -10 15 -36 55 -57 90 -22 35 -43 66 -47 69 -3 3 -9 15
-13 28 -4 12 -12 22 -17 22 -5 0 -9 5 -9 10 0 10 -37 68 -51 80 -3 3 -9 12
-12 20 -4 8 -16 29 -27 45 -11 17 -23 38 -26 48 -4 9 -10 17 -14 17 -5 0 -12
10 -16 23 -4 12 -20 38 -35 58 -16 20 -29 40 -29 43 0 4 -24 41 -53 84 -29 43
-56 84 -60 92 -4 8 -16 29 -27 45 -11 17 -23 37 -27 45 -3 8 -18 31 -32 50
-14 19 -31 44 -38 55 -57 92 -88 141 -94 145 -3 3 -9 15 -13 28 -4 12 -11 22
-16 22 -4 0 -10 8 -14 18 -3 9 -15 31 -26 47 -11 17 -23 38 -26 47 -3 9 -12
19 -20 22 -8 3 -14 15 -14 26 0 20 -4 20 -490 20 l-490 0 0 -30z"/>
<path d="M25809 37875 c-313 -63 -548 -253 -626 -508 -25 -81 -23 -245 5 -333
26 -84 86 -179 144 -227 l41 -34 -66 -85 c-184 -242 -280 -479 -322 -799 -27
-201 -16 -437 26 -559 80 -236 243 -452 628 -834 111 -110 201 -207 201 -215
0 -9 -7 -29 -15 -45 -9 -16 -13 -31 -10 -34 3 -3 54 -18 113 -33 100 -26 108
-27 120 -11 30 38 53 95 64 161 15 88 3 165 -53 352 -57 188 -69 244 -69 324
0 170 64 292 282 536 176 196 253 320 282 451 14 64 246 175 445 213 137 27
310 18 429 -21 221 -73 382 -269 382 -467 0 -53 2 -58 16 -46 28 23 73 125 85
193 24 131 -21 259 -128 363 l-64 62 12 67 c32 185 -28 408 -145 541 -63 71
-144 102 -346 133 -92 14 -394 12 -525 -4 -60 -7 -113 -11 -118 -9 -14 8 4 23
27 23 32 0 66 40 66 77 0 43 -114 372 -163 471 -83 168 -197 255 -392 298 -75
17 -239 16 -326 -1z"/>
<path d="M33356 37515 c-15 -15 -23 -48 -28 -113 -3 -32 -5 -33 -103 -67 -143
-49 -313 -136 -374 -191 -30 -27 -64 -71 -81 -103 -31 -63 -76 -106 -201 -197
-102 -74 -265 -219 -303 -268 -44 -59 -83 -155 -96 -239 -16 -110 3 -249 55
-402 22 -63 62 -155 75 -170 6 -7 12 -84 14 -172 3 -89 9 -178 14 -199 6 -22
16 -64 22 -94 55 -255 224 -535 436 -722 137 -121 319 -227 479 -278 39 -13
75 -26 81 -31 10 -8 22 -64 44 -204 6 -38 15 -95 20 -125 5 -30 14 -89 21
-130 6 -41 13 -86 15 -99 5 -25 6 -25 84 -3 19 6 80 22 135 36 88 23 138 37
275 76 140 40 514 140 524 140 7 0 19 6 28 13 12 10 14 26 7 92 -15 168 -29
291 -35 326 -6 37 -6 37 88 107 148 111 294 272 382 422 15 25 29 53 33 63 9
29 30 19 84 -43 29 -33 56 -57 59 -53 7 7 15 60 41 276 5 42 13 112 18 155 20
158 40 351 51 472 6 69 15 172 20 230 6 58 10 191 10 295 0 330 -40 448 -220
650 -35 39 -73 94 -86 122 -35 78 -53 79 -228 11 -94 -37 -154 -41 -186 -13
-31 27 -57 89 -66 152 l-6 51 -87 0 c-101 -1 -155 19 -251 91 -70 54 -98 61
-121 32 -10 -12 -19 -27 -21 -33 -3 -9 -34 -9 -129 0 -186 17 -304 50 -391
110 -58 40 -82 46 -102 27z"/>
<path d="M25134 34167 c-3 -8 -4 -49 -2 -92 l3 -79 63 -23 c175 -62 258 -144
447 -441 50 -77 93 -141 98 -141 4 -1 6 176 5 392 l-3 392 -303 3 c-247 2
-303 0 -308 -11z"/>
<path d="M34650 33962 c-7 -3 -10 -352 -10 -1022 0 -961 -1 -1020 -17 -1028
-10 -5 -85 -12 -168 -16 -82 -3 -233 -10 -335 -16 -102 -5 -268 -14 -370 -19
-102 -6 -236 -13 -297 -17 l-113 -7 -2 804 -3 804 -305 0 -305 0 -2 -815 c-3
-661 -5 -817 -16 -825 -15 -11 -11 -173 29 -1162 7 -171 5 -168 76 -129 24 13
93 49 153 81 61 32 178 94 260 138 263 139 307 163 450 237 77 40 146 78 153
83 17 14 20 10 87 -118 76 -145 216 -409 271 -512 191 -357 244 -500 275 -747
11 -95 7 -302 -7 -368 -4 -16 -2 -28 3 -28 6 0 133 60 284 133 151 74 337 165
414 202 77 37 246 119 375 182 129 63 268 131 308 150 39 19 72 39 72 43 0 11
-32 107 -90 270 -28 80 -60 170 -70 200 -10 30 -25 73 -33 95 -20 53 -54 149
-182 515 -123 351 -159 455 -185 525 -30 80 -71 197 -83 235 -8 24 -13 352
-17 1083 l-5 1048 -293 2 c-160 1 -297 1 -302 -1z"/>
<path d="M38880 32990 l0 -740 145 0 145 0 0 495 0 495 145 0 145 0 0 245 0
245 -290 0 -290 0 0 -740z"/>
<path d="M27050 32870 c0 -736 -1 -801 -17 -807 -9 -3 -108 -1 -221 6 -112 7
-206 10 -209 7 -8 -8 -2 -18 132 -221 68 -104 173 -265 232 -357 93 -144 112
-168 133 -168 34 1 709 195 722 208 6 6 13 44 15 84 4 66 1 84 -35 185 -45
128 -86 203 -113 210 -18 5 -19 32 -21 827 l-3 821 -307 3 -308 2 0 -800z"/>
<path d="M17728 33244 c-3 -2 -196 -7 -429 -9 -233 -2 -678 -7 -989 -11 -311
-3 -651 -7 -756 -8 -219 -2 -230 -5 -219 -65 4 -20 9 -101 11 -181 2 -80 6
-215 10 -300 4 -85 7 -171 7 -190 2 -118 47 -1353 51 -1391 3 -31 0 -53 -10
-67 -15 -22 -16 -32 -8 -202 3 -63 8 -185 10 -270 5 -164 22 -296 39 -294 5 1
20 22 33 48 19 38 28 46 51 46 28 0 58 -26 80 -67 23 -44 56 -28 126 61 176
225 457 529 539 582 23 15 53 35 67 45 26 17 55 24 91 21 9 -1 26 -22 38 -47
20 -40 21 -55 15 -128 -11 -126 -49 -303 -84 -390 -17 -43 -31 -84 -31 -91 0
-7 -13 -37 -29 -67 -16 -30 -36 -81 -46 -114 -29 -99 -45 -137 -71 -168 -13
-16 -24 -34 -24 -41 0 -7 -9 -21 -20 -31 -11 -10 -22 -27 -26 -39 -4 -11 -20
-37 -35 -56 -16 -19 -39 -48 -52 -63 -12 -16 -34 -41 -49 -57 -16 -15 -28 -31
-28 -35 0 -3 -23 -28 -51 -55 -49 -47 -51 -51 -43 -87 4 -21 9 -105 11 -188 1
-82 3 -172 4 -200 1 -27 1 -97 1 -155 -1 -58 -1 -136 0 -175 1 -38 2 -101 0
-140 -1 -38 1 -151 3 -250 3 -99 4 -220 3 -270 -1 -49 -1 -116 0 -147 5 -141
6 -207 4 -268 -1 -36 1 -148 4 -250 2 -102 4 -223 2 -270 -3 -119 -1 -185 7
-255 4 -33 2 -85 -3 -115 -6 -30 -7 -59 -2 -63 4 -5 26 -2 48 5 61 21 288 1
308 -27 12 -16 14 -124 15 -649 0 -347 2 -1049 4 -1561 9 -2308 8 -2555 -10
-2620 -10 -33 -21 -65 -25 -70 -5 -6 -21 -46 -35 -90 -15 -44 -34 -93 -42
-108 -8 -16 -25 -59 -38 -95 -54 -155 -93 -259 -104 -280 -7 -13 -23 -53 -35
-90 -54 -153 -93 -259 -108 -287 -9 -16 -19 -46 -23 -65 -4 -19 -18 -55 -30
-80 -13 -25 -28 -66 -35 -90 -7 -25 -22 -68 -35 -96 -13 -28 -29 -71 -35 -95
-7 -24 -15 -48 -20 -54 -7 -10 -53 -128 -111 -290 -16 -44 -33 -89 -39 -100
-10 -20 -48 -124 -102 -275 -16 -47 -34 -89 -38 -95 -4 -5 -16 -37 -25 -70
-10 -33 -28 -80 -40 -105 -12 -25 -26 -59 -29 -76 -4 -18 -23 -67 -41 -110
-19 -44 -35 -85 -35 -92 0 -7 -11 -37 -24 -66 -14 -29 -30 -72 -36 -96 -32
-119 -35 -105 -40 206 l-5 299 -232 3 -233 2 0 285 0 285 -120 0 -120 0 0
4091 c0 2250 -3 4089 -7 4087 -5 -2 -48 -23 -98 -47 -49 -24 -110 -52 -135
-63 -47 -20 -101 -44 -160 -71 -19 -9 -47 -19 -63 -23 -15 -3 -30 -10 -33 -15
-3 -5 -12 -9 -21 -9 -8 0 -30 -7 -49 -16 l-34 -16 0 -3959 0 -3959 -65 0 -66
0 3 -285 3 -285 -232 0 -233 0 0 -505 0 -505 37 0 37 0 -36 -37 c-19 -21 -60
-72 -90 -113 -30 -41 -62 -81 -71 -89 -9 -7 -17 -18 -17 -23 0 -10 -55 -84
-76 -103 -6 -5 -36 -44 -67 -87 l-56 -76 -11 -224 c-6 -122 -15 -294 -21 -381
-6 -87 -14 -256 -19 -375 -5 -119 -12 -264 -15 -322 -3 -58 -2 -98 1 -90 8 16
58 83 87 115 10 11 37 46 59 78 23 31 45 57 49 57 5 0 9 6 9 14 0 8 3 16 8 18
4 2 25 28 46 58 21 30 45 59 52 63 8 4 14 15 14 22 0 8 4 15 9 15 5 0 23 22
39 48 16 26 36 54 44 62 7 8 43 53 78 100 35 47 66 87 69 90 4 3 18 23 33 45
15 22 42 56 59 75 17 19 43 53 57 75 15 22 29 42 32 45 18 16 100 130 100 139
0 6 5 11 10 11 7 0 10 -358 10 -1055 l0 -1055 95 0 c69 0 95 -3 95 -12 0 -7
-12 -40 -26 -73 -14 -33 -36 -89 -49 -125 -72 -199 -85 -235 -100 -266 -8 -18
-27 -65 -40 -104 -62 -175 -74 -208 -98 -261 -14 -31 -28 -72 -32 -90 -4 -19
-18 -54 -30 -79 -13 -25 -28 -65 -35 -89 -6 -24 -22 -67 -35 -95 -13 -28 -29
-71 -35 -96 -7 -25 -19 -58 -28 -75 -15 -28 -31 -70 -101 -264 -16 -46 -36
-97 -44 -115 -8 -17 -22 -56 -32 -86 -20 -64 -49 -100 -80 -100 -12 0 -42 13
-66 30 -24 16 -49 30 -55 30 -10 0 -27 14 -98 78 -10 9 -46 51 -80 93 -78 95
-181 189 -208 189 -5 0 -33 11 -61 24 -29 13 -75 28 -103 34 -56 12 -258 5
-287 -10 -10 -5 -39 -13 -65 -18 -26 -4 -63 -14 -82 -20 -90 -32 -118 -43
-155 -60 -22 -10 -61 -28 -86 -40 l-46 -20 -6 -68 c-5 -47 -2 -82 8 -117 10
-30 13 -66 9 -91 -3 -25 0 -61 10 -94 9 -31 14 -68 10 -87 -3 -17 2 -72 11
-120 l17 -88 102 -1 c55 0 279 -4 496 -8 637 -12 783 -14 1200 -21 217 -3 411
-7 430 -8 l35 -2 3 59 c2 32 -2 64 -7 69 -6 6 -11 18 -11 27 0 9 -19 32 -42
50 -51 42 -136 62 -358 86 -85 9 -161 21 -167 27 -18 14 -16 29 12 91 14 30
25 60 25 66 0 6 11 35 24 63 24 50 45 99 107 255 16 39 42 105 58 145 59 145
83 203 112 268 16 36 29 71 29 78 0 6 14 38 30 71 17 33 30 66 30 73 0 7 11
36 25 63 14 27 32 72 41 99 9 28 27 71 40 97 13 26 24 53 24 61 0 7 9 31 20
52 12 22 32 71 46 110 14 38 29 74 34 80 4 5 18 39 30 75 12 36 27 74 34 85 7
11 19 38 26 60 7 22 21 57 32 78 l18 37 200 0 200 0 0 493 c1 454 2 496 19
542 27 73 69 173 96 230 13 28 27 64 31 80 4 17 20 55 36 86 15 31 28 63 28
70 0 8 11 36 24 62 14 26 32 71 42 100 9 29 18 54 20 56 6 7 69 -67 111 -129
21 -30 43 -59 49 -65 6 -5 31 -37 54 -70 24 -33 52 -68 63 -79 10 -10 34 -43
53 -72 19 -29 42 -61 53 -71 10 -10 44 -54 76 -98 32 -44 64 -84 70 -90 6 -5
23 -29 38 -52 l27 -43 434 0 435 0 6 -55 c4 -30 5 -67 2 -82 -3 -15 3 -277 13
-582 11 -305 17 -557 15 -561 -2 -3 3 -190 11 -415 7 -226 15 -520 18 -655 3
-135 10 -431 17 -658 12 -388 14 -414 32 -423 10 -6 26 -7 35 -3 9 3 55 10
102 15 131 12 214 24 225 31 11 7 11 92 1 848 -9 653 -15 1108 -21 1575 -3
215 -7 566 -10 780 -3 215 -7 561 -10 770 -3 209 -7 556 -10 770 -5 381 -10
815 -20 1535 -4 273 -2 361 8 380 12 24 16 25 122 28 159 3 164 -1 249 -213
20 -49 43 -103 50 -120 7 -16 23 -55 36 -85 12 -30 26 -64 31 -75 4 -11 20
-49 34 -85 14 -36 30 -74 35 -85 5 -11 25 -58 44 -105 72 -176 107 -263 142
-347 19 -49 48 -119 64 -158 16 -38 47 -115 70 -170 23 -55 45 -109 50 -120 5
-11 19 -45 30 -75 12 -30 28 -68 35 -85 8 -16 30 -70 50 -120 20 -49 52 -126
70 -170 18 -44 47 -116 65 -160 18 -44 41 -98 50 -120 10 -22 29 -69 43 -105
14 -36 40 -99 57 -140 17 -41 35 -84 39 -95 5 -11 19 -45 31 -75 12 -30 26
-64 31 -75 4 -11 25 -63 47 -115 22 -52 56 -135 76 -185 77 -187 100 -243 138
-335 22 -52 43 -104 47 -115 5 -11 18 -42 29 -70 11 -27 37 -90 57 -140 20
-49 40 -99 45 -110 5 -11 19 -45 30 -75 12 -30 28 -68 35 -85 8 -16 30 -70 50
-120 21 -49 52 -126 70 -170 19 -44 50 -120 70 -170 20 -49 42 -103 49 -120 7
-16 23 -55 36 -85 12 -30 26 -64 31 -75 4 -11 20 -49 34 -85 14 -36 30 -74 35
-85 5 -11 19 -45 31 -75 11 -30 27 -68 35 -85 7 -16 29 -69 49 -117 41 -103
95 -235 135 -333 25 -60 93 -225 119 -290 5 -11 18 -42 29 -70 11 -27 44 -106
72 -175 57 -136 100 -241 150 -365 18 -44 41 -98 50 -120 10 -22 36 -85 58
-140 68 -170 80 -193 104 -208 34 -22 368 -33 368 -13 0 8 -16 52 -36 97 -19
46 -47 113 -61 149 -13 36 -41 103 -60 150 -19 47 -48 119 -65 160 -38 95 -68
169 -79 195 -8 19 -86 212 -107 265 -5 14 -18 45 -28 70 -10 25 -25 63 -34 85
-9 22 -24 60 -34 85 -18 46 -52 128 -67 165 -4 11 -20 49 -34 85 -14 36 -30
74 -34 85 -27 66 -52 127 -71 175 -11 30 -25 64 -30 75 -5 11 -21 49 -35 85
-14 36 -30 74 -34 85 -27 66 -52 127 -71 175 -11 30 -25 64 -30 75 -6 11 -21
50 -35 87 -14 38 -29 76 -34 85 -6 10 -49 117 -96 238 -47 121 -90 228 -96
238 -5 9 -20 47 -34 85 -14 37 -29 76 -35 87 -5 11 -19 45 -31 75 -11 30 -31
80 -44 110 -13 30 -35 87 -50 125 -15 39 -35 88 -45 110 -9 22 -24 60 -34 85
-10 25 -23 56 -28 70 -21 53 -99 246 -107 265 -14 34 -48 116 -81 200 -59 148
-72 180 -85 210 -20 46 -96 235 -111 275 -7 19 -31 80 -54 135 -23 55 -48 117
-56 139 -8 21 -25 64 -38 95 -14 31 -50 121 -82 201 -31 80 -60 149 -65 155
-5 5 -9 16 -9 25 0 8 -7 29 -16 45 -9 17 -20 41 -24 55 -16 49 -126 325 -140
351 -4 8 -20 47 -35 85 -30 78 -107 270 -136 339 -20 49 -103 254 -119 295
-16 41 -27 69 -51 125 -78 183 -93 247 -63 259 9 4 768 6 1686 6 l1670 -1 51
25 c29 13 66 29 83 34 34 11 154 98 154 112 0 5 12 22 26 39 36 43 94 213 94
277 0 67 -56 225 -101 285 -41 55 -154 149 -179 149 -10 0 -48 11 -85 25 -58
22 -88 26 -226 31 -175 5 -199 11 -245 55 l-30 29 -1662 1 c-1647 0 -1662 0
-1662 19 0 18 7 20 55 20 30 0 55 -4 55 -10 0 -5 18 -10 40 -10 22 0 40 5 40
10 0 7 524 10 1551 10 l1550 0 -6 23 c-4 12 -20 33 -35 47 -15 14 -31 35 -34
46 -4 12 -16 24 -26 27 -11 3 -27 21 -35 40 -8 19 -25 48 -37 63 -13 16 -30
41 -37 57 -8 15 -20 27 -28 27 -7 0 -18 12 -23 26 -6 14 -26 40 -45 58 -19 19
-35 41 -35 50 0 9 -6 16 -12 16 -7 0 -24 23 -38 51 -14 28 -33 55 -43 61 -10
5 -23 22 -28 38 -6 15 -19 30 -29 33 -11 3 -30 25 -42 49 -40 76 -82 137 -100
143 -10 4 -21 17 -24 31 -3 13 -19 33 -35 45 -16 11 -32 31 -35 45 -4 15 -13
24 -25 24 -10 0 -19 7 -19 15 0 23 -39 95 -50 95 -6 0 -18 16 -27 35 -9 19
-25 37 -35 41 -10 3 -25 20 -34 37 -35 68 -90 147 -106 152 -9 3 -20 14 -23
24 -3 10 -21 35 -40 54 -19 20 -35 42 -35 49 0 7 -16 30 -35 51 -19 21 -35 44
-35 52 0 7 -8 16 -18 19 -10 4 -24 22 -31 42 -15 41 -135 163 -196 198 -62 37
-206 52 -337 36 -120 -15 -141 -25 -248 -128 -69 -66 -73 -72 -74 -115 -1 -25
-3 -45 -6 -45 -43 3 -57 -4 -69 -38 -7 -19 -19 -38 -27 -41 -8 -3 -22 -20 -31
-37 -8 -17 -26 -42 -39 -56 -64 -67 -92 -105 -104 -141 -7 -21 -19 -39 -26
-39 -8 0 -23 -18 -34 -40 -11 -22 -27 -40 -34 -40 -7 0 -19 -14 -26 -30 -7
-17 -21 -35 -31 -41 -11 -5 -27 -25 -37 -43 -29 -54 -79 -126 -106 -151 -19
-17 -26 -34 -26 -60 0 -31 -3 -35 -25 -35 -25 0 -29 -11 -28 -75 0 -10 -13
-14 -54 -17 -14 -1 -33 -50 -33 -84 0 -20 -5 -24 -30 -24 -26 0 -31 -5 -36
-30 -6 -29 -24 -42 -24 -17 0 8 -4 7 -10 -3 -5 -8 -10 -29 -10 -47 0 -17 -5
-35 -10 -38 -6 -4 -7 -11 -4 -17 4 -7 2 -8 -5 -4 -20 13 -49 -4 -59 -33 -6
-16 -19 -32 -30 -35 -11 -4 -25 -20 -32 -36 -7 -17 -16 -30 -21 -30 -5 0 -9
-7 -9 -15 0 -8 -4 -15 -8 -15 -5 0 -12 -19 -18 -42 -8 -36 -13 -43 -36 -46
-20 -2 -30 -11 -38 -37 -6 -19 -20 -37 -30 -40 -20 -6 -60 -67 -60 -91 0 -8
-5 -14 -12 -14 -20 0 -78 51 -78 69 0 9 -4 21 -9 27 -5 5 -23 47 -40 92 -18
46 -36 91 -40 100 -5 10 -17 37 -26 62 -15 39 -34 88 -66 165 -4 11 -18 45
-30 75 -11 30 -36 91 -54 135 -18 44 -43 105 -55 135 -11 30 -25 64 -30 75
-52 117 -50 103 -55 384 -2 146 -9 496 -15 776 -9 476 -13 650 -25 1290 -2
138 -9 484 -15 770 -6 286 -13 624 -15 750 -2 127 -7 359 -10 517 -5 243 -3
292 9 323 12 27 20 35 33 31 42 -12 215 -27 236 -20 12 4 51 10 87 13 l65 6 2
40 c4 74 4 189 -1 370 -3 99 -5 214 -3 255 2 75 0 146 -5 270 -1 36 -1 101 0
145 1 44 0 163 -2 265 -3 102 -5 219 -3 260 1 41 1 105 -1 143 -1 37 -3 95 -4
130 -1 34 -1 98 0 142 2 44 0 163 -3 265 -2 102 -4 219 -3 260 2 41 2 105 0
143 -4 142 -5 195 -4 287 0 52 0 143 0 201 -1 127 7 175 30 185 9 4 189 15
399 24 262 11 386 20 396 28 11 9 16 46 20 140 3 70 8 177 12 237 3 63 1 132
-5 161 -8 36 -8 59 0 79 10 27 11 27 30 10 14 -13 45 -21 98 -25 72 -7 78 -6
97 15 11 13 35 26 53 30 68 14 130 105 118 171 -6 27 -2 36 20 53 15 12 35 21
44 21 33 0 88 29 111 59 13 17 38 49 54 71 99 134 152 164 209 119 60 -47 108
-209 98 -332 l-4 -58 270 3 c254 3 271 4 292 23 21 19 22 25 15 90 -9 75 -9
93 -7 255 1 58 1 137 -1 175 -1 39 -1 102 0 140 1 39 1 158 0 265 -2 216 -7
236 -60 245 -17 3 -171 4 -342 3 l-310 -3 -5 35 c-6 41 2 40 -195 21 -66 -7
-130 -12 -143 -12 -28 -1 -52 18 -52 40 0 22 -55 81 -75 81 -8 0 -43 12 -77
26 -55 23 -65 25 -104 14 -23 -7 -59 -9 -81 -6 -27 5 -44 2 -58 -8 -24 -18
-61 -21 -71 -4 -4 6 -9 54 -11 107 -5 159 -12 337 -19 506 -4 88 -6 183 -5
212 1 42 -2 54 -18 62 -10 6 -21 8 -23 5z m-1493 -12924 c13 24 14 24 20 5 4
-11 15 -41 26 -67 10 -26 19 -53 19 -60 0 -8 9 -32 21 -53 38 -72 56 -202 58
-410 0 -104 8 -379 16 -609 8 -231 13 -422 11 -425 -2 -3 4 -258 14 -565 10
-308 17 -562 15 -565 -3 -6 8 -408 19 -671 5 -113 4 -123 -10 -105 -8 11 -22
29 -32 40 -9 11 -24 31 -33 45 -9 14 -26 36 -38 50 -53 64 -131 168 -131 176
0 4 -6 12 -14 18 -14 12 -115 142 -185 240 -24 33 -47 63 -51 66 -6 4 -99 127
-288 378 -24 31 -48 64 -55 72 -35 42 -146 188 -172 225 -16 24 -44 60 -61 80
-30 36 -31 39 -19 80 7 23 25 65 39 93 14 28 26 57 26 63 0 7 13 42 29 78 40
89 79 185 102 250 11 30 25 64 33 75 7 12 21 46 31 76 9 30 25 69 35 86 9 17
25 55 35 85 10 30 26 68 35 84 9 17 20 43 24 58 3 15 19 56 35 90 16 34 32 73
36 87 4 14 16 43 26 65 28 62 78 184 100 245 11 30 31 77 44 104 14 28 25 56
25 63 0 8 12 37 26 65 15 29 34 75 44 102 21 58 59 153 98 242 20 45 28 56 30
41 4 -20 5 -20 17 3z m-1523 -2592 c-10 -22 -11 -21 -11 12 -1 26 2 31 11 22
8 -8 8 -17 0 -34z"/>
<path d="M29744 32754 c-63 -31 -62 -48 21 -206 41 -79 92 -176 112 -215 21
-40 43 -73 51 -73 10 0 113 52 131 67 3 2 -5 20 -16 41 -11 20 -51 96 -88 167
-98 188 -116 219 -129 227 -18 12 -48 9 -82 -8z"/>
<path d="M19650 32554 c-14 -8 -37 -11 -52 -8 -20 4 -30 0 -40 -15 -7 -12 -21
-21 -30 -21 -10 0 -22 -9 -28 -20 -6 -11 -17 -20 -25 -20 -8 0 -15 -7 -15 -15
0 -8 -10 -19 -21 -26 -19 -10 -21 -16 -14 -57 11 -67 9 -159 -6 -220 -12 -50
-6 -80 10 -53 24 39 18 -160 -9 -274 -6 -25 -5 -44 0 -49 7 -7 10 -5 10 3 0 7
4 9 10 6 12 -8 5 -185 -10 -235 -5 -19 -10 -48 -10 -65 1 -27 2 -28 14 -12 12
15 14 6 15 -65 1 -46 -5 -118 -13 -162 -15 -74 -13 -113 4 -86 16 26 19 -73 5
-196 -10 -91 -11 -141 -5 -165 6 -19 10 -60 10 -92 0 -57 1 -60 50 -108 47
-46 53 -50 136 -64 114 -20 183 -20 190 0 4 8 17 15 30 15 13 0 28 9 34 20 6
11 17 20 26 20 8 0 19 11 24 24 5 13 19 31 31 39 19 14 21 21 14 54 -9 40 -11
106 -7 233 4 145 -4 425 -12 442 -4 10 -3 65 4 124 10 84 10 119 0 165 -10 46
-10 82 -1 162 9 82 9 111 -2 147 -10 35 -11 71 -3 159 7 83 6 126 -3 160 -7
27 -9 65 -5 89 6 39 4 45 -29 77 -19 18 -50 41 -68 50 -19 9 -50 25 -69 36
-40 22 -103 24 -140 3z"/>
<path d="M39180 32075 l0 -164 65 -30 c232 -108 402 -303 485 -556 l33 -100 9
-520 c5 -286 7 -1064 4 -1729 -7 -1357 -1 -1254 -81 -1325 l-39 -34 130 5
c136 5 169 14 211 60 12 12 26 36 32 51 16 40 15 3491 0 3589 -29 184 -144
384 -296 511 -60 51 -202 137 -250 151 -22 7 -23 11 -23 132 l0 124 -140 0
-140 0 0 -165z"/>
<path d="M25084 31938 c-5 -7 -25 -60 -46 -118 -20 -58 -54 -157 -76 -220 -23
-63 -64 -180 -92 -260 -29 -80 -56 -156 -60 -170 -4 -14 -31 -90 -60 -170 -28
-80 -69 -194 -90 -255 -21 -60 -64 -182 -95 -270 -31 -88 -64 -182 -73 -210
-9 -27 -78 -143 -153 -256 -390 -592 -668 -1145 -797 -1594 -27 -93 -58 -248
-72 -365 -6 -52 -15 -129 -20 -170 -5 -41 -12 -119 -15 -172 l-5 -98 1966 0
1966 0 -6 33 c-3 17 -11 88 -16 157 -6 69 -15 175 -21 235 -11 131 -26 296
-40 460 -13 160 -26 306 -38 445 -6 63 -15 174 -21 245 -6 72 -15 175 -20 230
-5 55 -14 161 -20 237 l-12 136 33 74 c17 40 49 110 70 156 22 46 39 87 39 93
0 12 -16 12 -38 -1 -9 -5 -48 -24 -87 -41 -38 -17 -92 -42 -120 -54 -27 -12
-84 -37 -125 -55 -75 -32 -111 -48 -205 -90 -84 -37 -205 -80 -225 -80 -10 0
-37 21 -60 48 -81 95 -354 506 -670 1012 -163 261 -407 652 -430 690 -15 25
-51 83 -80 130 -29 47 -77 126 -107 175 -65 107 -68 111 -79 93z"/>
<path d="M30363 31581 c-35 -14 -63 -31 -63 -37 0 -6 26 -60 58 -120 122 -228
227 -429 230 -441 2 -7 -5 -25 -16 -40 -31 -45 -42 -91 -42 -173 0 -71 12
-141 75 -450 70 -347 74 -414 49 -832 -5 -77 -3 -108 5 -108 6 0 46 19 88 43
43 23 100 53 127 67 38 20 60 42 106 110 89 132 189 214 325 266 61 24 88 28
210 32 140 4 140 4 210 42 39 21 103 55 143 75 39 21 72 43 72 50 0 7 -48 57
-107 111 -60 54 -245 234 -413 399 -168 165 -335 322 -373 348 -89 63 -182
106 -247 114 -62 7 -41 -23 -220 316 -74 141 -139 256 -145 256 -5 -1 -38 -13
-72 -28z"/>
<path d="M38575 29718 c-3 -414 -6 -791 -7 -838 -3 -77 0 -89 25 -132 102
-174 348 -195 474 -41 42 51 40 51 140 -41 l71 -66 244 2 243 3 3 924 c2 733
0 926 -10 933 -7 4 -275 8 -595 8 l-583 0 -5 -752z m833 -491 c30 -24 3 -32
-109 -32 -110 0 -118 -1 -179 -33 -103 -52 -178 -130 -234 -240 -19 -38 -32
-52 -44 -50 -25 5 -18 37 23 107 80 137 191 224 323 255 62 14 199 10 220 -7z"/>
<path d="M14004 30060 c-11 -11 -9 -423 2 -442 10 -16 72 -3 194 42 63 23 129
45 145 49 17 4 40 13 52 19 12 7 31 12 42 12 20 0 21 6 21 84 l0 84 -40 16
c-22 9 -46 16 -53 16 -7 0 -28 11 -46 25 -19 13 -59 29 -90 35 -31 7 -72 22
-91 35 -41 27 -120 42 -136 25z"/>
<path d="M28612 29875 c-50 -42 -88 -169 -58 -194 19 -16 46 -11 57 9 4 8 11
32 14 53 4 24 20 53 41 77 30 33 34 42 24 59 -14 28 -42 26 -78 -4z"/>
<path d="M41343 29673 l-683 -3 0 -48 c0 -101 61 -276 131 -379 117 -170 279
-276 503 -328 99 -23 131 -26 194 -21 398 36 696 330 735 724 l7 62 -103 -2
c-56 -2 -409 -4 -784 -5z"/>
<path d="M33920 28890 c-8 -6 -42 -22 -75 -36 -33 -14 -73 -32 -90 -40 -354
-157 -396 -174 -449 -174 -250 0 -559 -161 -689 -358 -105 -158 -111 -304 -17
-406 48 -52 141 -100 210 -108 24 -3 25 -6 28 -80 l3 -78 1830 0 c1738 0 1830
1 1825 18 -3 9 -21 111 -41 226 -46 272 -201 966 -220 984 -3 3 -60 -12 -128
-33 -152 -47 -451 -138 -577 -175 -52 -16 -126 -38 -165 -50 -38 -12 -83 -25
-100 -30 -16 -5 -61 -18 -100 -30 -38 -12 -83 -25 -100 -30 -16 -5 -61 -18
-100 -30 -38 -12 -83 -25 -100 -30 -16 -5 -59 -17 -95 -28 -249 -77 -484 -142
-495 -138 -20 7 -33 34 -205 401 -118 254 -114 247 -150 225z"/>
<path d="M38062 28800 c-27 -11 -40 -39 -22 -50 6 -4 25 -3 41 3 26 10 31 8
67 -31 44 -47 59 -50 121 -22 24 11 44 20 46 20 1 0 20 -18 43 -40 46 -45 85
-52 122 -22 33 26 18 45 -29 37 -32 -5 -40 -2 -71 30 -39 40 -67 44 -131 18
l-42 -16 -29 32 c-25 28 -66 52 -86 50 -4 0 -17 -4 -30 -9z"/>
<path d="M29060 28675 c-28 -11 -165 -14 -681 -14 l-646 -1 -26 -57 c-14 -32
-28 -69 -32 -83 -6 -25 -5 -25 40 -22 52 5 86 -13 113 -58 l18 -28 12 28 c17
37 74 64 120 56 39 -6 82 -41 82 -65 -1 -10 -6 -6 -15 10 -38 70 -153 57 -185
-21 -12 -28 -7 -75 44 -413 31 -210 56 -385 56 -389 0 -5 42 -8 93 -8 l93 0
-39 393 c-39 383 -39 395 -22 431 10 20 30 43 46 51 37 20 99 19 127 -1 50
-35 54 -57 73 -429 10 -192 18 -371 19 -397 l0 -48 75 0 75 0 0 48 c1 26 9
205 19 397 19 372 23 394 73 429 28 20 90 21 127 2 15 -8 35 -30 46 -49 18
-34 18 -39 -21 -431 l-40 -396 93 0 c51 0 93 3 93 8 0 4 25 179 56 389 50 336
55 386 44 413 -32 78 -147 91 -185 21 -9 -16 -14 -20 -15 -10 0 24 43 59 82
65 48 8 102 -17 119 -54 l13 -30 18 28 c27 45 61 63 113 58 45 -3 46 -2 40 22
-6 26 -72 171 -77 169 -2 0 -19 -7 -38 -14z m-573 -194 c30 -19 51 -56 39 -68
-3 -4 -6 0 -6 9 0 30 -48 62 -95 62 -47 0 -95 -32 -95 -62 0 -9 -3 -13 -6 -9
-12 12 9 49 39 68 18 10 46 19 62 19 17 0 44 -9 62 -19z"/>
<path d="M30420 28483 c-89 -52 -229 -193 -262 -263 -92 -198 -31 -354 167
-431 52 -20 79 -23 200 -23 135 -1 169 4 281 40 64 20 144 57 144 66 0 4 -18
24 -40 44 -102 92 -222 267 -335 487 -37 71 -66 117 -75 117 -9 0 -45 -17 -80
-37z"/>
<path d="M38287 28464 c-2 -2 -215 -4 -473 -4 -258 -1 -476 -5 -483 -9 -9 -6
-51 -161 -51 -191 0 -4 34 -23 74 -44 111 -55 184 -59 291 -15 62 25 95 33
145 33 60 0 77 -5 186 -57 149 -71 202 -76 308 -26 106 50 208 42 333 -26 81
-44 166 -69 212 -61 20 3 72 20 116 37 113 43 183 39 295 -18 78 -40 80 -40
85 -19 25 108 75 362 75 382 l0 25 -555 -2 c-305 -1 -557 -4 -558 -5z"/>
<path d="M37229 28008 c-13 -45 -85 -406 -81 -412 5 -9 1177 -2 1522 9 85 3
246 8 357 11 l203 6 10 38 c13 48 31 143 28 146 -2 1 -41 21 -87 43 -106 51
-155 53 -273 12 -46 -16 -95 -32 -109 -35 -46 -10 -130 12 -224 59 -149 73
-220 80 -312 28 -96 -53 -211 -41 -368 40 -70 37 -88 42 -145 41 -48 0 -81 -7
-129 -28 -113 -49 -203 -45 -323 15 -54 28 -67 32 -69 27z"/>
<path d="M23410 26733 c1 -65 5 -234 10 -377 6 -198 11 -261 22 -267 7 -5 425
-10 928 -11 l915 -3 -758 -2 -759 -3 6 -38 c3 -20 162 -1565 352 -3432 190
-1867 348 -3397 349 -3398 2 -2 201 0 442 5 l438 8 87 1275 c48 701 87 1295
87 1319 1 24 3 42 6 40 2 -3 45 -551 95 -1219 50 -668 93 -1230 96 -1247 3
-20 11 -33 19 -33 8 0 15 4 15 8 0 5 37 14 83 20 339 46 629 4 940 -137 l69
-31 -7 353 c-5 298 -85 6350 -85 6475 l0 42 359 0 c198 0 362 4 365 9 3 4 -4
109 -15 232 -10 123 -24 278 -29 344 -6 66 -12 135 -15 153 l-6 32 -2004 0
-2005 0 0 -117z"/>
<path d="M32865 26808 c3 -24 9 -200 15 -393 5 -192 13 -394 16 -447 l6 -98
2019 0 2019 0 0 21 c0 12 -22 91 -49 177 -59 184 -155 524 -218 765 -4 16
-103 17 -1908 17 l-1905 0 5 -42z"/>
<path d="M34197 25843 l-1049 -3 6 -28 c3 -15 157 -1516 342 -3337 186 -1820
338 -3311 340 -3313 1 -2 46 13 101 33 212 80 481 117 693 97 63 -6 117 -8
119 -6 5 5 159 2238 161 2313 0 19 2 32 5 30 2 -3 45 -545 94 -1205 50 -659
93 -1222 96 -1250 l6 -52 137 -21 c121 -19 179 -21 504 -21 l367 0 11 -42 c6
-24 13 -50 16 -59 3 -11 19 -19 42 -22 20 -2 38 -4 39 -3 1 1 -18 1495 -43
3321 -24 1826 -44 3377 -44 3448 l0 127 -447 -2 c-247 -2 -920 -4 -1496 -5z"/>
<path d="M13345 25197 c-11 -6 -56 -15 -100 -19 -44 -5 -125 -13 -180 -18 -55
-6 -147 -12 -205 -14 -155 -6 -168 -11 -202 -76 -15 -30 -35 -75 -43 -100 -8
-25 -26 -67 -40 -94 -14 -27 -25 -55 -25 -63 0 -7 -13 -37 -30 -66 -16 -30
-30 -60 -30 -69 0 -8 -13 -40 -30 -71 -16 -31 -30 -63 -30 -70 0 -7 -16 -44
-35 -83 -19 -38 -35 -76 -35 -84 0 -8 -13 -40 -30 -70 -16 -30 -29 -62 -30
-70 0 -8 -16 -46 -35 -84 -19 -39 -35 -77 -35 -85 -1 -9 -14 -41 -30 -71 -17
-30 -30 -60 -30 -67 0 -6 -16 -44 -35 -84 -19 -41 -35 -80 -35 -88 0 -7 -9
-28 -20 -46 -11 -18 -29 -59 -40 -91 -11 -32 -26 -67 -34 -78 -7 -12 -21 -46
-31 -76 -10 -30 -26 -66 -36 -80 -10 -14 -23 -44 -29 -67 -6 -23 -22 -61 -35
-85 -14 -24 -25 -50 -25 -58 0 -8 -16 -46 -35 -84 -19 -39 -35 -76 -35 -85 0
-8 -11 -33 -24 -55 -13 -23 -29 -59 -35 -81 -7 -22 -23 -60 -36 -85 -12 -25
-28 -63 -35 -85 -7 -22 -19 -49 -26 -61 -8 -11 -23 -46 -34 -78 -11 -33 -24
-64 -29 -70 -5 -6 -21 -41 -34 -76 -40 -105 -86 -212 -107 -251 -11 -20 -20
-43 -20 -50 0 -8 -16 -45 -35 -83 -19 -39 -35 -76 -35 -83 0 -7 -13 -39 -30
-70 -16 -31 -30 -63 -30 -72 -1 -9 -14 -41 -30 -71 -17 -30 -30 -61 -30 -68 0
-7 -16 -45 -35 -85 -19 -39 -35 -79 -35 -87 0 -8 -14 -37 -30 -65 -16 -27 -30
-57 -30 -66 0 -8 -12 -38 -26 -65 -14 -27 -32 -70 -40 -96 -8 -26 -25 -66 -39
-90 -14 -24 -25 -50 -25 -59 0 -9 -13 -41 -30 -72 -16 -31 -30 -62 -30 -69 0
-7 -16 -44 -35 -82 -19 -39 -35 -77 -35 -85 0 -9 -11 -35 -24 -58 -13 -23 -29
-59 -36 -80 -6 -21 -22 -58 -35 -83 -12 -25 -26 -56 -30 -70 -4 -14 -20 -53
-37 -87 -28 -59 -29 -67 -25 -160 3 -54 10 -152 16 -218 6 -66 13 -145 15
-175 3 -30 10 -100 16 -155 6 -55 15 -145 21 -200 6 -55 15 -143 20 -195 6
-52 14 -135 17 -185 6 -80 9 -90 26 -90 11 0 26 12 35 26 34 54 60 95 81 124
12 17 31 45 43 64 12 19 31 49 42 65 11 17 29 46 40 64 11 19 32 50 48 69 15
20 27 39 27 43 0 4 10 18 23 32 12 14 31 40 42 58 11 19 29 47 40 64 11 18 29
46 40 65 11 18 32 49 48 68 15 20 27 39 27 43 0 4 10 18 23 32 12 14 31 40 42
58 11 19 29 47 40 64 11 18 29 46 40 65 11 18 32 49 48 68 15 20 27 39 27 43
0 4 11 20 25 36 14 16 28 37 31 47 3 10 16 29 30 44 13 14 24 30 24 36 0 5 10
22 23 37 12 15 30 40 39 56 22 36 61 94 113 170 22 32 45 66 50 74 25 41 55
87 75 115 55 79 70 102 85 132 9 17 25 39 36 49 10 9 19 21 19 26 0 4 19 35
43 69 23 33 53 78 67 98 14 21 34 51 44 67 11 16 29 45 41 64 12 19 30 48 41
64 10 16 27 40 36 55 10 14 25 35 33 46 9 11 26 35 38 54 12 19 31 49 42 65
11 17 29 46 40 65 11 18 29 45 41 60 12 14 29 41 38 59 9 17 20 32 25 32 4 0
16 18 26 40 10 22 22 40 27 40 5 0 16 15 24 33 8 17 26 48 39 67 13 19 34 49
45 65 11 17 32 46 45 65 14 19 30 46 37 60 7 14 18 30 25 35 6 6 20 24 30 41
27 45 59 95 83 129 11 17 32 46 45 65 14 19 30 46 37 60 6 14 21 35 31 47 11
12 25 31 31 41 6 10 20 33 31 51 11 19 30 46 43 61 12 15 22 35 22 44 0 8 14
31 30 50 29 33 32 44 51 193 10 87 24 262 29 388 5 127 21 324 35 438 14 115
29 311 34 435 6 125 21 324 35 442 13 118 27 302 31 408 l7 192 -54 0 c-29 0
-62 -6 -73 -13z"/>
<path d="M46901 22956 c8 -9 352 -87 364 -82 5 2 -3 9 -18 15 -16 6 -33 9 -38
5 -5 -3 -29 9 -54 27 -42 31 -51 33 -152 37 -60 2 -105 2 -102 -2z"/>
<path d="M48220 22036 c0 -2 -20 -93 -46 -202 -25 -110 -81 -359 -125 -554
-44 -195 -84 -359 -89 -364 -10 -10 -85 8 -236 55 -112 36 -423 119 -442 119
-17 0 -19 4 53 -185 58 -156 127 -341 215 -580 65 -177 144 -390 178 -478 14
-37 31 -72 38 -78 11 -9 153 -4 484 16 61 3 279 15 380 20 236 12 340 19 348
24 12 8 59 127 71 184 11 46 6 121 -19 322 -20 154 -51 252 -91 286 l-31 25
93 405 c148 648 177 774 175 776 -2 3 -934 213 -945 213 -6 0 -11 -2 -11 -4z"/>
<path d="M45832 21686 c-6 -13 -20 -27 -31 -31 -11 -3 -23 -14 -26 -24 -3 -10
-19 -33 -35 -50 -17 -17 -30 -37 -30 -45 0 -8 -13 -27 -28 -44 -54 -58 -54
-67 2 -164 28 -48 53 -88 56 -88 6 0 111 462 107 467 -2 2 -9 -8 -15 -21z"/>
<path d="M41970 21643 c-41 -25 -135 -81 -209 -124 -96 -56 -129 -80 -117 -85
9 -4 24 -21 32 -38 9 -17 29 -42 44 -56 16 -14 159 -252 319 -530 278 -483
290 -506 272 -520 -11 -8 -400 -233 -865 -500 -465 -267 -845 -489 -846 -493
0 -4 92 -166 204 -360 112 -194 375 -651 586 -1017 210 -366 392 -681 404
-700 13 -19 30 -69 40 -110 20 -93 61 -165 134 -240 200 -203 539 -184 720 41
52 63 101 177 103 236 1 21 4 50 8 64 l6 26 160 -33 c88 -17 174 -35 190 -38
26 -6 73 18 370 189 187 108 350 206 363 218 13 12 22 18 21 12 -4 -14 2 -26
370 -664 182 -316 331 -585 331 -596 0 -73 23 4 92 307 55 241 76 349 69 363
-4 11 -160 283 -346 605 -186 322 -397 689 -470 815 -117 202 -303 525 -633
1095 -52 91 -106 185 -120 210 -14 25 -28 50 -32 55 -4 6 -30 51 -58 100 -27
50 -125 221 -217 380 -92 160 -261 452 -375 650 -417 724 -453 785 -464 784
-6 0 -45 -21 -86 -46z m672 -1853 c345 -602 322 -560 308 -560 -5 0 -10 5 -10
10 0 9 -20 45 -87 158 -12 21 -32 58 -46 83 -28 53 -352 616 -421 732 -25 43
-46 84 -46 89 0 6 2 9 4 7 2 -2 136 -236 298 -519z m493 -860 c181 -317 171
-298 158 -285 -6 6 -82 134 -168 285 -179 313 -171 298 -158 285 6 -5 81 -134
168 -285z m200 -350 c9 -16 13 -30 11 -30 -3 0 -12 14 -21 30 -9 17 -13 30
-11 30 3 0 12 -13 21 -30z m280 -476 c224 -391 306 -538 275 -494 -6 8 -81
137 -167 285 -182 315 -328 567 -355 613 -11 17 -16 32 -11 32 4 0 121 -197
258 -436z m-754 76 c22 -12 25 -43 7 -57 -7 -6 -35 -17 -62 -26 -137 -46 -289
-172 -358 -299 -34 -62 -81 -190 -94 -258 -3 -19 -8 -105 -9 -190 -2 -85 -4
-158 -4 -162 -1 -5 -14 -8 -31 -8 -26 0 -31 5 -41 43 -19 69 -4 290 27 406 33
121 54 167 120 262 86 123 177 196 324 261 97 42 95 42 121 28z"/>
<path d="M52390 21044 c-37 -9 -64 -24 -83 -45 -25 -27 -28 -36 -22 -72 3 -23
10 -53 14 -67 11 -31 24 -78 56 -200 14 -52 32 -117 40 -145 7 -27 28 -104 46
-170 17 -66 37 -126 43 -132 9 -10 23 -9 66 6 30 11 79 25 108 31 30 7 56 18
59 26 4 11 -11 77 -47 209 -27 97 -46 168 -85 317 -53 196 -57 208 -81 229
-29 26 -55 29 -114 13z"/>
<path d="M44851 20209 c-294 -170 -539 -313 -545 -319 -6 -6 -3 -17 11 -32 11
-13 38 -50 61 -83 69 -103 197 -226 317 -305 33 -22 65 -43 70 -48 27 -21 257
-120 295 -127 16 -3 41 -10 56 -15 15 -6 29 -8 31 -6 3 3 17 0 31 -5 15 -6 47
-12 72 -15 l46 -5 118 521 118 521 -68 114 c-38 63 -71 115 -74 114 -3 0 -246
-140 -539 -310z"/>
<path d="M52995 19020 c-11 -4 -50 -11 -87 -15 -37 -4 -75 -13 -85 -20 -16
-12 -15 -17 5 -81 11 -38 30 -104 42 -146 19 -74 41 -157 74 -278 8 -30 24
-89 35 -130 11 -41 27 -102 36 -135 9 -33 26 -97 38 -142 l21 -82 -38 -38
c-62 -62 -94 -116 -115 -194 -44 -163 -48 -215 -56 -673 l-6 -339 53 -47 c59
-52 100 -119 118 -192 7 -27 16 -48 19 -48 9 0 1344 320 1347 323 3 2 -321
522 -394 632 -64 97 -190 273 -226 315 -125 146 -280 265 -371 285 -58 13 -62
16 -75 43 -6 15 -19 52 -27 82 -40 149 -73 272 -118 435 -9 33 -25 94 -36 135
-48 180 -69 257 -77 285 -9 32 -39 42 -77 25z"/>
<path d="M45795 18819 c-7 -20 -894 -3943 -892 -3945 6 -6 769 -174 788 -174
46 0 1324 312 1335 325 6 8 16 67 23 132 7 65 19 152 26 193 8 41 17 104 20
140 3 36 15 121 25 190 10 69 22 152 25 185 3 33 13 103 21 155 26 173 66 454
75 535 5 44 18 139 29 210 23 156 47 332 65 476 14 113 14 113 100 226 22 29
59 78 83 110 24 32 70 94 103 137 57 76 68 103 38 99 -19 -3 -257 -51 -339
-69 -79 -17 -189 -38 -335 -65 -60 -12 -144 -27 -185 -35 -145 -27 -246 -45
-353 -60 -98 -15 -109 -15 -131 0 -52 33 -174 327 -461 1111 -54 146 -53 143
-60 124z"/>
<path d="M52355 18138 c-76 -27 -143 -95 -192 -195 -36 -75 -37 -129 -1 -156
42 -31 80 -11 108 59 36 88 76 140 125 163 64 30 81 70 48 109 -23 27 -51 33
-88 20z"/>
<path d="M43444 17057 c-10 -5 -183 -107 -384 -225 -201 -118 -417 -245 -480
-282 -190 -111 -433 -254 -875 -515 -231 -136 -474 -279 -540 -318 -66 -38
-151 -89 -190 -112 -38 -23 -168 -99 -287 -169 -119 -70 -222 -134 -229 -142
-10 -12 -3 -44 37 -171 l49 -156 116 6 c248 14 338 54 458 206 92 116 119 144
177 180 83 54 161 72 339 81 177 10 237 23 331 76 67 36 113 83 140 139 26 55
113 137 189 177 99 51 174 68 359 78 244 14 328 53 437 203 17 23 52 65 79 93
118 123 207 155 458 168 46 3 85 6 87 8 2 2 -45 155 -106 340 -114 351 -119
360 -165 335z"/>
<path d="M41912 16618 c-54 -66 -65 -69 -133 -38 -87 39 -144 21 -208 -69 -49
-67 -73 -76 -133 -45 -41 21 -111 20 -151 -3 -42 -25 -76 -86 -61 -110 19 -31
44 -27 76 11 34 42 56 45 135 17 89 -30 118 -17 219 105 l32 38 68 -22 c103
-33 128 -29 192 31 33 32 39 55 22 88 -14 25 -36 24 -58 -3z"/>
<path d="M50273 16298 c-51 -64 -123 -177 -123 -191 0 -5 15 -6 34 -3 102 16
226 -83 226 -180 0 -13 5 -24 10 -24 6 0 10 5 10 12 0 6 2 9 5 6 3 -3 0 -18
-7 -34 -14 -35 -14 -33 -22 -159 -6 -97 -12 -167 -21 -287 -11 -128 -14 -177
-20 -268 -3 -52 -8 -113 -10 -135 -3 -22 -7 -83 -10 -135 -3 -53 -7 -116 -10
-140 -2 -25 -7 -81 -10 -125 -3 -44 -8 -99 -10 -122 -3 -37 -1 -44 18 -48 229
-57 303 -70 303 -55 1 8 4 40 8 70 9 66 13 100 20 160 3 25 8 61 11 80 3 19 7
55 10 80 2 25 25 212 50 415 25 204 48 386 50 405 2 19 7 55 10 80 4 25 8 57
9 71 3 33 69 105 118 130 44 22 124 25 171 5 44 -18 86 -63 109 -114 28 -61
26 -113 -7 -256 -8 -33 -12 -62 -10 -66 2 -4 -3 -32 -11 -62 -8 -31 -16 -76
-18 -100 -3 -23 -10 -65 -15 -93 -6 -27 -13 -63 -15 -80 -2 -16 -9 -59 -15
-95 -7 -36 -19 -103 -27 -150 -14 -81 -20 -114 -59 -340 -9 -52 -23 -126 -31
-164 -8 -38 -13 -70 -12 -71 11 -6 253 -54 256 -50 2 2 11 28 18 57 35 136 60
224 66 233 3 6 14 46 23 90 10 44 21 85 25 90 4 6 15 39 24 75 34 139 57 226
66 245 5 11 19 56 30 100 12 44 30 112 40 150 11 39 30 109 42 157 13 47 26
90 31 94 4 4 7 23 7 42 0 20 3 32 6 29 4 -3 19 11 34 32 103 142 344 84 367
-89 3 -22 9 -40 13 -40 7 0 -14 -82 -29 -110 -5 -9 -12 -31 -16 -50 -4 -19
-10 -39 -14 -45 -4 -5 -15 -37 -25 -70 -10 -33 -21 -67 -26 -75 -4 -9 -11 -31
-15 -50 -4 -19 -10 -39 -14 -45 -4 -5 -22 -57 -40 -115 -19 -58 -37 -112 -41
-120 -4 -9 -11 -31 -15 -50 -4 -19 -10 -39 -14 -45 -4 -5 -22 -57 -40 -115
-19 -58 -37 -112 -41 -120 -4 -9 -11 -31 -15 -50 -4 -19 -11 -41 -16 -50 -11
-22 -61 -169 -69 -207 -6 -26 -4 -33 9 -37 25 -8 284 -66 292 -66 4 0 17 26
29 58 34 86 51 125 61 144 5 10 9 27 9 38 0 11 5 20 10 20 6 0 10 9 10 20 0
11 4 28 9 38 8 16 17 36 41 97 6 14 15 37 21 53 7 15 15 36 19 47 26 66 64
164 73 185 5 14 14 36 20 50 5 14 13 33 18 42 5 10 9 27 9 38 0 11 5 20 10 20
6 0 10 8 10 18 0 10 9 37 20 60 11 22 20 47 20 55 0 7 4 17 9 22 4 6 25 55 45
110 39 103 53 139 66 165 10 21 2 92 -15 132 -20 50 -66 87 -131 108 -48 16
-52 18 -19 13 42 -6 90 -27 111 -48 32 -31 64 -90 64 -116 0 -16 2 -29 5 -29
3 0 21 18 41 39 66 74 178 91 261 40 l36 -23 -6 90 c-6 75 -22 156 -52 260 -6
20 -13 21 -123 20 l-117 0 -1062 242 c-585 133 -1067 242 -1072 242 -5 0 -31
-28 -58 -62z m292 -297 c-3 -5 -19 -12 -35 -16 -16 -4 -41 -20 -55 -37 -14
-16 -25 -26 -25 -21 0 22 68 69 118 82 2 1 1 -3 -3 -8z m134 -7 c11 -10 -8
-10 -49 2 l-45 13 45 -5 c25 -4 47 -8 49 -10z m65 -54 c34 -37 49 -69 26 -55
-5 3 -10 12 -10 20 0 7 -16 27 -35 44 -20 17 -32 31 -27 31 6 0 26 -18 46 -40z
m49 -90 c3 -11 0 -23 -6 -27 -7 -3 -9 -3 -5 2 4 4 3 16 -3 26 -5 11 -6 19 -1
19 6 0 12 -9 15 -20z m584 -26 c-2 -2 -14 -6 -26 -9 -37 -7 -97 -45 -114 -73
-9 -15 -17 -22 -17 -16 0 21 42 64 80 82 36 16 89 27 77 16z m128 -28 c46 -32
73 -67 84 -111 5 -21 8 -41 6 -43 -2 -2 -9 14 -15 37 -11 43 -49 95 -84 113
-11 6 -41 17 -66 24 l-45 14 45 -6 c25 -4 59 -16 75 -28z m650 -161 c-16 -8
-35 -14 -40 -15 -6 0 -29 -17 -53 -39 -49 -45 -57 -40 -9 7 18 17 50 38 72 46
50 18 70 19 30 1z"/>
<path d="M43695 15980 c-232 -12 -288 -44 -461 -261 -62 -78 -148 -139 -236
-168 -69 -22 -121 -29 -273 -36 -125 -6 -195 -20 -265 -53 -62 -29 -144 -101
-167 -147 -28 -54 -93 -123 -154 -164 -96 -64 -195 -91 -383 -101 -241 -14
-333 -53 -428 -181 -85 -114 -119 -149 -176 -186 -102 -66 -224 -99 -379 -102
-48 -1 -89 -4 -92 -6 -5 -6 209 -657 221 -672 6 -7 17 -13 25 -13 13 0 177 93
518 295 50 29 261 154 470 277 465 274 1509 903 1872 1129 87 53 153 100 153
109 0 32 -92 290 -103 288 -7 0 -71 -4 -142 -8z"/>
<path d="M6923 15023 c-17 -2 -37 -11 -43 -19 -7 -8 -17 -14 -22 -14 -13 0
-115 -81 -161 -128 -83 -85 -116 -123 -122 -141 -3 -11 -15 -26 -25 -31 -11
-6 -24 -29 -31 -53 -6 -23 -17 -49 -24 -57 -35 -40 -41 -121 -18 -240 10 -52
68 -145 128 -206 143 -145 259 -281 326 -384 74 -114 118 -193 119 -216 0 -6
7 -17 15 -24 8 -7 15 -22 15 -34 0 -12 7 -31 15 -42 8 -10 15 -27 15 -37 0
-11 7 -33 14 -50 8 -18 16 -45 18 -62 3 -27 6 -30 33 -27 17 1 188 4 380 7
193 3 357 6 365 7 8 1 65 -2 126 -6 80 -5 114 -4 119 4 4 6 17 15 30 20 14 5
28 23 35 45 15 44 -1 73 -59 110 -22 13 -42 29 -46 35 -3 5 -26 15 -50 21 -24
6 -59 22 -76 35 -18 13 -40 24 -48 24 -17 0 -172 76 -181 88 -3 5 -20 18 -38
31 -42 30 -131 142 -161 206 -13 28 -30 62 -38 77 -7 14 -13 37 -13 51 0 13
-7 41 -15 60 -8 20 -14 58 -13 84 0 26 -3 80 -7 119 -8 72 2 183 30 352 18
103 13 128 -35 186 -131 158 -339 236 -557 209z"/>
</g>
</svg>
