<?xml version="1.0" standalone="no"?>
<!DOCTYPE svg PUBLIC "-//W3C//DTD SVG 20010904//EN"
 "http://www.w3.org/TR/2001/REC-SVG-20010904/DTD/svg10.dtd">
<svg version="1.0" xmlns="http://www.w3.org/2000/svg"
 width="5906.000000pt" height="5906.000000pt" viewBox="0 0 5906.000000 5906.000000"
 preserveAspectRatio="xMidYMid meet">

<g transform="translate(0.000000,5906.000000) scale(0.100000,-0.100000)"
fill="#000000" stroke="none">
<path d="M33578 50103 c18 -2 45 -2 60 0 15 2 0 4 -33 4 -33 0 -45 -2 -27 -4z"/>
<path d="M33908 50103 c18 -2 45 -2 60 0 15 2 0 4 -33 4 -33 0 -45 -2 -27 -4z"/>
<path d="M33663 50071 c-3 -13 -3 -66 0 -119 5 -85 8 -98 31 -121 38 -37 95
-36 136 4 l31 29 -3 116 -3 115 -93 0 c-89 0 -93 -1 -99 -24z"/>
<path d="M33338 50073 c6 -2 18 -2 25 0 6 3 1 5 -13 5 -14 0 -19 -2 -12 -5z"/>
<path d="M34168 50073 c6 -2 18 -2 25 0 6 3 1 5 -13 5 -14 0 -19 -2 -12 -5z"/>
<path d="M33138 50033 c7 -3 16 -2 19 1 4 3 -2 6 -13 5 -11 0 -14 -3 -6 -6z"/>
<path d="M34378 50033 c7 -3 16 -2 19 1 4 3 -2 6 -13 5 -11 0 -14 -3 -6 -6z"/>
<path d="M36001 49910 c383 -491 622 -1091 679 -1709 14 -156 15 -472 0 -616
-11 -117 -45 -337 -60 -395 -5 -19 -21 -80 -34 -135 -92 -367 -297 -795 -531
-1110 -504 -676 -1214 -1121 -2040 -1279 -229 -44 -315 -51 -605 -50 -292 0
-422 12 -650 59 -506 105 -962 315 -1365 630 l-100 78 65 -73 c110 -125 353
-338 495 -436 17 -11 53 -36 81 -56 148 -104 427 -250 629 -328 61 -23 119
-46 130 -51 20 -8 159 -49 250 -74 99 -26 236 -53 420 -80 17 -3 112 -9 212
-15 260 -15 521 1 763 44 238 43 509 122 677 197 23 11 45 19 49 19 3 0 72 33
153 73 407 205 734 459 1026 797 382 443 633 963 739 1530 46 250 59 406 53
672 -6 337 -37 545 -127 863 -65 230 -186 510 -316 732 -50 86 -169 269 -184
283 -3 3 -25 32 -50 65 -91 122 -289 339 -384 418 l-49 41 74 -94z"/>
<path d="M33754 49515 c-64 -33 -62 -7 -69 -900 -4 -445 -9 -812 -11 -814 -3
-3 -159 149 -347 336 -188 188 -355 347 -370 353 -83 30 -169 -61 -137 -145
12 -33 697 -725 717 -725 6 0 15 9 18 20 21 65 124 130 205 129 113 -1 154
-46 147 -159 -6 -103 -58 -170 -158 -205 -53 -19 -90 -19 -136 0 -20 8 -38 13
-41 11 -5 -6 33 -44 71 -72 l29 -20 -2 -171 c0 -132 3 -180 14 -208 32 -75
143 -82 186 -12 17 28 20 51 20 170 0 75 4 137 9 137 4 0 54 -47 111 -105 57
-57 118 -111 137 -120 76 -37 153 15 153 103 0 46 0 46 -154 201 l-154 156 -4
76 c-4 65 -9 82 -37 122 -18 26 -37 47 -43 47 -7 0 -8 257 -3 868 l8 869 -29
32 c-35 39 -85 49 -130 26z"/>
<path d="M31958 49346 c-32 -36 -58 -69 -58 -74 0 -17 149 -151 175 -158 31
-8 81 12 100 40 8 11 15 38 15 59 0 35 -8 47 -77 118 -42 44 -81 79 -87 79 -6
-1 -37 -29 -68 -64z"/>
<path d="M35411 49326 c-93 -96 -101 -123 -53 -177 23 -26 36 -32 69 -32 49 0
76 18 157 103 l59 61 -58 52 c-97 86 -82 87 -174 -7z"/>
<path d="M31281 48214 c0 -11 3 -14 6 -6 3 7 2 16 -1 19 -3 4 -6 -2 -5 -13z"/>
<path d="M31241 48034 c0 -11 3 -14 6 -6 3 7 2 16 -1 19 -3 4 -6 -2 -5 -13z"/>
<path d="M36292 47940 c0 -14 2 -19 5 -12 2 6 2 18 0 25 -3 6 -5 1 -5 -13z"/>
<path d="M31213 47855 c0 -22 2 -30 4 -17 2 12 2 30 0 40 -3 9 -5 -1 -4 -23z"/>
<path d="M36321 47664 c0 -11 3 -14 6 -6 3 7 2 16 -1 19 -3 4 -6 -2 -5 -13z"/>
<path d="M31210 47545 l0 -95 119 0 119 0 26 31 c36 43 35 91 -3 130 -29 29
-31 29 -145 29 l-116 0 0 -95z"/>
<path d="M36073 47630 c-56 -23 -66 -120 -16 -160 23 -18 40 -20 146 -20 l120
0 -7 38 c-3 20 -6 63 -6 95 l0 57 -107 -1 c-60 0 -118 -4 -130 -9z"/>
<path d="M36322 47415 c0 -16 2 -22 5 -12 2 9 2 23 0 30 -3 6 -5 -1 -5 -18z"/>
<path d="M31212 47220 c0 -19 2 -27 5 -17 2 9 2 25 0 35 -3 9 -5 1 -5 -18z"/>
<path d="M36292 47140 c0 -14 2 -19 5 -12 2 6 2 18 0 25 -3 6 -5 1 -5 -13z"/>
<path d="M31251 46984 c0 -11 3 -14 6 -6 3 7 2 16 -1 19 -3 4 -6 -2 -5 -13z"/>
<path d="M31969 45893 c-44 -42 -79 -82 -79 -90 0 -7 12 -21 27 -30 15 -10 46
-35 68 -55 22 -21 43 -38 46 -38 3 0 40 35 82 79 69 70 77 83 77 117 0 56 -39
94 -98 94 -42 0 -49 -5 -123 -77z"/>
<path d="M35377 45959 c-9 -5 -24 -23 -32 -39 -28 -55 -21 -75 66 -165 45 -47
85 -85 88 -85 3 0 35 32 70 71 l65 72 -82 78 c-73 71 -85 79 -119 79 -21 0
-46 -5 -56 -11z"/>
<path d="M33722 45275 c-47 -21 -62 -64 -62 -184 0 -87 -2 -100 -17 -104 -10
-2 -5 -3 11 -1 16 2 68 4 117 4 l89 0 0 104 c0 116 -8 148 -42 169 -37 24 -61
27 -96 12z"/>
<path d="M33278 45023 c7 -3 16 -2 19 1 4 3 -2 6 -13 5 -11 0 -14 -3 -6 -6z"/>
<path d="M34238 45023 c7 -3 16 -2 19 1 4 3 -2 6 -13 5 -11 0 -14 -3 -6 -6z"/>
<path d="M33463 44993 c9 -2 23 -2 30 0 6 3 -1 5 -18 5 -16 0 -22 -2 -12 -5z"/>
<path d="M34048 44993 c6 -2 18 -2 25 0 6 3 1 5 -13 5 -14 0 -19 -2 -12 -5z"/>
<path d="M33883 44983 c9 -2 23 -2 30 0 6 3 -1 5 -18 5 -16 0 -22 -2 -12 -5z"/>
<path d="M39440 41361 c0 -8 -1962 -11 -7367 -11 -6303 -1 -7384 -3 -7478 -15
-115 -15 -196 -34 -255 -61 -19 -9 -55 -25 -80 -37 -60 -27 -185 -111 -240
-161 -175 -159 -291 -365 -335 -594 -8 -42 -19 -78 -25 -80 -7 -3 -10 -190
-10 -538 0 -294 -2 -534 -3 -534 -2 0 -42 23 -88 51 -598 361 -1380 472 -2178
308 -262 -54 -586 -159 -820 -265 l-73 -34 7 28 c45 179 49 208 49 407 1 222
-7 279 -60 444 -68 207 -158 354 -314 512 -241 244 -553 382 -921 405 -157 10
-374 -17 -526 -65 l-58 -18 85 5 c109 6 276 -12 395 -43 492 -128 849 -531
930 -1050 14 -85 16 -142 11 -255 -3 -80 -10 -163 -14 -185 l-8 -40 -38 75
c-131 258 -350 480 -579 585 -189 86 -369 120 -596 112 -171 -7 -254 -21 -408
-72 -202 -67 -391 -183 -538 -330 -181 -181 -302 -405 -356 -656 -32 -147 -32
-389 0 -539 65 -306 200 -560 411 -770 196 -197 407 -309 700 -371 87 -19 138
-23 293 -23 162 -1 186 -3 181 -16 -43 -109 -114 -421 -135 -595 -18 -148 -16
-484 5 -635 94 -692 426 -1270 956 -1665 390 -290 888 -464 1405 -490 l120 -6
1190 1576 c655 866 1197 1585 1206 1597 16 20 21 7 123 -298 l106 -319 523
-143 c287 -78 635 -174 772 -212 138 -38 256 -69 264 -70 11 0 13 37 8 223 -5
242 -22 368 -78 577 -118 444 -400 888 -773 1220 l-116 103 0 1014 0 1013
1192 0 1191 0 -63 -41 c-177 -114 -302 -314 -330 -529 -10 -76 -14 -270 -5
-270 2 0 21 11 41 25 20 13 52 27 73 31 49 8 104 45 130 88 12 19 28 67 36
108 19 99 36 113 130 104 248 -24 412 -24 662 0 67 6 73 5 96 -18 16 -16 27
-41 31 -74 16 -114 83 -194 174 -209 23 -4 56 -18 71 -31 16 -13 32 -24 35
-24 10 0 7 193 -5 277 -29 210 -154 409 -328 522 l-64 41 2284 0 2284 0 -65
-37 c-257 -150 -403 -494 -330 -779 25 -97 120 -397 125 -393 1 2 -1 42 -5 89
-13 130 -11 306 5 393 27 154 127 312 228 361 l53 27 47 -21 c39 -17 67 -21
164 -21 180 0 327 35 384 92 l22 22 53 -56 c65 -69 100 -140 119 -239 8 -42
25 -107 39 -145 14 -37 36 -99 50 -138 27 -75 33 -162 17 -297 -4 -38 -4 -68
0 -68 5 0 77 162 107 245 57 153 78 375 48 495 -24 94 -70 183 -126 240 -54
55 -156 110 -206 110 -21 0 -39 10 -60 31 -16 17 -49 44 -73 60 l-44 29 2414
0 c2408 -1 2414 -1 2360 -20 -90 -32 -161 -80 -246 -165 -144 -144 -194 -261
-204 -485 -8 -155 -16 -177 -85 -234 -70 -57 -96 -110 -105 -211 -8 -81 -10
-88 -54 -144 -64 -81 -82 -130 -81 -221 1 -86 20 -137 84 -213 40 -49 45 -65
54 -170 5 -61 35 -125 78 -163 l23 -22 135 54 c74 29 144 58 155 64 11 5 58
25 105 44 l85 34 3 100 3 99 -45 37 c-139 113 -208 348 -143 488 28 63 77 107
207 190 172 110 301 264 351 423 40 127 59 128 124 8 63 -116 113 -188 186
-270 92 -102 110 -149 116 -296 11 -260 -32 -402 -161 -526 l-66 -63 0 -82 c0
-50 5 -89 13 -99 6 -9 43 -28 82 -42 38 -15 87 -35 110 -45 106 -48 284 -110
299 -104 24 9 72 82 85 129 6 22 11 62 11 88 0 54 8 74 56 133 54 65 76 127
77 208 0 84 -22 141 -83 218 -44 56 -47 63 -53 155 -6 79 -43 148 -109 203
-26 23 -54 56 -62 74 -7 17 -15 87 -18 156 -9 208 -68 348 -203 484 -77 77
-151 126 -248 162 l-62 23 1238 0 1237 1 0 -2915 0 -2915 -1284 0 -1283 0 -7
46 c-10 77 -6 148 9 168 8 11 15 25 15 30 0 6 -28 29 -62 50 l-62 39 -51 -27
c-27 -15 -59 -33 -70 -42 -19 -14 -19 -16 -2 -45 18 -32 22 -92 11 -173 l-7
-46 -1238 0 -1239 0 0 -1200 0 -1200 -720 0 c-585 0 -720 2 -720 13 0 7 -18
51 -40 97 -50 103 -135 190 -230 237 -82 40 -138 53 -265 59 -55 3 -101 7
-102 8 -2 2 15 47 37 101 142 348 213 687 213 1015 0 345 -71 577 -224 733
-92 93 -186 137 -293 137 -42 0 -76 3 -76 8 0 4 24 162 54 352 29 190 52 346
51 348 -2 2 -76 -53 -165 -122 -89 -69 -170 -126 -180 -126 -17 0 -56 28 -271
198 -37 29 -69 52 -73 52 -3 0 -3 -12 -1 -27 3 -16 25 -161 50 -323 24 -162
47 -309 51 -325 5 -29 3 -31 -41 -44 -26 -8 -69 -28 -95 -46 -26 -18 -66 -35
-89 -39 -88 -14 -152 -46 -217 -111 -192 -193 -245 -592 -144 -1095 46 -230
139 -511 215 -647 l24 -43 -52 -2 c-29 -1 -70 -2 -92 -3 -216 -10 -406 -157
-474 -367 l-13 -38 -3349 0 -3349 0 -2 1181 -3 1182 -47 -60 c-211 -269 -552
-510 -906 -639 l-102 -38 2 -675 3 -675 185 -56 c324 -98 625 -219 909 -366
79 -41 145 -74 147 -74 2 0 4 28 6 63 l3 62 275 0 275 0 0 -185 0 -185 -88 -3
-88 -3 111 -91 c143 -116 298 -270 431 -428 211 -250 252 -314 344 -540 l52
-125 7679 -5 c4223 -3 7687 -9 7697 -14 15 -7 17 -24 17 -133 0 -93 5 -142 19
-191 11 -37 26 -94 34 -127 41 -159 51 -196 77 -280 15 -49 31 -113 34 -140 3
-28 15 -74 26 -103 11 -29 27 -93 36 -143 8 -49 22 -108 29 -130 8 -22 22 -82
30 -132 9 -51 25 -119 35 -152 11 -33 22 -87 26 -120 3 -33 17 -95 30 -137 13
-42 28 -114 34 -160 5 -46 21 -128 35 -182 14 -54 25 -119 25 -145 0 -25 12
-93 26 -151 14 -58 32 -157 39 -221 8 -64 24 -159 34 -210 11 -52 22 -132 26
-179 4 -47 17 -148 30 -225 13 -77 28 -201 35 -275 13 -170 38 -335 55 -377
l14 -33 770 0 c724 0 771 1 779 18 18 35 44 163 39 195 -7 48 10 206 38 352
14 72 25 155 25 185 0 30 9 98 20 150 11 52 29 154 40 225 11 72 26 153 34
180 8 28 22 97 31 155 9 58 24 121 32 140 8 19 21 76 28 125 8 50 23 112 34
137 11 26 23 75 27 110 3 35 14 81 24 103 9 23 25 77 35 120 9 44 24 93 32
108 8 16 21 62 29 104 8 41 23 95 34 120 10 24 24 72 30 106 7 33 19 75 28 92
8 16 26 64 38 105 34 111 63 197 89 265 13 33 27 75 30 94 4 19 20 61 36 95
16 34 29 70 29 80 0 11 11 38 24 61 14 23 30 64 37 91 7 27 23 69 36 93 13 24
23 51 23 60 0 9 14 43 30 76 16 33 30 67 30 76 0 8 16 46 35 85 19 38 35 73
35 77 0 22 72 157 88 166 11 6 25 25 32 43 44 113 194 434 240 516 6 9 19 37
30 62 11 25 24 52 29 60 5 8 31 60 59 115 48 95 74 145 149 280 18 33 44 83
58 110 14 28 41 77 60 110 19 33 48 85 65 115 17 30 46 80 65 110 38 62 90
150 114 195 9 17 30 50 46 75 15 25 38 61 50 80 20 32 37 61 128 203 73 114
151 234 174 267 13 19 62 91 109 160 90 134 171 249 312 444 12 17 33 47 47
66 14 19 53 71 87 116 35 44 96 123 136 175 39 52 96 124 125 160 164 208 167
213 167 297 0 60 -20 100 -72 149 -66 60 -155 70 -235 25 -70 -39 -532 -490
-756 -740 -198 -220 -425 -490 -527 -627 -160 -211 -222 -294 -244 -325 -51
-72 -354 -526 -370 -555 -9 -16 -30 -50 -46 -75 -16 -25 -44 -70 -61 -100 -18
-30 -39 -61 -45 -68 -7 -6 -16 -22 -20 -35 -3 -12 -17 -36 -29 -53 -13 -16
-30 -46 -39 -65 -8 -19 -33 -63 -55 -99 -22 -36 -49 -84 -60 -108 -11 -24 -29
-55 -39 -70 -11 -15 -23 -38 -27 -52 -4 -14 -17 -38 -30 -55 -12 -16 -25 -41
-30 -55 -4 -14 -14 -36 -23 -50 -26 -42 -99 -185 -107 -211 -4 -13 -17 -38
-30 -54 -12 -17 -26 -46 -30 -65 -9 -45 -58 -186 -78 -225 -42 -81 -97 -203
-97 -212 0 -6 -13 -37 -30 -68 -16 -31 -30 -64 -30 -74 0 -9 -9 -31 -21 -50
-11 -19 -29 -62 -40 -96 -10 -35 -25 -68 -33 -74 -8 -7 -19 -35 -25 -62 -6
-27 -22 -72 -36 -99 -14 -27 -25 -57 -25 -67 0 -10 -14 -45 -30 -78 -16 -33
-30 -66 -30 -73 0 -7 -14 -50 -31 -95 -17 -45 -43 -116 -59 -157 -15 -41 -44
-129 -65 -195 -20 -66 -44 -140 -52 -165 -8 -25 -27 -88 -43 -140 -36 -121
-54 -177 -86 -270 -14 -41 -32 -104 -39 -140 -6 -36 -22 -92 -33 -126 -12 -33
-25 -87 -31 -121 -5 -33 -16 -76 -24 -96 -9 -19 -23 -73 -32 -118 -9 -45 -23
-100 -31 -123 -9 -23 -22 -86 -30 -141 -11 -76 -24 -119 -55 -182 -22 -46 -45
-83 -50 -83 -7 0 -9 77 -4 238 3 130 10 419 16 642 25 1048 30 1191 43 1343
16 173 30 396 46 727 5 113 16 255 24 315 8 61 20 191 26 290 6 99 21 281 35
405 13 124 26 270 30 325 3 55 15 158 26 229 10 71 26 206 35 300 8 94 22 201
29 238 8 37 21 136 30 220 8 84 24 198 34 253 11 55 25 149 31 209 6 61 20
152 31 204 10 52 24 136 29 186 6 50 19 128 30 174 11 46 25 127 31 180 6 53
22 140 35 192 13 52 24 109 24 128 0 33 44 177 60 197 5 5 14 48 20 93 6 46
20 111 30 145 10 34 22 87 25 117 4 30 20 105 35 165 16 61 31 136 35 168 4
32 15 84 26 114 10 31 26 94 35 142 9 47 22 102 30 121 7 19 21 76 30 125 9
50 22 105 30 123 7 17 18 60 25 95 6 34 24 103 39 152 15 50 35 119 45 155 9
36 25 99 36 140 19 76 51 182 89 300 12 36 28 92 36 125 9 33 24 84 36 113 11
29 28 83 38 120 24 87 67 215 91 272 11 25 26 71 34 103 8 32 21 68 30 80 8
12 19 47 26 76 6 30 24 82 40 115 16 34 29 69 29 80 0 10 9 33 19 50 11 17 27
58 37 91 9 33 23 69 30 80 7 11 24 52 38 90 38 111 76 209 87 221 5 6 17 35
28 65 10 30 28 70 40 89 11 19 21 41 21 48 0 8 16 46 35 86 19 40 35 76 35 80
0 8 67 152 81 176 5 8 18 35 29 60 11 25 24 53 30 63 17 30 27 50 70 142 23
50 46 97 51 105 5 8 23 42 40 75 16 33 45 87 64 120 18 33 47 85 63 115 70
130 79 146 97 174 33 50 65 139 65 181 0 25 -13 65 -33 105 -28 57 -40 70 -97
104 -106 64 -175 60 -283 -17 -29 -19 -91 -110 -142 -204 -14 -26 -41 -73 -60
-103 -19 -30 -43 -71 -52 -90 -10 -19 -27 -49 -39 -65 -11 -17 -29 -46 -39
-65 -10 -19 -33 -62 -51 -95 -18 -33 -45 -82 -59 -110 -14 -27 -43 -81 -65
-120 -21 -38 -50 -92 -64 -120 -14 -27 -30 -57 -36 -65 -5 -8 -19 -35 -30 -60
-11 -25 -27 -56 -34 -70 -8 -14 -21 -41 -30 -60 -8 -19 -22 -46 -30 -60 -14
-23 -160 -323 -240 -491 -20 -41 -36 -80 -36 -85 0 -5 -14 -38 -31 -74 -18
-36 -43 -87 -55 -115 -13 -27 -39 -84 -58 -126 -20 -41 -36 -79 -36 -84 0 -4
-13 -35 -29 -69 -34 -71 -66 -150 -91 -221 -10 -28 -27 -68 -39 -90 -11 -22
-21 -47 -21 -56 0 -9 -13 -43 -29 -75 -36 -76 -68 -152 -96 -234 -13 -36 -32
-85 -44 -110 -11 -25 -21 -53 -21 -63 0 -10 -13 -47 -30 -82 -16 -35 -30 -72
-30 -82 0 -10 -13 -45 -29 -79 -16 -34 -32 -76 -35 -95 -4 -19 -18 -59 -31
-89 -23 -54 -38 -98 -95 -275 -52 -165 -60 -190 -81 -250 -11 -33 -29 -89 -40
-125 -23 -80 -64 -209 -85 -270 -9 -25 -23 -72 -31 -105 -8 -33 -25 -91 -38
-130 -13 -38 -27 -88 -31 -110 -4 -22 -17 -67 -29 -100 -12 -33 -28 -91 -34
-128 -7 -38 -20 -89 -30 -115 -10 -26 -24 -78 -30 -115 -7 -38 -20 -92 -31
-120 -19 -53 -45 -188 -60 -312 -9 -76 -40 -227 -65 -315 -8 -30 -15 -66 -15
-81 0 -15 -13 -78 -29 -140 -16 -63 -32 -141 -36 -174 -3 -33 -17 -103 -30
-155 -13 -52 -27 -122 -30 -155 -4 -33 -17 -107 -30 -165 -13 -58 -26 -134
-30 -170 -4 -36 -17 -119 -30 -185 -14 -66 -29 -169 -35 -229 -6 -59 -20 -152
-31 -205 -11 -53 -24 -152 -30 -221 -5 -69 -19 -177 -29 -240 -11 -63 -27
-201 -35 -307 -8 -105 -22 -237 -30 -294 -9 -57 -20 -185 -25 -284 -6 -99 -21
-333 -35 -520 -14 -194 -26 -452 -27 -600 -3 -232 -5 -264 -21 -289 -25 -37
-43 -21 -52 47 -4 29 -18 90 -32 137 -13 47 -29 110 -34 140 -6 30 -21 85 -34
121 -13 36 -26 87 -30 115 -4 27 -16 71 -27 98 -10 27 -25 79 -33 115 -8 36
-26 98 -39 136 -14 39 -26 80 -26 93 0 12 -11 49 -24 82 -14 33 -30 86 -36
117 -7 32 -19 71 -27 86 -8 16 -22 61 -33 100 -10 40 -28 92 -39 117 -11 25
-21 59 -21 75 0 17 -13 58 -30 92 -16 35 -34 91 -40 125 -19 106 -50 221 -75
273 -12 28 -26 65 -30 84 -4 19 -20 61 -36 95 -16 34 -29 69 -29 79 0 10 -11
39 -24 65 -13 26 -27 63 -31 82 -4 19 -16 52 -26 72 -18 36 -19 143 -19 4003
0 2218 -4 3965 -9 3965 -4 0 -14 28 -20 63 -29 149 -77 262 -168 400 -159 239
-428 410 -723 458 -49 8 -242 14 -555 16 -264 3 -528 7 -587 10 -76 4 -108 2
-108 -6z m-6823 -7316 c184 -50 303 -107 389 -187 56 -52 124 -145 124 -170 0
-4 -93 -7 -207 -7 -158 -1 -210 -4 -218 -14 -13 -17 -127 -16 -147 1 -11 9
-91 12 -298 12 l-282 1 7 27 c12 53 65 154 111 212 56 71 128 129 226 180 l71
38 43 -28 c25 -15 102 -43 181 -65z m4923 -176 c39 -64 152 -163 238 -207 125
-66 203 -84 385 -89 86 -3 157 -3 157 0 0 3 -11 25 -25 48 -30 54 -34 80 -7
56 25 -23 141 -75 184 -82 l37 -7 3 58 3 59 33 -55 c38 -65 60 -135 70 -222
l7 -63 21 40 c24 46 55 55 104 30 50 -26 72 -70 68 -140 -5 -81 -38 -146 -114
-222 -58 -59 -62 -65 -68 -123 -4 -33 -14 -79 -22 -102 -19 -53 -99 -160 -203
-270 l-81 -86 0 -139 c0 -95 4 -143 12 -151 9 -9 -84 -12 -422 -12 -338 0
-431 3 -422 12 8 8 12 56 12 151 l0 139 -71 70 c-83 83 -182 204 -210 260 -11
22 -25 76 -31 121 -11 78 -13 83 -48 109 -70 49 -140 177 -140 254 0 41 12 68
48 107 21 22 34 27 74 27 41 0 52 -5 83 -35 l35 -36 0 114 c0 85 4 118 15 133
15 19 15 19 30 0 8 -11 15 -28 15 -38 0 -32 15 -20 78 66 70 95 99 154 108
220 4 25 9 46 13 46 3 0 17 -19 31 -41z m-5015 -276 c-16 -111 -97 -182 -207
-183 -98 0 -128 36 -128 155 l0 75 171 0 171 0 -7 -47z m545 -34 c0 -91 -8
-112 -50 -134 -83 -43 -219 6 -265 95 -15 30 -27 104 -18 113 3 4 80 7 170 7
l163 0 0 -81z m-1005 48 l80 -22 5 -65 c9 -114 49 -150 166 -150 122 0 208 59
240 166 19 63 30 74 74 74 44 0 55 -11 74 -74 32 -107 118 -166 240 -166 116
0 167 47 172 160 2 52 12 66 46 69 9 1 28 -88 38 -179 7 -69 6 -79 -17 -125
-36 -70 -95 -155 -163 -234 l-57 -67 8 -100 c10 -131 24 -162 97 -219 l59 -46
-33 -167 c-19 -92 -39 -191 -45 -219 l-10 -53 -409 0 -409 0 -10 53 c-6 28
-26 127 -45 219 l-33 167 59 46 c78 62 90 88 98 215 l6 105 -57 65 c-52 60
-103 132 -156 219 -12 20 -23 29 -27 22 -13 -20 -56 -12 -81 15 -55 59 -94
191 -74 251 11 35 43 64 69 62 8 0 51 -10 95 -22z m-5810 -1697 l0 -185 -275
0 -275 0 -3 175 c-1 96 0 180 3 187 3 11 61 13 277 11 l273 -3 0 -185z m5080
0 l0 -185 -275 0 -275 0 -3 175 c-1 96 0 180 3 187 3 11 61 13 277 11 l273 -3
0 -185z m750 0 l0 -185 -275 0 -275 0 -3 175 c-1 96 0 180 3 187 3 11 61 13
277 11 l273 -3 0 -185z m793 182 c9 -7 12 -51 10 -188 l-3 -179 -275 0 -275 0
-3 179 c-2 137 1 181 10 188 7 4 128 8 268 8 140 0 261 -4 268 -8z m807 -182
l0 -185 -275 0 -275 0 -3 175 c-1 96 0 180 3 187 3 11 61 13 277 11 l273 -3 0
-185z m750 0 l0 -185 -275 0 -275 0 -3 175 c-1 96 0 180 3 187 3 11 61 13 277
11 l273 -3 0 -185z m800 0 l0 -185 -275 0 -275 0 -3 175 c-1 96 0 180 3 187 3
11 61 13 277 11 l273 -3 0 -185z"/>
<path d="M33027 38541 c-19 -163 -59 -367 -107 -541 -43 -157 -82 -282 -87
-277 -2 3 -17 73 -33 157 l-30 153 45 74 c25 40 45 76 45 78 0 6 -186 135
-195 135 -4 0 -51 -30 -105 -67 l-98 -67 63 -81 63 -80 -37 -180 c-21 -98 -40
-175 -43 -169 -10 15 -85 272 -118 399 -39 151 -75 347 -90 493 -7 61 -15 112
-17 112 -2 0 -48 -39 -101 -86 -68 -60 -120 -97 -172 -121 -41 -20 -156 -75
-255 -123 -162 -78 -187 -94 -246 -153 -125 -125 -169 -242 -184 -487 -3 -52
-8 -119 -11 -147 l-6 -53 1357 0 1357 0 -6 83 c-25 315 -38 378 -102 488 -21
34 -65 91 -100 125 -65 64 -138 104 -457 250 -92 41 -124 63 -211 140 l-102
92 -17 -147z"/>
<path d="M36941 38297 c-139 -54 -221 -126 -280 -247 l-36 -75 -3 -232 -4
-233 111 0 111 0 0 213 c0 178 3 226 19 289 23 87 74 194 126 262 20 26 35 49
33 50 -2 2 -36 -11 -77 -27z"/>
<path d="M37008 37949 c-16 -9 -18 -31 -18 -224 l0 -215 45 0 45 0 0 215 c0
202 -1 215 -19 225 -24 12 -31 12 -53 -1z"/>
<path d="M38758 37949 c-16 -9 -18 -31 -18 -224 l0 -215 45 0 45 0 0 215 c0
202 -1 215 -19 225 -24 12 -31 12 -53 -1z"/>
<path d="M26937 37470 c-103 -65 -190 -177 -235 -301 -24 -68 -27 -89 -30
-261 l-4 -188 29 15 c15 8 43 18 61 21 23 4 32 12 32 25 0 24 37 39 94 39 107
0 357 57 577 131 80 27 161 49 180 49 27 0 55 -17 144 -86 120 -94 125 -99
125 -130 0 -17 8 -23 38 -29 20 -3 47 -13 60 -21 l22 -14 0 242 0 243 -29 60
c-57 118 -151 179 -283 180 -65 1 -83 5 -117 28 l-41 27 -288 0 -288 0 -47
-30z"/>
<path d="M32079 37476 c-38 -26 -60 -63 -78 -133 -23 -85 -81 -138 -213 -192
-93 -38 -127 -137 -80 -233 55 -111 40 -174 -64 -275 -112 -108 -126 -163 -78
-315 32 -101 29 -156 -12 -223 -72 -117 -77 -127 -82 -194 -5 -81 7 -129 54
-206 59 -99 57 -149 -11 -260 -29 -48 -33 -120 -9 -168 9 -17 53 -66 98 -109
l81 -78 20 27 c65 89 145 150 243 184 31 11 98 24 148 29 168 15 249 81 289
237 15 57 15 58 10 12 l-4 -47 62 -18 c45 -13 94 -18 177 -18 83 0 132 5 177
18 l62 18 -6 47 c-3 25 -7 47 -8 49 -2 2 -27 -4 -57 -13 -134 -40 -312 -25
-433 37 -181 92 -290 213 -352 390 -25 69 -27 86 -31 304 -3 209 -2 231 13
244 14 11 54 15 174 16 265 2 466 57 692 189 105 62 122 60 150 -18 29 -82
111 -149 198 -163 73 -12 74 -14 69 -266 -6 -242 -12 -276 -70 -393 -60 -119
-162 -222 -281 -286 l-59 -31 5 -49 c12 -100 67 -183 147 -224 47 -24 71 -29
171 -39 143 -14 272 -87 360 -204 l25 -33 78 76 c98 97 116 126 116 190 0 40
-7 61 -37 109 -26 43 -38 74 -41 110 -3 52 -1 58 62 169 33 57 44 144 27 214
-7 26 -33 78 -58 116 -61 88 -67 141 -29 261 14 46 26 103 26 127 0 63 -34
125 -97 173 -101 77 -127 180 -73 286 27 53 29 103 5 153 -21 45 -53 69 -129
98 -96 36 -148 94 -176 199 -13 50 -39 86 -78 112 -34 22 -155 24 -192 3 -33
-19 -102 -19 -147 0 -27 11 -77 15 -203 15 -126 0 -176 -4 -203 -15 -45 -19
-114 -19 -147 0 -15 9 -53 14 -95 15 -58 0 -76 -4 -106 -24z"/>
<path d="M37700 37325 c-123 -17 -314 -64 -385 -95 l-49 -21 32 -26 33 -25
-73 -77 c-113 -118 -163 -218 -192 -387 -25 -143 -22 -195 18 -267 32 -59 46
-97 60 -160 6 -24 9 -26 27 -16 12 6 36 9 54 7 l32 -4 7 72 c13 155 70 248
190 309 l79 40 271 1 c288 0 361 9 463 54 l47 20 39 -37 c73 -71 125 -212 142
-385 l7 -68 33 0 c18 0 40 -3 49 -6 11 -4 17 2 21 23 15 63 28 96 61 144 38
58 41 88 24 243 -23 198 -76 334 -161 410 -28 25 -69 51 -92 58 -22 7 -60 31
-83 53 -51 50 -157 107 -239 129 -86 24 -287 29 -415 11z"/>
<path d="M27040 35725 c-56 -38 -92 -52 -260 -100 -107 -30 -214 -65 -238 -77
-51 -25 -112 -91 -129 -139 -26 -73 -154 -751 -148 -780 l7 -29 1078 0 1078 0
5 29 c8 41 -135 756 -161 808 -24 46 -79 97 -126 117 -18 7 -120 39 -227 70
-165 49 -204 64 -258 102 -36 24 -68 41 -72 37 -3 -5 -35 -75 -69 -156 -70
-165 -70 -145 7 -199 18 -13 33 -26 33 -29 0 -3 -41 -40 -91 -82 -118 -100
-121 -100 -239 0 -49 43 -90 80 -90 83 0 3 23 20 50 39 28 18 50 36 50 40 0
10 -121 296 -129 303 -4 4 -36 -12 -71 -37z"/>
<path d="M27095 34583 c-52 -7 -158 -44 -220 -77 -86 -45 -211 -172 -258 -263
-64 -123 -77 -196 -77 -427 0 -302 -14 -363 -118 -544 -73 -125 -104 -225
-110 -347 -7 -168 37 -310 141 -452 42 -56 157 -163 176 -163 5 0 28 7 52 15
24 9 85 20 136 25 174 16 266 99 279 253 l6 62 -69 35 c-101 51 -208 162 -262
270 -59 122 -71 188 -71 426 0 246 -3 240 117 229 93 -8 265 8 381 35 116 28
275 92 373 151 110 66 124 64 165 -21 17 -36 48 -80 68 -97 31 -28 116 -63
152 -63 7 0 20 -7 28 -16 26 -25 23 -394 -4 -498 -49 -193 -176 -353 -344
-432 l-38 -19 5 -62 c15 -151 104 -235 274 -254 48 -5 112 -16 141 -25 65 -18
75 -14 172 86 78 79 131 167 167 275 23 70 27 96 27 210 0 116 -3 138 -28 210
-15 44 -51 121 -81 170 -30 50 -66 126 -81 170 -26 77 -28 92 -34 350 -7 297
-13 326 -83 460 -42 80 -164 202 -247 248 -136 75 -165 80 -450 83 -140 1
-268 0 -285 -3z"/>
<path d="M14726 32505 c-42 -38 -54 -80 -70 -239 -9 -81 -23 -177 -31 -212 -8
-36 -15 -82 -15 -102 0 -20 -7 -66 -15 -101 -9 -35 -22 -111 -30 -168 -8 -58
-17 -108 -20 -113 -3 -4 -12 -46 -21 -92 -8 -45 -21 -105 -29 -133 -13 -46
-30 -121 -57 -250 -29 -141 -137 -538 -193 -710 -9 -27 -25 -79 -35 -115 -25
-86 -49 -156 -71 -208 -11 -23 -19 -53 -19 -65 0 -12 -8 -38 -18 -57 -11 -19
-22 -48 -26 -65 -4 -16 -16 -54 -26 -82 -11 -29 -28 -77 -39 -105 -31 -87 -81
-222 -91 -243 -8 -17 -39 -94 -110 -275 -9 -25 -25 -58 -34 -75 -9 -16 -16
-36 -16 -43 0 -8 -7 -26 -15 -40 -8 -15 -28 -61 -45 -102 -34 -80 -47 -110
-105 -235 -20 -44 -50 -109 -67 -145 -51 -111 -266 -539 -339 -675 -39 -71
-77 -146 -85 -165 -9 -19 -22 -42 -29 -50 -7 -8 -27 -48 -44 -89 -18 -41 -40
-81 -51 -88 -25 -17 -26 -74 -6 -194 8 -46 20 -126 26 -178 6 -52 13 -98 16
-103 3 -5 14 -52 24 -106 18 -100 37 -181 72 -312 34 -125 120 -396 137 -427
5 -10 18 -43 29 -73 64 -172 93 -238 198 -455 41 -85 133 -250 224 -404 35
-57 111 -174 177 -271 10 -14 65 -84 123 -156 58 -72 131 -166 164 -208 32
-42 62 -76 67 -76 13 0 17 50 24 240 3 96 10 213 15 260 5 47 15 157 20 245 6
88 17 201 24 250 8 50 17 124 21 165 3 41 14 127 25 190 10 63 23 147 29 185
16 110 39 242 61 345 10 52 24 118 29 145 20 108 43 213 61 285 11 41 31 125
45 185 15 61 33 130 41 155 7 25 21 72 29 105 9 33 25 92 35 130 11 39 27 99
35 135 9 36 25 89 36 118 10 30 19 64 19 75 1 12 8 40 16 62 8 22 21 69 28
105 14 64 30 134 66 280 21 83 42 185 70 330 10 52 22 120 28 150 67 337 139
895 152 1175 5 94 14 276 20 405 7 129 10 312 6 405 -14 397 -28 639 -46 770
-11 77 -22 174 -26 215 -3 41 -12 106 -20 144 -8 38 -19 103 -24 145 -9 67
-30 171 -61 296 -5 22 -18 82 -29 133 -34 159 -67 202 -156 202 -41 0 -57 -5
-78 -25z"/>
<path d="M48220 31195 c-55 -23 -292 -143 -385 -196 -27 -16 -72 -40 -100 -54
-27 -14 -78 -42 -112 -62 -35 -21 -100 -60 -145 -87 -46 -27 -105 -63 -133
-81 -111 -71 -231 -148 -250 -162 -11 -7 -42 -29 -70 -48 -27 -19 -67 -47 -88
-62 -21 -16 -70 -50 -110 -78 -39 -27 -124 -91 -187 -140 -63 -50 -135 -106
-160 -125 -47 -36 -170 -140 -206 -175 -11 -11 -52 -47 -90 -80 -169 -147
-293 -269 -322 -318 -9 -15 -24 -29 -33 -32 -10 -3 -42 -34 -71 -67 -29 -34
-74 -85 -99 -112 -156 -174 -350 -410 -408 -499 -8 -12 -27 -35 -41 -52 -51
-56 -350 -517 -350 -538 0 -5 -10 -23 -22 -40 -13 -18 -33 -52 -45 -77 -13
-25 -27 -52 -32 -60 -5 -8 -18 -33 -28 -55 -11 -22 -27 -53 -36 -70 -9 -16
-32 -66 -52 -110 -20 -44 -47 -101 -61 -126 -13 -26 -24 -52 -24 -58 0 -7 -16
-44 -35 -84 -19 -39 -35 -79 -35 -87 0 -8 -9 -32 -19 -51 -11 -20 -27 -63 -37
-95 -9 -33 -23 -72 -31 -87 -7 -15 -23 -64 -34 -109 -11 -44 -27 -90 -35 -103
-8 -12 -21 -58 -29 -101 -8 -43 -24 -104 -36 -134 -14 -37 -22 -79 -23 -130
l-1 -75 311 -3 c358 -3 333 -10 365 100 27 94 58 187 81 243 11 28 26 70 33
95 7 25 24 67 39 94 14 27 26 56 26 64 0 8 11 35 24 61 14 25 39 78 56 116 66
147 109 235 158 325 94 173 164 296 177 310 8 9 15 20 15 24 0 4 13 26 28 49
16 23 44 67 64 97 36 57 115 176 145 220 9 14 32 42 50 63 18 20 33 41 33 46
0 5 24 40 53 77 28 38 59 79 67 91 28 39 184 228 206 248 12 11 90 99 174 195
161 184 460 488 670 681 254 234 659 571 810 675 19 13 63 45 98 71 34 27 85
64 113 83 28 19 74 52 102 72 29 20 66 46 82 58 146 100 212 152 248 199 23
29 27 44 27 101 0 58 -4 71 -30 107 -35 48 -103 83 -157 82 -21 0 -63 -11 -93
-24z"/>
<path d="M41544 28003 c-10 -41 -86 -192 -130 -260 -21 -32 -90 -109 -152
-171 -109 -108 -114 -115 -108 -147 4 -18 13 -38 20 -45 8 -6 38 -59 66 -118
28 -59 58 -118 66 -132 8 -14 22 -41 30 -60 8 -19 26 -57 39 -85 13 -27 28
-67 35 -87 6 -20 18 -42 25 -48 8 -7 20 -30 26 -52 5 -22 30 -82 55 -134 l45
-94 303 0 c221 0 305 3 314 12 18 18 14 58 -12 113 -13 28 -26 73 -30 100 -4
28 -16 65 -27 84 -11 18 -26 60 -34 93 -7 33 -21 70 -29 83 -16 24 -49 105
-87 215 -11 30 -33 82 -48 115 -16 33 -59 123 -96 200 -36 77 -71 149 -78 160
-6 11 -25 46 -41 78 -93 177 -112 207 -132 207 -7 0 -17 -12 -20 -27z"/>
<path d="M12492 26263 c-6 -10 -13 -34 -17 -53 -4 -19 -15 -60 -25 -90 -46
-143 -82 -270 -105 -371 -7 -31 -20 -79 -28 -105 -9 -27 -19 -71 -23 -99 -3
-27 -13 -66 -21 -84 -7 -19 -18 -67 -24 -105 -5 -39 -16 -93 -24 -121 -7 -27
-18 -81 -24 -120 -5 -38 -17 -108 -26 -155 -40 -219 -55 -311 -60 -380 -4 -41
-11 -95 -16 -119 -5 -23 -18 -143 -29 -265 -11 -121 -24 -261 -30 -311 -5 -49
-10 -126 -10 -171 0 -89 2 -93 85 -146 391 -249 631 -441 916 -734 135 -140
324 -371 351 -431 17 -38 17 -53 9 -145 -27 -273 -43 -408 -57 -459 -7 -31
-14 -67 -14 -80 0 -77 -140 -559 -207 -711 -41 -92 -54 -88 317 -88 288 0 320
2 339 18 15 13 25 41 37 112 8 52 22 118 29 145 8 28 17 79 20 115 4 36 13 94
20 130 7 36 16 97 20 135 3 39 15 154 26 257 18 166 20 234 17 615 -5 450 -17
616 -58 768 -10 39 -21 96 -25 127 -4 32 -15 82 -26 113 -10 30 -19 62 -19 72
0 10 -9 47 -19 83 -11 36 -32 106 -46 155 -37 131 -75 255 -91 295 -7 19 -18
51 -23 70 -9 33 -47 138 -90 255 -11 28 -26 70 -35 95 -9 25 -23 59 -30 75 -8
17 -25 57 -39 90 -127 303 -299 658 -427 880 -13 22 -32 56 -42 75 -10 19 -41
71 -68 115 -27 44 -63 105 -81 135 -46 78 -248 381 -272 408 -25 27 -43 28
-55 5z"/>
</g>
</svg>
